<?xml version="1.0" encoding="UTF-8" standalone="no"?>
<!-- Created with Inkscape (http://www.inkscape.org/) -->

<svg
   version="1.1"
   id="svg1"
   width="1488"
   height="565.36688"
   viewBox="0 0 1488 565.36688"
   xmlns="http://www.w3.org/2000/svg"
   xmlns:svg="http://www.w3.org/2000/svg">
  <defs
     id="defs1">
    <clipPath
       clipPathUnits="userSpaceOnUse"
       id="clipPath4">
      <path
         d="M 0,0 H 1116 V 339 H 0 Z"
         transform="scale(1.0010551,1)"
         id="path4" />
    </clipPath>
    <clipPath
       clipPathUnits="userSpaceOnUse"
       id="clipPath6">
      <path
         d="m 7.207,7.211 h 324.23 V 331.789 H 7.207 Z"
         transform="scale(1.3333333)"
         id="path6" />
    </clipPath>
    <clipPath
       clipPathUnits="userSpaceOnUse"
       id="clipPath7">
      <path
         d="M 0,0 H 1116 V 339 H 0 Z"
         transform="scale(1.0010551,1)"
         id="path7" />
    </clipPath>
    <clipPath
       clipPathUnits="userSpaceOnUse"
       id="clipPath9">
      <path
         d="m 7.207,7.211 h 324.23 V 331.789 H 7.207 Z"
         transform="scale(1.3333333)"
         id="path9" />
    </clipPath>
    <clipPath
       clipPathUnits="userSpaceOnUse"
       id="clipPath10">
      <path
         d="M 0,0 H 1116 V 339 H 0 Z"
         transform="scale(1.0010551,1)"
         id="path10" />
    </clipPath>
    <clipPath
       clipPathUnits="userSpaceOnUse"
       id="clipPath12">
      <path
         d="m 7.207,7.211 h 324.23 V 331.789 H 7.207 Z"
         transform="scale(1.3333333)"
         id="path12" />
    </clipPath>
    <clipPath
       clipPathUnits="userSpaceOnUse"
       id="clipPath13">
      <path
         d="M 0,0 H 1116 V 339 H 0 Z"
         transform="scale(1.0010551,1)"
         id="path13" />
    </clipPath>
    <clipPath
       clipPathUnits="userSpaceOnUse"
       id="clipPath15">
      <path
         d="m 7.207,7.211 h 324.23 V 331.789 H 7.207 Z"
         transform="scale(1.3333333)"
         id="path15" />
    </clipPath>
    <clipPath
       clipPathUnits="userSpaceOnUse"
       id="clipPath16">
      <path
         d="M 0,0 H 1116 V 339 H 0 Z"
         transform="scale(1.0010551,1)"
         id="path16" />
    </clipPath>
    <clipPath
       clipPathUnits="userSpaceOnUse"
       id="clipPath18">
      <path
         d="m 7.207,7.211 h 324.23 V 331.789 H 7.207 Z"
         transform="scale(1.3333333)"
         id="path18" />
    </clipPath>
    <clipPath
       clipPathUnits="userSpaceOnUse"
       id="clipPath19">
      <path
         d="M 0,0 H 1116 V 339 H 0 Z"
         transform="scale(1.0010551,1)"
         id="path19" />
    </clipPath>
    <clipPath
       clipPathUnits="userSpaceOnUse"
       id="clipPath21">
      <path
         d="m 7.207,7.211 h 324.23 V 331.789 H 7.207 Z"
         transform="scale(1.3333333)"
         id="path21" />
    </clipPath>
    <clipPath
       clipPathUnits="userSpaceOnUse"
       id="clipPath22">
      <path
         d="M 0,0 H 1116 V 339 H 0 Z"
         transform="scale(1.0010551,1)"
         id="path22" />
    </clipPath>
    <clipPath
       clipPathUnits="userSpaceOnUse"
       id="clipPath24">
      <path
         d="m 7.207,7.211 h 324.23 V 331.789 H 7.207 Z"
         transform="scale(1.3333333)"
         id="path24" />
    </clipPath>
    <clipPath
       clipPathUnits="userSpaceOnUse"
       id="clipPath25">
      <path
         d="M 0,0 H 1116 V 339 H 0 Z"
         transform="scale(1.0010551,1)"
         id="path25" />
    </clipPath>
    <clipPath
       clipPathUnits="userSpaceOnUse"
       id="clipPath27">
      <path
         d="m 7.207,7.211 h 324.23 V 331.789 H 7.207 Z"
         transform="scale(1.3333333)"
         id="path27" />
    </clipPath>
    <clipPath
       clipPathUnits="userSpaceOnUse"
       id="clipPath28">
      <path
         d="M 0,0 H 1116 V 339 H 0 Z"
         transform="scale(1.0010551,1)"
         id="path28" />
    </clipPath>
    <clipPath
       clipPathUnits="userSpaceOnUse"
       id="clipPath30">
      <path
         d="m 7.207,7.211 h 324.23 V 331.789 H 7.207 Z"
         transform="scale(1.3333333)"
         id="path30" />
    </clipPath>
    <clipPath
       clipPathUnits="userSpaceOnUse"
       id="clipPath31">
      <path
         d="M 0,0 H 1116 V 339 H 0 Z"
         transform="scale(1.0010551,1)"
         id="path31" />
    </clipPath>
    <clipPath
       clipPathUnits="userSpaceOnUse"
       id="clipPath33">
      <path
         d="m 7.207,7.211 h 324.23 V 331.789 H 7.207 Z"
         transform="scale(1.3333333)"
         id="path33" />
    </clipPath>
    <clipPath
       clipPathUnits="userSpaceOnUse"
       id="clipPath34">
      <path
         d="M 0,0 H 1116 V 339 H 0 Z"
         transform="scale(1.0010551,1)"
         id="path34" />
    </clipPath>
    <clipPath
       clipPathUnits="userSpaceOnUse"
       id="clipPath36">
      <path
         d="m 7.207,7.211 h 324.23 V 331.789 H 7.207 Z"
         transform="scale(1.3333333)"
         id="path36" />
    </clipPath>
    <clipPath
       clipPathUnits="userSpaceOnUse"
       id="clipPath37">
      <path
         d="M 0,0 H 1116 V 339 H 0 Z"
         transform="scale(1.0010551,1)"
         id="path37" />
    </clipPath>
    <clipPath
       clipPathUnits="userSpaceOnUse"
       id="clipPath39">
      <path
         d="m 7.207,7.211 h 324.23 V 331.789 H 7.207 Z"
         transform="scale(1.3333333)"
         id="path39" />
    </clipPath>
    <clipPath
       clipPathUnits="userSpaceOnUse"
       id="clipPath50">
      <path
         d="M 0,0 H 1116 V 339 H 0 Z"
         transform="scale(1.0010551,1)"
         id="path50" />
    </clipPath>
    <clipPath
       clipPathUnits="userSpaceOnUse"
       id="clipPath52">
      <path
         d="M 395.883,7.211 H 720.117 V 331.789 H 395.883 Z"
         transform="scale(1.3333333)"
         id="path52" />
    </clipPath>
    <clipPath
       clipPathUnits="userSpaceOnUse"
       id="clipPath53">
      <path
         d="M 0,0 H 1116 V 339 H 0 Z"
         transform="scale(1.0010551,1)"
         id="path53" />
    </clipPath>
    <clipPath
       clipPathUnits="userSpaceOnUse"
       id="clipPath55">
      <path
         d="M 395.883,7.211 H 720.117 V 331.789 H 395.883 Z"
         transform="scale(1.3333333)"
         id="path55" />
    </clipPath>
    <clipPath
       clipPathUnits="userSpaceOnUse"
       id="clipPath56">
      <path
         d="M 0,0 H 1116 V 339 H 0 Z"
         transform="scale(1.0010551,1)"
         id="path56" />
    </clipPath>
    <clipPath
       clipPathUnits="userSpaceOnUse"
       id="clipPath58">
      <path
         d="M 395.883,7.211 H 720.117 V 331.789 H 395.883 Z"
         transform="scale(1.3333333)"
         id="path58" />
    </clipPath>
    <clipPath
       clipPathUnits="userSpaceOnUse"
       id="clipPath59">
      <path
         d="M 0,0 H 1116 V 339 H 0 Z"
         transform="scale(1.0010551,1)"
         id="path59" />
    </clipPath>
    <clipPath
       clipPathUnits="userSpaceOnUse"
       id="clipPath61">
      <path
         d="M 395.883,7.211 H 720.117 V 331.789 H 395.883 Z"
         transform="scale(1.3333333)"
         id="path61" />
    </clipPath>
    <clipPath
       clipPathUnits="userSpaceOnUse"
       id="clipPath62">
      <path
         d="M 0,0 H 1116 V 339 H 0 Z"
         transform="scale(1.0010551,1)"
         id="path62" />
    </clipPath>
    <clipPath
       clipPathUnits="userSpaceOnUse"
       id="clipPath64">
      <path
         d="M 395.883,7.211 H 720.117 V 331.789 H 395.883 Z"
         transform="scale(1.3333333)"
         id="path64" />
    </clipPath>
    <clipPath
       clipPathUnits="userSpaceOnUse"
       id="clipPath65">
      <path
         d="M 0,0 H 1116 V 339 H 0 Z"
         transform="scale(1.0010551,1)"
         id="path65" />
    </clipPath>
    <clipPath
       clipPathUnits="userSpaceOnUse"
       id="clipPath67">
      <path
         d="M 395.883,7.211 H 720.117 V 331.789 H 395.883 Z"
         transform="scale(1.3333333)"
         id="path67" />
    </clipPath>
    <clipPath
       clipPathUnits="userSpaceOnUse"
       id="clipPath68">
      <path
         d="M 0,0 H 1116 V 339 H 0 Z"
         transform="scale(1.0010551,1)"
         id="path68" />
    </clipPath>
    <clipPath
       clipPathUnits="userSpaceOnUse"
       id="clipPath70">
      <path
         d="M 395.883,7.211 H 720.117 V 331.789 H 395.883 Z"
         transform="scale(1.3333333)"
         id="path70" />
    </clipPath>
    <clipPath
       clipPathUnits="userSpaceOnUse"
       id="clipPath71">
      <path
         d="M 0,0 H 1116 V 339 H 0 Z"
         transform="scale(1.0010551,1)"
         id="path71" />
    </clipPath>
    <clipPath
       clipPathUnits="userSpaceOnUse"
       id="clipPath73">
      <path
         d="M 395.883,7.211 H 720.117 V 331.789 H 395.883 Z"
         transform="scale(1.3333333)"
         id="path73" />
    </clipPath>
    <clipPath
       clipPathUnits="userSpaceOnUse"
       id="clipPath74">
      <path
         d="M 0,0 H 1116 V 339 H 0 Z"
         transform="scale(1.0010551,1)"
         id="path74" />
    </clipPath>
    <clipPath
       clipPathUnits="userSpaceOnUse"
       id="clipPath76">
      <path
         d="M 395.883,7.211 H 720.117 V 331.789 H 395.883 Z"
         transform="scale(1.3333333)"
         id="path76" />
    </clipPath>
    <clipPath
       clipPathUnits="userSpaceOnUse"
       id="clipPath77">
      <path
         d="M 0,0 H 1116 V 339 H 0 Z"
         transform="scale(1.0010551,1)"
         id="path77" />
    </clipPath>
    <clipPath
       clipPathUnits="userSpaceOnUse"
       id="clipPath79">
      <path
         d="M 395.883,7.211 H 720.117 V 331.789 H 395.883 Z"
         transform="scale(1.3333333)"
         id="path79" />
    </clipPath>
    <clipPath
       clipPathUnits="userSpaceOnUse"
       id="clipPath80">
      <path
         d="M 0,0 H 1116 V 339 H 0 Z"
         transform="scale(1.0010551,1)"
         id="path80" />
    </clipPath>
    <clipPath
       clipPathUnits="userSpaceOnUse"
       id="clipPath82">
      <path
         d="M 395.883,7.211 H 720.117 V 331.789 H 395.883 Z"
         transform="scale(1.3333333)"
         id="path82" />
    </clipPath>
    <clipPath
       clipPathUnits="userSpaceOnUse"
       id="clipPath83">
      <path
         d="M 0,0 H 1116 V 339 H 0 Z"
         transform="scale(1.0010551,1)"
         id="path83" />
    </clipPath>
    <clipPath
       clipPathUnits="userSpaceOnUse"
       id="clipPath85">
      <path
         d="M 395.883,7.211 H 720.117 V 331.789 H 395.883 Z"
         transform="scale(1.3333333)"
         id="path85" />
    </clipPath>
    <clipPath
       clipPathUnits="userSpaceOnUse"
       id="clipPath96">
      <path
         d="M 0,0 H 1116 V 339 H 0 Z"
         transform="scale(1.0010551,1)"
         id="path96" />
    </clipPath>
    <clipPath
       clipPathUnits="userSpaceOnUse"
       id="clipPath98">
      <path
         d="m 784.562,7.211 h 324.23 v 324.578 h -324.23 z"
         transform="scale(1.3333333)"
         id="path98" />
    </clipPath>
    <clipPath
       clipPathUnits="userSpaceOnUse"
       id="clipPath99">
      <path
         d="M 0,0 H 1116 V 339 H 0 Z"
         transform="scale(1.0010551,1)"
         id="path99" />
    </clipPath>
    <clipPath
       clipPathUnits="userSpaceOnUse"
       id="clipPath101">
      <path
         d="m 784.562,7.211 h 324.23 v 324.578 h -324.23 z"
         transform="scale(1.3333333)"
         id="path101" />
    </clipPath>
    <clipPath
       clipPathUnits="userSpaceOnUse"
       id="clipPath102">
      <path
         d="M 0,0 H 1116 V 339 H 0 Z"
         transform="scale(1.0010551,1)"
         id="path102" />
    </clipPath>
    <clipPath
       clipPathUnits="userSpaceOnUse"
       id="clipPath104">
      <path
         d="m 784.562,7.211 h 324.23 v 324.578 h -324.23 z"
         transform="scale(1.3333333)"
         id="path104" />
    </clipPath>
    <clipPath
       clipPathUnits="userSpaceOnUse"
       id="clipPath105">
      <path
         d="M 0,0 H 1116 V 339 H 0 Z"
         transform="scale(1.0010551,1)"
         id="path105" />
    </clipPath>
    <clipPath
       clipPathUnits="userSpaceOnUse"
       id="clipPath107">
      <path
         d="m 784.562,7.211 h 324.23 v 324.578 h -324.23 z"
         transform="scale(1.3333333)"
         id="path107" />
    </clipPath>
    <clipPath
       clipPathUnits="userSpaceOnUse"
       id="clipPath108">
      <path
         d="M 0,0 H 1116 V 339 H 0 Z"
         transform="scale(1.0010551,1)"
         id="path108" />
    </clipPath>
    <clipPath
       clipPathUnits="userSpaceOnUse"
       id="clipPath110">
      <path
         d="m 784.562,7.211 h 324.23 v 324.578 h -324.23 z"
         transform="scale(1.3333333)"
         id="path110" />
    </clipPath>
    <clipPath
       clipPathUnits="userSpaceOnUse"
       id="clipPath111">
      <path
         d="M 0,0 H 1116 V 339 H 0 Z"
         transform="scale(1.0010551,1)"
         id="path111" />
    </clipPath>
    <clipPath
       clipPathUnits="userSpaceOnUse"
       id="clipPath113">
      <path
         d="m 784.562,7.211 h 324.23 v 324.578 h -324.23 z"
         transform="scale(1.3333333)"
         id="path113" />
    </clipPath>
    <clipPath
       clipPathUnits="userSpaceOnUse"
       id="clipPath114">
      <path
         d="M 0,0 H 1116 V 339 H 0 Z"
         transform="scale(1.0010551,1)"
         id="path114" />
    </clipPath>
    <clipPath
       clipPathUnits="userSpaceOnUse"
       id="clipPath116">
      <path
         d="m 784.562,7.211 h 324.23 v 324.578 h -324.23 z"
         transform="scale(1.3333333)"
         id="path116" />
    </clipPath>
    <clipPath
       clipPathUnits="userSpaceOnUse"
       id="clipPath117">
      <path
         d="M 0,0 H 1116 V 339 H 0 Z"
         transform="scale(1.0010551,1)"
         id="path117" />
    </clipPath>
    <clipPath
       clipPathUnits="userSpaceOnUse"
       id="clipPath119">
      <path
         d="m 784.562,7.211 h 324.23 v 324.578 h -324.23 z"
         transform="scale(1.3333333)"
         id="path119" />
    </clipPath>
    <clipPath
       clipPathUnits="userSpaceOnUse"
       id="clipPath120">
      <path
         d="M 0,0 H 1116 V 339 H 0 Z"
         transform="scale(1.0010551,1)"
         id="path120" />
    </clipPath>
    <clipPath
       clipPathUnits="userSpaceOnUse"
       id="clipPath122">
      <path
         d="m 784.562,7.211 h 324.23 v 324.578 h -324.23 z"
         transform="scale(1.3333333)"
         id="path122" />
    </clipPath>
    <clipPath
       clipPathUnits="userSpaceOnUse"
       id="clipPath123">
      <path
         d="M 0,0 H 1116 V 339 H 0 Z"
         transform="scale(1.0010551,1)"
         id="path123" />
    </clipPath>
    <clipPath
       clipPathUnits="userSpaceOnUse"
       id="clipPath125">
      <path
         d="m 784.562,7.211 h 324.23 v 324.578 h -324.23 z"
         transform="scale(1.3333333)"
         id="path125" />
    </clipPath>
    <clipPath
       clipPathUnits="userSpaceOnUse"
       id="clipPath126">
      <path
         d="M 0,0 H 1116 V 339 H 0 Z"
         transform="scale(1.0010551,1)"
         id="path126" />
    </clipPath>
    <clipPath
       clipPathUnits="userSpaceOnUse"
       id="clipPath128">
      <path
         d="m 784.562,7.211 h 324.23 v 324.578 h -324.23 z"
         transform="scale(1.3333333)"
         id="path128" />
    </clipPath>
    <clipPath
       clipPathUnits="userSpaceOnUse"
       id="clipPath129">
      <path
         d="M 0,0 H 1116 V 339 H 0 Z"
         transform="scale(1.0010551,1)"
         id="path129" />
    </clipPath>
    <clipPath
       clipPathUnits="userSpaceOnUse"
       id="clipPath131">
      <path
         d="m 784.562,7.211 h 324.23 v 324.578 h -324.23 z"
         transform="scale(1.3333333)"
         id="path131" />
    </clipPath>
  </defs>
  <g
     id="g1"
     transform="translate(-2.3136073,-4.6272152)">
    <path
       id="path1"
       d="M 2.3136073,4.6272152 H 1490.3136 V 569.99409 H 2.3136073 Z"
       style="fill:#ffffff;fill-opacity:1;fill-rule:nonzero;stroke:none;stroke-width:1.49119" />
    <g
       id="g5"
       clip-path="url(#clipPath6)">
      <path
         d="M 13.456,325.547 H 221.515"
         style="fill:none;stroke:#000000;stroke-width:1.00177;stroke-linecap:square;stroke-linejoin:round;stroke-miterlimit:4;stroke-dasharray:none;stroke-opacity:1"
         transform="scale(1.331928,1.3333333)"
         clip-path="url(#clipPath4)"
         id="path5" />
    </g>
    <g
       id="g8"
       clip-path="url(#clipPath9)">
      <path
         d="M 13.456,325.547 V 117.484"
         style="fill:none;stroke:#000000;stroke-width:1.00177;stroke-linecap:square;stroke-linejoin:round;stroke-miterlimit:4;stroke-dasharray:none;stroke-opacity:1"
         transform="scale(1.331928,1.3333333)"
         clip-path="url(#clipPath7)"
         id="path8" />
    </g>
    <g
       id="g11"
       clip-path="url(#clipPath12)">
      <path
         d="M 13.456,325.547 117.483,221.516"
         style="fill:none;stroke:#000000;stroke-width:1.00177;stroke-linecap:butt;stroke-linejoin:round;stroke-miterlimit:4;stroke-dasharray:1.00177, 1.65293;stroke-dashoffset:0;stroke-opacity:1"
         transform="scale(1.331928,1.3333333)"
         clip-path="url(#clipPath10)"
         id="path11" />
    </g>
    <g
       id="g14"
       clip-path="url(#clipPath15)">
      <path
         d="M 221.515,325.547 V 117.484"
         style="fill:none;stroke:#000000;stroke-width:1.00177;stroke-linecap:square;stroke-linejoin:round;stroke-miterlimit:4;stroke-dasharray:none;stroke-opacity:1"
         transform="scale(1.331928,1.3333333)"
         clip-path="url(#clipPath13)"
         id="path14" />
    </g>
    <g
       id="g17"
       clip-path="url(#clipPath18)">
      <path
         d="M 221.515,325.547 325.546,221.516"
         style="fill:none;stroke:#000000;stroke-width:1.00177;stroke-linecap:square;stroke-linejoin:round;stroke-miterlimit:4;stroke-dasharray:none;stroke-opacity:1"
         transform="scale(1.331928,1.3333333)"
         clip-path="url(#clipPath16)"
         id="path17" />
    </g>
    <g
       id="g20"
       clip-path="url(#clipPath21)">
      <path
         d="M 13.456,117.484 H 221.515"
         style="fill:none;stroke:#000000;stroke-width:1.00177;stroke-linecap:square;stroke-linejoin:round;stroke-miterlimit:4;stroke-dasharray:none;stroke-opacity:1"
         transform="scale(1.331928,1.3333333)"
         clip-path="url(#clipPath19)"
         id="path20" />
    </g>
    <g
       id="g23"
       clip-path="url(#clipPath24)">
      <path
         d="M 13.456,117.484 117.483,13.453"
         style="fill:none;stroke:#000000;stroke-width:1.00177;stroke-linecap:square;stroke-linejoin:round;stroke-miterlimit:4;stroke-dasharray:none;stroke-opacity:1"
         transform="scale(1.331928,1.3333333)"
         clip-path="url(#clipPath22)"
         id="path23" />
    </g>
    <g
       id="g26"
       clip-path="url(#clipPath27)">
      <path
         d="M 117.483,221.516 H 325.546"
         style="fill:none;stroke:#000000;stroke-width:1.00177;stroke-linecap:butt;stroke-linejoin:round;stroke-miterlimit:4;stroke-dasharray:1.00177, 1.65293;stroke-dashoffset:0;stroke-opacity:1"
         transform="scale(1.331928,1.3333333)"
         clip-path="url(#clipPath25)"
         id="path26" />
    </g>
    <g
       id="g29"
       clip-path="url(#clipPath30)">
      <path
         d="M 117.483,221.516 V 13.453"
         style="fill:none;stroke:#000000;stroke-width:1.00177;stroke-linecap:butt;stroke-linejoin:round;stroke-miterlimit:4;stroke-dasharray:1.00177, 1.65293;stroke-dashoffset:0;stroke-opacity:1"
         transform="scale(1.331928,1.3333333)"
         clip-path="url(#clipPath28)"
         id="path29" />
    </g>
    <g
       id="g32"
       clip-path="url(#clipPath33)">
      <path
         d="M 221.515,117.484 325.546,13.453"
         style="fill:none;stroke:#000000;stroke-width:1.00177;stroke-linecap:square;stroke-linejoin:round;stroke-miterlimit:4;stroke-dasharray:none;stroke-opacity:1"
         transform="scale(1.331928,1.3333333)"
         clip-path="url(#clipPath31)"
         id="path32" />
    </g>
    <g
       id="g35"
       clip-path="url(#clipPath36)">
      <path
         d="M 325.546,221.516 V 13.453"
         style="fill:none;stroke:#000000;stroke-width:1.00177;stroke-linecap:square;stroke-linejoin:round;stroke-miterlimit:4;stroke-dasharray:none;stroke-opacity:1"
         transform="scale(1.331928,1.3333333)"
         clip-path="url(#clipPath34)"
         id="path35" />
    </g>
    <g
       id="g38"
       clip-path="url(#clipPath39)">
      <path
         d="M 117.483,13.453 H 325.546"
         style="fill:none;stroke:#000000;stroke-width:1.00177;stroke-linecap:square;stroke-linejoin:round;stroke-miterlimit:4;stroke-dasharray:none;stroke-opacity:1"
         transform="scale(1.331928,1.3333333)"
         clip-path="url(#clipPath37)"
         id="path38" />
    </g>
    <path
       id="path40"
       d="m 13.456,332.629 c 1.877,0 3.679,-0.746 5.009,-2.074 1.325,-1.328 2.072,-3.129 2.072,-5.008 0,-1.879 -0.747,-3.684 -2.072,-5.012 -1.33,-1.328 -3.132,-2.074 -5.009,-2.074 -1.881,0 -3.68,0.746 -5.01,2.074 -1.329,1.328 -2.076,3.133 -2.076,5.012 0,1.879 0.747,3.68 2.076,5.008 1.33,1.328 3.129,2.074 5.01,2.074 z"
       style="fill:#ff0000;fill-opacity:1;fill-rule:nonzero;stroke:#000000;stroke-width:1.00177;stroke-linecap:butt;stroke-linejoin:round;stroke-miterlimit:4;stroke-dasharray:none;stroke-opacity:1"
       transform="scale(1.331928,1.3333333)" />
    <path
       id="path41"
       d="m 221.515,124.57 c 1.881,0 3.679,-0.75 5.009,-2.078 1.329,-1.328 2.076,-3.129 2.076,-5.008 0,-1.879 -0.747,-3.679 -2.076,-5.007 -1.33,-1.329 -3.128,-2.075 -5.009,-2.075 -1.877,0 -3.68,0.746 -5.01,2.075 -1.329,1.328 -2.072,3.128 -2.072,5.007 0,1.879 0.743,3.68 2.072,5.008 1.33,1.328 3.133,2.078 5.01,2.078 z"
       style="fill:#ff0000;fill-opacity:1;fill-rule:nonzero;stroke:#000000;stroke-width:1.00177;stroke-linecap:butt;stroke-linejoin:round;stroke-miterlimit:4;stroke-dasharray:none;stroke-opacity:1"
       transform="scale(1.331928,1.3333333)" />
    <path
       id="path42"
       d="m 325.546,228.598 c 1.877,0 3.68,-0.746 5.009,-2.075 1.326,-1.328 2.073,-3.128 2.073,-5.007 0,-1.879 -0.747,-3.68 -2.073,-5.008 -1.329,-1.328 -3.132,-2.078 -5.009,-2.078 -1.881,0 -3.679,0.75 -5.009,2.078 -1.33,1.328 -2.076,3.129 -2.076,5.008 0,1.879 0.746,3.679 2.076,5.007 1.33,1.329 3.128,2.075 5.009,2.075 z"
       style="fill:#ff0000;fill-opacity:1;fill-rule:nonzero;stroke:#000000;stroke-width:1.00177;stroke-linecap:butt;stroke-linejoin:round;stroke-miterlimit:4;stroke-dasharray:none;stroke-opacity:1"
       transform="scale(1.331928,1.3333333)" />
    <path
       id="path43"
       d="m 117.483,20.539 c 1.881,0 3.684,-0.746 5.009,-2.074 1.33,-1.328 2.077,-3.133 2.077,-5.012 0,-1.879 -0.747,-3.68 -2.077,-5.008 -1.325,-1.328 -3.128,-2.074 -5.009,-2.074 -1.877,0 -3.679,0.746 -5.005,2.074 -1.33,1.328 -2.077,3.129 -2.077,5.008 0,1.879 0.747,3.684 2.077,5.012 1.326,1.328 3.128,2.074 5.005,2.074 z"
       style="fill:#ff0000;fill-opacity:1;fill-rule:nonzero;stroke:#000000;stroke-width:1.00177;stroke-linecap:butt;stroke-linejoin:round;stroke-miterlimit:4;stroke-dasharray:none;stroke-opacity:1"
       transform="scale(1.331928,1.3333333)" />
    <path
       id="path44"
       d="m 221.515,332.629 c 1.881,0 3.679,-0.746 5.009,-2.074 1.329,-1.328 2.076,-3.129 2.076,-5.008 0,-1.879 -0.747,-3.684 -2.076,-5.012 -1.33,-1.328 -3.128,-2.074 -5.009,-2.074 -1.877,0 -3.68,0.746 -5.01,2.074 -1.329,1.328 -2.072,3.133 -2.072,5.012 0,1.879 0.743,3.68 2.072,5.008 1.33,1.328 3.133,2.074 5.01,2.074 z"
       style="fill:#00ff00;fill-opacity:1;fill-rule:nonzero;stroke:#000000;stroke-width:1.00177;stroke-linecap:butt;stroke-linejoin:round;stroke-miterlimit:4;stroke-dasharray:none;stroke-opacity:1"
       transform="scale(1.331928,1.3333333)" />
    <path
       id="path45"
       d="m 13.456,124.57 c 1.877,0 3.679,-0.75 5.009,-2.078 1.325,-1.328 2.072,-3.129 2.072,-5.008 0,-1.879 -0.747,-3.679 -2.072,-5.007 -1.33,-1.329 -3.132,-2.075 -5.009,-2.075 -1.881,0 -3.68,0.746 -5.01,2.075 -1.329,1.328 -2.076,3.128 -2.076,5.007 0,1.879 0.747,3.68 2.076,5.008 1.33,1.328 3.129,2.078 5.01,2.078 z"
       style="fill:#00ff00;fill-opacity:1;fill-rule:nonzero;stroke:#000000;stroke-width:1.00177;stroke-linecap:butt;stroke-linejoin:round;stroke-miterlimit:4;stroke-dasharray:none;stroke-opacity:1"
       transform="scale(1.331928,1.3333333)" />
    <path
       id="path46"
       d="m 117.483,228.598 c 1.881,0 3.684,-0.746 5.009,-2.075 1.33,-1.328 2.077,-3.128 2.077,-5.007 0,-1.879 -0.747,-3.68 -2.077,-5.008 -1.325,-1.328 -3.128,-2.078 -5.009,-2.078 -1.877,0 -3.679,0.75 -5.005,2.078 -1.33,1.328 -2.077,3.129 -2.077,5.008 0,1.879 0.747,3.679 2.077,5.007 1.326,1.329 3.128,2.075 5.005,2.075 z"
       style="fill:#00ff00;fill-opacity:1;fill-rule:nonzero;stroke:#000000;stroke-width:1.00177;stroke-linecap:butt;stroke-linejoin:round;stroke-miterlimit:4;stroke-dasharray:none;stroke-opacity:1"
       transform="scale(1.331928,1.3333333)" />
    <path
       id="path47"
       d="m 325.546,20.539 c 1.877,0 3.68,-0.746 5.009,-2.074 1.326,-1.328 2.073,-3.133 2.073,-5.012 0,-1.879 -0.747,-3.68 -2.073,-5.008 -1.329,-1.328 -3.132,-2.074 -5.009,-2.074 -1.881,0 -3.679,0.746 -5.009,2.074 -1.33,1.328 -2.076,3.129 -2.076,5.008 0,1.879 0.746,3.684 2.076,5.012 1.33,1.328 3.128,2.074 5.009,2.074 z"
       style="fill:#0000ff;fill-opacity:1;fill-rule:nonzero;stroke:#000000;stroke-width:1.00177;stroke-linecap:butt;stroke-linejoin:round;stroke-miterlimit:4;stroke-dasharray:none;stroke-opacity:1"
       transform="scale(1.331928,1.3333333)" />
    <g
       id="g51"
       clip-path="url(#clipPath52)">
      <path
         d="M 402.541,325.547 H 610.604"
         style="fill:none;stroke:#000000;stroke-width:1.00177;stroke-linecap:square;stroke-linejoin:round;stroke-miterlimit:4;stroke-dasharray:none;stroke-opacity:1"
         transform="scale(1.331928,1.3333333)"
         clip-path="url(#clipPath50)"
         id="path51" />
    </g>
    <g
       id="g54"
       clip-path="url(#clipPath55)">
      <path
         d="M 402.541,325.547 V 117.484"
         style="fill:none;stroke:#000000;stroke-width:1.00177;stroke-linecap:square;stroke-linejoin:round;stroke-miterlimit:4;stroke-dasharray:none;stroke-opacity:1"
         transform="scale(1.331928,1.3333333)"
         clip-path="url(#clipPath53)"
         id="path54" />
    </g>
    <g
       id="g57"
       clip-path="url(#clipPath58)">
      <path
         d="M 402.541,325.547 506.573,221.516"
         style="fill:none;stroke:#000000;stroke-width:1.00177;stroke-linecap:butt;stroke-linejoin:round;stroke-miterlimit:4;stroke-dasharray:1.00177, 1.65293;stroke-dashoffset:0;stroke-opacity:1"
         transform="scale(1.331928,1.3333333)"
         clip-path="url(#clipPath56)"
         id="path57" />
    </g>
    <g
       id="g60"
       clip-path="url(#clipPath61)">
      <path
         d="M 610.604,325.547 V 117.484"
         style="fill:none;stroke:#000000;stroke-width:1.00177;stroke-linecap:square;stroke-linejoin:round;stroke-miterlimit:4;stroke-dasharray:none;stroke-opacity:1"
         transform="scale(1.331928,1.3333333)"
         clip-path="url(#clipPath59)"
         id="path60" />
    </g>
    <g
       id="g63"
       clip-path="url(#clipPath64)">
      <path
         d="M 610.604,325.547 714.636,221.516"
         style="fill:none;stroke:#000000;stroke-width:1.00177;stroke-linecap:square;stroke-linejoin:round;stroke-miterlimit:4;stroke-dasharray:none;stroke-opacity:1"
         transform="scale(1.331928,1.3333333)"
         clip-path="url(#clipPath62)"
         id="path63" />
    </g>
    <g
       id="g66"
       clip-path="url(#clipPath67)">
      <path
         d="M 402.541,117.484 H 610.604"
         style="fill:none;stroke:#000000;stroke-width:1.00177;stroke-linecap:square;stroke-linejoin:round;stroke-miterlimit:4;stroke-dasharray:none;stroke-opacity:1"
         transform="scale(1.331928,1.3333333)"
         clip-path="url(#clipPath65)"
         id="path66" />
    </g>
    <g
       id="g69"
       clip-path="url(#clipPath70)">
      <path
         d="M 402.541,117.484 506.573,13.453"
         style="fill:none;stroke:#000000;stroke-width:1.00177;stroke-linecap:square;stroke-linejoin:round;stroke-miterlimit:4;stroke-dasharray:none;stroke-opacity:1"
         transform="scale(1.331928,1.3333333)"
         clip-path="url(#clipPath68)"
         id="path69" />
    </g>
    <g
       id="g72"
       clip-path="url(#clipPath73)">
      <path
         d="M 506.573,221.516 H 714.636"
         style="fill:none;stroke:#000000;stroke-width:1.00177;stroke-linecap:butt;stroke-linejoin:round;stroke-miterlimit:4;stroke-dasharray:1.00177, 1.65293;stroke-dashoffset:0;stroke-opacity:1"
         transform="scale(1.331928,1.3333333)"
         clip-path="url(#clipPath71)"
         id="path72" />
    </g>
    <g
       id="g75"
       clip-path="url(#clipPath76)">
      <path
         d="M 506.573,221.516 V 13.453"
         style="fill:none;stroke:#000000;stroke-width:1.00177;stroke-linecap:butt;stroke-linejoin:round;stroke-miterlimit:4;stroke-dasharray:1.00177, 1.65293;stroke-dashoffset:0;stroke-opacity:1"
         transform="scale(1.331928,1.3333333)"
         clip-path="url(#clipPath74)"
         id="path75" />
    </g>
    <g
       id="g78"
       clip-path="url(#clipPath79)">
      <path
         d="M 610.604,117.484 714.636,13.453"
         style="fill:none;stroke:#000000;stroke-width:1.00177;stroke-linecap:square;stroke-linejoin:round;stroke-miterlimit:4;stroke-dasharray:none;stroke-opacity:1"
         transform="scale(1.331928,1.3333333)"
         clip-path="url(#clipPath77)"
         id="path78" />
    </g>
    <g
       id="g81"
       clip-path="url(#clipPath82)">
      <path
         d="M 714.636,221.516 V 13.453"
         style="fill:none;stroke:#000000;stroke-width:1.00177;stroke-linecap:square;stroke-linejoin:round;stroke-miterlimit:4;stroke-dasharray:none;stroke-opacity:1"
         transform="scale(1.331928,1.3333333)"
         clip-path="url(#clipPath80)"
         id="path81" />
    </g>
    <g
       id="g84"
       clip-path="url(#clipPath85)">
      <path
         d="M 506.573,13.453 H 714.636"
         style="fill:none;stroke:#000000;stroke-width:1.00177;stroke-linecap:square;stroke-linejoin:round;stroke-miterlimit:4;stroke-dasharray:none;stroke-opacity:1"
         transform="scale(1.331928,1.3333333)"
         clip-path="url(#clipPath83)"
         id="path84" />
    </g>
    <path
       id="path86"
       d="m 402.541,332.629 c 1.881,0 3.684,-0.746 5.01,-2.074 1.329,-1.328 2.076,-3.129 2.076,-5.008 0,-1.879 -0.747,-3.684 -2.076,-5.012 -1.326,-1.328 -3.129,-2.074 -5.01,-2.074 -1.877,0 -3.679,0.746 -5.005,2.074 -1.329,1.328 -2.076,3.133 -2.076,5.012 0,1.879 0.747,3.68 2.076,5.008 1.326,1.328 3.128,2.074 5.005,2.074 z"
       style="fill:#00ff00;fill-opacity:1;fill-rule:nonzero;stroke:#000000;stroke-width:1.00177;stroke-linecap:butt;stroke-linejoin:round;stroke-miterlimit:4;stroke-dasharray:none;stroke-opacity:1"
       transform="scale(1.331928,1.3333333)" />
    <path
       id="path87"
       d="m 610.604,124.57 c 1.877,0 3.68,-0.75 5.01,-2.078 1.325,-1.328 2.072,-3.129 2.072,-5.008 0,-1.879 -0.747,-3.679 -2.072,-5.007 -1.33,-1.329 -3.133,-2.075 -5.01,-2.075 -1.88,0 -3.679,0.746 -5.009,2.075 -1.329,1.328 -2.076,3.128 -2.076,5.007 0,1.879 0.747,3.68 2.076,5.008 1.33,1.328 3.129,2.078 5.009,2.078 z"
       style="fill:#00ff00;fill-opacity:1;fill-rule:nonzero;stroke:#000000;stroke-width:1.00177;stroke-linecap:butt;stroke-linejoin:round;stroke-miterlimit:4;stroke-dasharray:none;stroke-opacity:1"
       transform="scale(1.331928,1.3333333)" />
    <path
       id="path88"
       d="m 610.604,332.629 c 1.877,0 3.68,-0.746 5.01,-2.074 1.325,-1.328 2.072,-3.129 2.072,-5.008 0,-1.879 -0.747,-3.684 -2.072,-5.012 -1.33,-1.328 -3.133,-2.074 -5.01,-2.074 -1.88,0 -3.679,0.746 -5.009,2.074 -1.329,1.328 -2.076,3.133 -2.076,5.012 0,1.879 0.747,3.68 2.076,5.008 1.33,1.328 3.129,2.074 5.009,2.074 z"
       style="fill:#ff0000;fill-opacity:1;fill-rule:nonzero;stroke:#000000;stroke-width:1.00177;stroke-linecap:butt;stroke-linejoin:round;stroke-miterlimit:4;stroke-dasharray:none;stroke-opacity:1"
       transform="scale(1.331928,1.3333333)" />
    <path
       id="path89"
       d="m 402.541,124.57 c 1.881,0 3.684,-0.75 5.01,-2.078 1.329,-1.328 2.076,-3.129 2.076,-5.008 0,-1.879 -0.747,-3.679 -2.076,-5.007 -1.326,-1.329 -3.129,-2.075 -5.01,-2.075 -1.877,0 -3.679,0.746 -5.005,2.075 -1.329,1.328 -2.076,3.128 -2.076,5.007 0,1.879 0.747,3.68 2.076,5.008 1.326,1.328 3.128,2.078 5.005,2.078 z"
       style="fill:#ff0000;fill-opacity:1;fill-rule:nonzero;stroke:#000000;stroke-width:1.00177;stroke-linecap:butt;stroke-linejoin:round;stroke-miterlimit:4;stroke-dasharray:none;stroke-opacity:1"
       transform="scale(1.331928,1.3333333)" />
    <path
       id="path90"
       d="m 506.573,228.598 c 1.881,0 3.68,-0.746 5.009,-2.075 1.33,-1.328 2.076,-3.128 2.076,-5.007 0,-1.879 -0.746,-3.68 -2.076,-5.008 -1.329,-1.328 -3.128,-2.078 -5.009,-2.078 -1.877,0 -3.68,0.75 -5.009,2.078 -1.326,1.328 -2.073,3.129 -2.073,5.008 0,1.879 0.747,3.679 2.073,5.007 1.329,1.329 3.132,2.075 5.009,2.075 z"
       style="fill:#ff0000;fill-opacity:1;fill-rule:nonzero;stroke:#000000;stroke-width:1.00177;stroke-linecap:butt;stroke-linejoin:round;stroke-miterlimit:4;stroke-dasharray:none;stroke-opacity:1"
       transform="scale(1.331928,1.3333333)" />
    <path
       id="path91"
       d="m 714.636,20.539 c 1.877,0 3.68,-0.746 5.005,-2.074 1.33,-1.328 2.077,-3.133 2.077,-5.012 0,-1.879 -0.747,-3.68 -2.077,-5.008 -1.325,-1.328 -3.128,-2.074 -5.005,-2.074 -1.881,0 -3.684,0.746 -5.009,2.074 -1.33,1.328 -2.077,3.129 -2.077,5.008 0,1.879 0.747,3.684 2.077,5.012 1.325,1.328 3.128,2.074 5.009,2.074 z"
       style="fill:#ff0000;fill-opacity:1;fill-rule:nonzero;stroke:#000000;stroke-width:1.00177;stroke-linecap:butt;stroke-linejoin:round;stroke-miterlimit:4;stroke-dasharray:none;stroke-opacity:1"
       transform="scale(1.331928,1.3333333)" />
    <path
       id="path92"
       d="m 714.636,228.598 c 1.877,0 3.68,-0.746 5.005,-2.075 1.33,-1.328 2.077,-3.128 2.077,-5.007 0,-1.879 -0.747,-3.68 -2.077,-5.008 -1.325,-1.328 -3.128,-2.078 -5.005,-2.078 -1.881,0 -3.684,0.75 -5.009,2.078 -1.33,1.328 -2.077,3.129 -2.077,5.008 0,1.879 0.747,3.679 2.077,5.007 1.325,1.329 3.128,2.075 5.009,2.075 z"
       style="fill:#0000ff;fill-opacity:1;fill-rule:nonzero;stroke:#000000;stroke-width:1.00177;stroke-linecap:butt;stroke-linejoin:round;stroke-miterlimit:4;stroke-dasharray:none;stroke-opacity:1"
       transform="scale(1.331928,1.3333333)" />
    <path
       id="path93"
       d="m 506.573,20.539 c 1.881,0 3.68,-0.746 5.009,-2.074 1.33,-1.328 2.076,-3.133 2.076,-5.012 0,-1.879 -0.746,-3.68 -2.076,-5.008 -1.329,-1.328 -3.128,-2.074 -5.009,-2.074 -1.877,0 -3.68,0.746 -5.009,2.074 -1.326,1.328 -2.073,3.129 -2.073,5.008 0,1.879 0.747,3.684 2.073,5.012 1.329,1.328 3.132,2.074 5.009,2.074 z"
       style="fill:#0000ff;fill-opacity:1;fill-rule:nonzero;stroke:#000000;stroke-width:1.00177;stroke-linecap:butt;stroke-linejoin:round;stroke-miterlimit:4;stroke-dasharray:none;stroke-opacity:1"
       transform="scale(1.331928,1.3333333)" />
    <g
       id="g97"
       clip-path="url(#clipPath98)">
      <path
         d="M 791.631,325.547 H 999.694"
         style="fill:none;stroke:#000000;stroke-width:1.00177;stroke-linecap:square;stroke-linejoin:round;stroke-miterlimit:4;stroke-dasharray:none;stroke-opacity:1"
         transform="scale(1.331928,1.3333333)"
         clip-path="url(#clipPath96)"
         id="path97" />
    </g>
    <g
       id="g100"
       clip-path="url(#clipPath101)">
      <path
         d="M 791.631,325.547 V 117.484"
         style="fill:none;stroke:#000000;stroke-width:1.00177;stroke-linecap:square;stroke-linejoin:round;stroke-miterlimit:4;stroke-dasharray:none;stroke-opacity:1"
         transform="scale(1.331928,1.3333333)"
         clip-path="url(#clipPath99)"
         id="path100" />
    </g>
    <g
       id="g103"
       clip-path="url(#clipPath104)">
      <path
         d="M 791.631,325.547 895.663,221.516"
         style="fill:none;stroke:#000000;stroke-width:1.00177;stroke-linecap:butt;stroke-linejoin:round;stroke-miterlimit:4;stroke-dasharray:1.00177, 1.65293;stroke-dashoffset:0;stroke-opacity:1"
         transform="scale(1.331928,1.3333333)"
         clip-path="url(#clipPath102)"
         id="path103" />
    </g>
    <g
       id="g106"
       clip-path="url(#clipPath107)">
      <path
         d="M 999.694,325.547 V 117.484"
         style="fill:none;stroke:#000000;stroke-width:1.00177;stroke-linecap:square;stroke-linejoin:round;stroke-miterlimit:4;stroke-dasharray:none;stroke-opacity:1"
         transform="scale(1.331928,1.3333333)"
         clip-path="url(#clipPath105)"
         id="path106" />
    </g>
    <g
       id="g109"
       clip-path="url(#clipPath110)">
      <path
         d="M 999.694,325.547 1103.722,221.516"
         style="fill:none;stroke:#000000;stroke-width:1.00177;stroke-linecap:square;stroke-linejoin:round;stroke-miterlimit:4;stroke-dasharray:none;stroke-opacity:1"
         transform="scale(1.331928,1.3333333)"
         clip-path="url(#clipPath108)"
         id="path109" />
    </g>
    <g
       id="g112"
       clip-path="url(#clipPath113)">
      <path
         d="M 791.631,117.484 H 999.694"
         style="fill:none;stroke:#000000;stroke-width:1.00177;stroke-linecap:square;stroke-linejoin:round;stroke-miterlimit:4;stroke-dasharray:none;stroke-opacity:1"
         transform="scale(1.331928,1.3333333)"
         clip-path="url(#clipPath111)"
         id="path112" />
    </g>
    <g
       id="g115"
       clip-path="url(#clipPath116)">
      <path
         d="M 791.631,117.484 895.663,13.453"
         style="fill:none;stroke:#000000;stroke-width:1.00177;stroke-linecap:square;stroke-linejoin:round;stroke-miterlimit:4;stroke-dasharray:none;stroke-opacity:1"
         transform="scale(1.331928,1.3333333)"
         clip-path="url(#clipPath114)"
         id="path115" />
    </g>
    <g
       id="g118"
       clip-path="url(#clipPath119)">
      <path
         d="m 895.663,221.516 h 208.059"
         style="fill:none;stroke:#000000;stroke-width:1.00177;stroke-linecap:butt;stroke-linejoin:round;stroke-miterlimit:4;stroke-dasharray:1.00177, 1.65293;stroke-dashoffset:0;stroke-opacity:1"
         transform="scale(1.331928,1.3333333)"
         clip-path="url(#clipPath117)"
         id="path118" />
    </g>
    <g
       id="g121"
       clip-path="url(#clipPath122)">
      <path
         d="M 895.663,221.516 V 13.453"
         style="fill:none;stroke:#000000;stroke-width:1.00177;stroke-linecap:butt;stroke-linejoin:round;stroke-miterlimit:4;stroke-dasharray:1.00177, 1.65293;stroke-dashoffset:0;stroke-opacity:1"
         transform="scale(1.331928,1.3333333)"
         clip-path="url(#clipPath120)"
         id="path121" />
    </g>
    <g
       id="g124"
       clip-path="url(#clipPath125)">
      <path
         d="M 999.694,117.484 1103.722,13.453"
         style="fill:none;stroke:#000000;stroke-width:1.00177;stroke-linecap:square;stroke-linejoin:round;stroke-miterlimit:4;stroke-dasharray:none;stroke-opacity:1"
         transform="scale(1.331928,1.3333333)"
         clip-path="url(#clipPath123)"
         id="path124" />
    </g>
    <g
       id="g127"
       clip-path="url(#clipPath128)">
      <path
         d="M 1103.722,221.516 V 13.453"
         style="fill:none;stroke:#000000;stroke-width:1.00177;stroke-linecap:square;stroke-linejoin:round;stroke-miterlimit:4;stroke-dasharray:none;stroke-opacity:1"
         transform="scale(1.331928,1.3333333)"
         clip-path="url(#clipPath126)"
         id="path127" />
    </g>
    <g
       id="g130"
       clip-path="url(#clipPath131)">
      <path
         d="m 895.663,13.453 h 208.059"
         style="fill:none;stroke:#000000;stroke-width:1.00177;stroke-linecap:square;stroke-linejoin:round;stroke-miterlimit:4;stroke-dasharray:none;stroke-opacity:1"
         transform="scale(1.331928,1.3333333)"
         clip-path="url(#clipPath129)"
         id="path130" />
    </g>
    <path
       id="path132"
       d="m 791.631,332.629 c 1.881,0 3.68,-0.746 5.009,-2.074 1.33,-1.328 2.077,-3.129 2.077,-5.008 0,-1.879 -0.747,-3.684 -2.077,-5.012 -1.329,-1.328 -3.128,-2.074 -5.009,-2.074 -1.877,0 -3.68,0.746 -5.009,2.074 -1.326,1.328 -2.073,3.133 -2.073,5.012 0,1.879 0.747,3.68 2.073,5.008 1.329,1.328 3.132,2.074 5.009,2.074 z"
       style="fill:#0000ff;fill-opacity:1;fill-rule:nonzero;stroke:#000000;stroke-width:1.00177;stroke-linecap:butt;stroke-linejoin:round;stroke-miterlimit:4;stroke-dasharray:none;stroke-opacity:1"
       transform="scale(1.331928,1.3333333)" />
    <path
       id="path133"
       d="m 1103.722,20.539 c 1.881,0 3.679,-0.746 5.009,-2.074 1.329,-1.328 2.076,-3.133 2.076,-5.012 0,-1.879 -0.747,-3.68 -2.076,-5.008 -1.33,-1.328 -3.128,-2.074 -5.009,-2.074 -1.877,0 -3.68,0.746 -5.009,2.074 -1.326,1.328 -2.073,3.129 -2.073,5.008 0,1.879 0.747,3.684 2.073,5.012 1.329,1.328 3.132,2.074 5.009,2.074 z"
       style="fill:#0000ff;fill-opacity:1;fill-rule:nonzero;stroke:#000000;stroke-width:1.00177;stroke-linecap:butt;stroke-linejoin:round;stroke-miterlimit:4;stroke-dasharray:none;stroke-opacity:1"
       transform="scale(1.331928,1.3333333)" />
    <path
       id="path134"
       d="m 999.694,332.629 c 1.877,0 3.68,-0.746 5.009,-2.074 1.326,-1.328 2.073,-3.129 2.073,-5.008 0,-1.879 -0.747,-3.684 -2.073,-5.012 -1.329,-1.328 -3.132,-2.074 -5.009,-2.074 -1.881,0 -3.683,0.746 -5.009,2.074 -1.33,1.328 -2.076,3.133 -2.076,5.012 0,1.879 0.746,3.68 2.076,5.008 1.326,1.328 3.128,2.074 5.009,2.074 z"
       style="fill:#ff0000;fill-opacity:1;fill-rule:nonzero;stroke:#000000;stroke-width:1.00177;stroke-linecap:butt;stroke-linejoin:round;stroke-miterlimit:4;stroke-dasharray:none;stroke-opacity:1"
       transform="scale(1.331928,1.3333333)" />
    <path
       id="path135"
       d="m 791.631,124.57 c 1.881,0 3.68,-0.75 5.009,-2.078 1.33,-1.328 2.077,-3.129 2.077,-5.008 0,-1.879 -0.747,-3.679 -2.077,-5.007 -1.329,-1.329 -3.128,-2.075 -5.009,-2.075 -1.877,0 -3.68,0.746 -5.009,2.075 -1.326,1.328 -2.073,3.128 -2.073,5.007 0,1.879 0.747,3.68 2.073,5.008 1.329,1.328 3.132,2.078 5.009,2.078 z"
       style="fill:#ff0000;fill-opacity:1;fill-rule:nonzero;stroke:#000000;stroke-width:1.00177;stroke-linecap:butt;stroke-linejoin:round;stroke-miterlimit:4;stroke-dasharray:none;stroke-opacity:1"
       transform="scale(1.331928,1.3333333)" />
    <path
       id="path136"
       d="m 895.663,228.598 c 1.877,0 3.679,-0.746 5.009,-2.075 1.329,-1.328 2.072,-3.128 2.072,-5.007 0,-1.879 -0.743,-3.68 -2.072,-5.008 -1.33,-1.328 -3.132,-2.078 -5.009,-2.078 -1.881,0 -3.68,0.75 -5.01,2.078 -1.329,1.328 -2.076,3.129 -2.076,5.008 0,1.879 0.747,3.679 2.076,5.007 1.33,1.329 3.129,2.075 5.01,2.075 z"
       style="fill:#ff0000;fill-opacity:1;fill-rule:nonzero;stroke:#000000;stroke-width:1.00177;stroke-linecap:butt;stroke-linejoin:round;stroke-miterlimit:4;stroke-dasharray:none;stroke-opacity:1"
       transform="scale(1.331928,1.3333333)" />
    <path
       id="path137"
       d="m 999.694,124.57 c 1.877,0 3.68,-0.75 5.009,-2.078 1.326,-1.328 2.073,-3.129 2.073,-5.008 0,-1.879 -0.747,-3.679 -2.073,-5.007 -1.329,-1.329 -3.132,-2.075 -5.009,-2.075 -1.881,0 -3.683,0.746 -5.009,2.075 -1.33,1.328 -2.076,3.128 -2.076,5.007 0,1.879 0.746,3.68 2.076,5.008 1.326,1.328 3.128,2.078 5.009,2.078 z"
       style="fill:#00ff00;fill-opacity:1;fill-rule:nonzero;stroke:#000000;stroke-width:1.00177;stroke-linecap:butt;stroke-linejoin:round;stroke-miterlimit:4;stroke-dasharray:none;stroke-opacity:1"
       transform="scale(1.331928,1.3333333)" />
    <path
       id="path138"
       d="m 1103.722,228.598 c 1.881,0 3.679,-0.746 5.009,-2.075 1.329,-1.328 2.076,-3.128 2.076,-5.007 0,-1.879 -0.747,-3.68 -2.076,-5.008 -1.33,-1.328 -3.128,-2.078 -5.009,-2.078 -1.877,0 -3.68,0.75 -5.009,2.078 -1.326,1.328 -2.073,3.129 -2.073,5.008 0,1.879 0.747,3.679 2.073,5.007 1.329,1.329 3.132,2.075 5.009,2.075 z"
       style="fill:#00ff00;fill-opacity:1;fill-rule:nonzero;stroke:#000000;stroke-width:1.00177;stroke-linecap:butt;stroke-linejoin:round;stroke-miterlimit:4;stroke-dasharray:none;stroke-opacity:1"
       transform="scale(1.331928,1.3333333)" />
    <path
       id="path139"
       d="m 895.663,20.539 c 1.877,0 3.679,-0.746 5.009,-2.074 1.329,-1.328 2.072,-3.133 2.072,-5.012 0,-1.879 -0.743,-3.68 -2.072,-5.008 -1.33,-1.328 -3.132,-2.074 -5.009,-2.074 -1.881,0 -3.68,0.746 -5.01,2.074 -1.329,1.328 -2.076,3.129 -2.076,5.008 0,1.879 0.747,3.684 2.076,5.012 1.33,1.328 3.129,2.074 5.01,2.074 z"
       style="fill:#00ff00;fill-opacity:1;fill-rule:nonzero;stroke:#000000;stroke-width:1.00177;stroke-linecap:butt;stroke-linejoin:round;stroke-miterlimit:4;stroke-dasharray:none;stroke-opacity:1"
       transform="scale(1.331928,1.3333333)" />
    <text
       xml:space="preserve"
       style="font-size:53.3333px;font-family:Sans;-inkscape-font-specification:'Sans, Normal';text-align:start;writing-mode:lr-tb;direction:ltr;text-anchor:start;fill:#1f241c"
       x="124.93488"
       y="535.14801"
       id="text139"><tspan
         id="tspan139"
         x="124.93488"
         y="535.14801">(1,3,4)</tspan></text>
    <text
       xml:space="preserve"
       style="font-size:53.3333px;font-family:Sans;-inkscape-font-specification:'Sans, Normal';text-align:start;writing-mode:lr-tb;direction:ltr;text-anchor:start;fill:#1f241c"
       x="643.08521"
       y="535.14801"
       id="text139-0"><tspan
         id="tspan139-9"
         x="643.08521"
         y="535.14801">(2,2,4)</tspan></text>
    <text
       xml:space="preserve"
       style="font-size:53.3333px;font-family:Sans;-inkscape-font-specification:'Sans, Normal';text-align:start;writing-mode:lr-tb;direction:ltr;text-anchor:start;fill:#1f241c"
       x="1163.8726"
       y="535.14801"
       id="text139-0-5"><tspan
         id="tspan139-9-8"
         x="1163.8726"
         y="535.14801">(2,3,3)</tspan></text>
  </g>
</svg>
