<?xml version="1.0" encoding="UTF-8" standalone="no"?>
<!-- Created with Inkscape (http://www.inkscape.org/) -->

<svg
   version="1.1"
   id="svg1"
   width="969.33331"
   height="559.37225"
   viewBox="0 0 969.33331 559.37225"
   sodipodi:docname="cube_non_relaut-7-clrings.pdf"
   inkscape:export-filename="cube_non_relaut-7-clrings.pdf"
   inkscape:export-xdpi="96"
   inkscape:export-ydpi="96"
   xmlns:inkscape="http://www.inkscape.org/namespaces/inkscape"
   xmlns:sodipodi="http://sodipodi.sourceforge.net/DTD/sodipodi-0.dtd"
   xmlns="http://www.w3.org/2000/svg"
   xmlns:svg="http://www.w3.org/2000/svg">
  <defs
     id="defs1">
    <clipPath
       clipPathUnits="userSpaceOnUse"
       id="clipPath4">
      <path
         d="M 0,0 H 727 V 339 H 0 Z"
         transform="scale(1.0014972,1)"
         id="path4" />
    </clipPath>
    <clipPath
       clipPathUnits="userSpaceOnUse"
       id="clipPath6">
      <path
         d="m 7.203,7.211 h 324.09 V 331.789 H 7.203 Z"
         transform="scale(1.3333333)"
         id="path6" />
    </clipPath>
    <clipPath
       clipPathUnits="userSpaceOnUse"
       id="clipPath7">
      <path
         d="M 0,0 H 727 V 339 H 0 Z"
         transform="scale(1.0014972,1)"
         id="path7" />
    </clipPath>
    <clipPath
       clipPathUnits="userSpaceOnUse"
       id="clipPath9">
      <path
         d="m 7.203,7.211 h 324.09 V 331.789 H 7.203 Z"
         transform="scale(1.3333333)"
         id="path9" />
    </clipPath>
    <clipPath
       clipPathUnits="userSpaceOnUse"
       id="clipPath10">
      <path
         d="M 0,0 H 727 V 339 H 0 Z"
         transform="scale(1.0014972,1)"
         id="path10" />
    </clipPath>
    <clipPath
       clipPathUnits="userSpaceOnUse"
       id="clipPath12">
      <path
         d="m 7.203,7.211 h 324.09 V 331.789 H 7.203 Z"
         transform="scale(1.3333333)"
         id="path12" />
    </clipPath>
    <clipPath
       clipPathUnits="userSpaceOnUse"
       id="clipPath13">
      <path
         d="M 0,0 H 727 V 339 H 0 Z"
         transform="scale(1.0014972,1)"
         id="path13" />
    </clipPath>
    <clipPath
       clipPathUnits="userSpaceOnUse"
       id="clipPath15">
      <path
         d="m 7.203,7.211 h 324.09 V 331.789 H 7.203 Z"
         transform="scale(1.3333333)"
         id="path15" />
    </clipPath>
    <clipPath
       clipPathUnits="userSpaceOnUse"
       id="clipPath16">
      <path
         d="M 0,0 H 727 V 339 H 0 Z"
         transform="scale(1.0014972,1)"
         id="path16" />
    </clipPath>
    <clipPath
       clipPathUnits="userSpaceOnUse"
       id="clipPath18">
      <path
         d="m 7.203,7.211 h 324.09 V 331.789 H 7.203 Z"
         transform="scale(1.3333333)"
         id="path18" />
    </clipPath>
    <clipPath
       clipPathUnits="userSpaceOnUse"
       id="clipPath19">
      <path
         d="M 0,0 H 727 V 339 H 0 Z"
         transform="scale(1.0014972,1)"
         id="path19" />
    </clipPath>
    <clipPath
       clipPathUnits="userSpaceOnUse"
       id="clipPath21">
      <path
         d="m 7.203,7.211 h 324.09 V 331.789 H 7.203 Z"
         transform="scale(1.3333333)"
         id="path21" />
    </clipPath>
    <clipPath
       clipPathUnits="userSpaceOnUse"
       id="clipPath22">
      <path
         d="M 0,0 H 727 V 339 H 0 Z"
         transform="scale(1.0014972,1)"
         id="path22" />
    </clipPath>
    <clipPath
       clipPathUnits="userSpaceOnUse"
       id="clipPath24">
      <path
         d="m 7.203,7.211 h 324.09 V 331.789 H 7.203 Z"
         transform="scale(1.3333333)"
         id="path24" />
    </clipPath>
    <clipPath
       clipPathUnits="userSpaceOnUse"
       id="clipPath25">
      <path
         d="M 0,0 H 727 V 339 H 0 Z"
         transform="scale(1.0014972,1)"
         id="path25" />
    </clipPath>
    <clipPath
       clipPathUnits="userSpaceOnUse"
       id="clipPath27">
      <path
         d="m 7.203,7.211 h 324.09 V 331.789 H 7.203 Z"
         transform="scale(1.3333333)"
         id="path27" />
    </clipPath>
    <clipPath
       clipPathUnits="userSpaceOnUse"
       id="clipPath28">
      <path
         d="M 0,0 H 727 V 339 H 0 Z"
         transform="scale(1.0014972,1)"
         id="path28" />
    </clipPath>
    <clipPath
       clipPathUnits="userSpaceOnUse"
       id="clipPath30">
      <path
         d="m 7.203,7.211 h 324.09 V 331.789 H 7.203 Z"
         transform="scale(1.3333333)"
         id="path30" />
    </clipPath>
    <clipPath
       clipPathUnits="userSpaceOnUse"
       id="clipPath31">
      <path
         d="M 0,0 H 727 V 339 H 0 Z"
         transform="scale(1.0014972,1)"
         id="path31" />
    </clipPath>
    <clipPath
       clipPathUnits="userSpaceOnUse"
       id="clipPath33">
      <path
         d="m 7.203,7.211 h 324.09 V 331.789 H 7.203 Z"
         transform="scale(1.3333333)"
         id="path33" />
    </clipPath>
    <clipPath
       clipPathUnits="userSpaceOnUse"
       id="clipPath34">
      <path
         d="M 0,0 H 727 V 339 H 0 Z"
         transform="scale(1.0014972,1)"
         id="path34" />
    </clipPath>
    <clipPath
       clipPathUnits="userSpaceOnUse"
       id="clipPath36">
      <path
         d="m 7.203,7.211 h 324.09 V 331.789 H 7.203 Z"
         transform="scale(1.3333333)"
         id="path36" />
    </clipPath>
    <clipPath
       clipPathUnits="userSpaceOnUse"
       id="clipPath37">
      <path
         d="M 0,0 H 727 V 339 H 0 Z"
         transform="scale(1.0014972,1)"
         id="path37" />
    </clipPath>
    <clipPath
       clipPathUnits="userSpaceOnUse"
       id="clipPath39">
      <path
         d="m 7.203,7.211 h 324.09 V 331.789 H 7.203 Z"
         transform="scale(1.3333333)"
         id="path39" />
    </clipPath>
    <clipPath
       clipPathUnits="userSpaceOnUse"
       id="clipPath50">
      <path
         d="M 0,0 H 727 V 339 H 0 Z"
         transform="scale(1.0014972,1)"
         id="path50" />
    </clipPath>
    <clipPath
       clipPathUnits="userSpaceOnUse"
       id="clipPath52">
      <path
         d="m 395.707,7.211 h 324.09 v 324.578 h -324.09 z"
         transform="scale(1.3333333)"
         id="path52" />
    </clipPath>
    <clipPath
       clipPathUnits="userSpaceOnUse"
       id="clipPath53">
      <path
         d="M 0,0 H 727 V 339 H 0 Z"
         transform="scale(1.0014972,1)"
         id="path53" />
    </clipPath>
    <clipPath
       clipPathUnits="userSpaceOnUse"
       id="clipPath55">
      <path
         d="m 395.707,7.211 h 324.09 v 324.578 h -324.09 z"
         transform="scale(1.3333333)"
         id="path55" />
    </clipPath>
    <clipPath
       clipPathUnits="userSpaceOnUse"
       id="clipPath56">
      <path
         d="M 0,0 H 727 V 339 H 0 Z"
         transform="scale(1.0014972,1)"
         id="path56" />
    </clipPath>
    <clipPath
       clipPathUnits="userSpaceOnUse"
       id="clipPath58">
      <path
         d="m 395.707,7.211 h 324.09 v 324.578 h -324.09 z"
         transform="scale(1.3333333)"
         id="path58" />
    </clipPath>
    <clipPath
       clipPathUnits="userSpaceOnUse"
       id="clipPath59">
      <path
         d="M 0,0 H 727 V 339 H 0 Z"
         transform="scale(1.0014972,1)"
         id="path59" />
    </clipPath>
    <clipPath
       clipPathUnits="userSpaceOnUse"
       id="clipPath61">
      <path
         d="m 395.707,7.211 h 324.09 v 324.578 h -324.09 z"
         transform="scale(1.3333333)"
         id="path61" />
    </clipPath>
    <clipPath
       clipPathUnits="userSpaceOnUse"
       id="clipPath62">
      <path
         d="M 0,0 H 727 V 339 H 0 Z"
         transform="scale(1.0014972,1)"
         id="path62" />
    </clipPath>
    <clipPath
       clipPathUnits="userSpaceOnUse"
       id="clipPath64">
      <path
         d="m 395.707,7.211 h 324.09 v 324.578 h -324.09 z"
         transform="scale(1.3333333)"
         id="path64" />
    </clipPath>
    <clipPath
       clipPathUnits="userSpaceOnUse"
       id="clipPath65">
      <path
         d="M 0,0 H 727 V 339 H 0 Z"
         transform="scale(1.0014972,1)"
         id="path65" />
    </clipPath>
    <clipPath
       clipPathUnits="userSpaceOnUse"
       id="clipPath67">
      <path
         d="m 395.707,7.211 h 324.09 v 324.578 h -324.09 z"
         transform="scale(1.3333333)"
         id="path67" />
    </clipPath>
    <clipPath
       clipPathUnits="userSpaceOnUse"
       id="clipPath68">
      <path
         d="M 0,0 H 727 V 339 H 0 Z"
         transform="scale(1.0014972,1)"
         id="path68" />
    </clipPath>
    <clipPath
       clipPathUnits="userSpaceOnUse"
       id="clipPath70">
      <path
         d="m 395.707,7.211 h 324.09 v 324.578 h -324.09 z"
         transform="scale(1.3333333)"
         id="path70" />
    </clipPath>
    <clipPath
       clipPathUnits="userSpaceOnUse"
       id="clipPath71">
      <path
         d="M 0,0 H 727 V 339 H 0 Z"
         transform="scale(1.0014972,1)"
         id="path71" />
    </clipPath>
    <clipPath
       clipPathUnits="userSpaceOnUse"
       id="clipPath73">
      <path
         d="m 395.707,7.211 h 324.09 v 324.578 h -324.09 z"
         transform="scale(1.3333333)"
         id="path73" />
    </clipPath>
    <clipPath
       clipPathUnits="userSpaceOnUse"
       id="clipPath74">
      <path
         d="M 0,0 H 727 V 339 H 0 Z"
         transform="scale(1.0014972,1)"
         id="path74" />
    </clipPath>
    <clipPath
       clipPathUnits="userSpaceOnUse"
       id="clipPath76">
      <path
         d="m 395.707,7.211 h 324.09 v 324.578 h -324.09 z"
         transform="scale(1.3333333)"
         id="path76" />
    </clipPath>
    <clipPath
       clipPathUnits="userSpaceOnUse"
       id="clipPath77">
      <path
         d="M 0,0 H 727 V 339 H 0 Z"
         transform="scale(1.0014972,1)"
         id="path77" />
    </clipPath>
    <clipPath
       clipPathUnits="userSpaceOnUse"
       id="clipPath79">
      <path
         d="m 395.707,7.211 h 324.09 v 324.578 h -324.09 z"
         transform="scale(1.3333333)"
         id="path79" />
    </clipPath>
    <clipPath
       clipPathUnits="userSpaceOnUse"
       id="clipPath80">
      <path
         d="M 0,0 H 727 V 339 H 0 Z"
         transform="scale(1.0014972,1)"
         id="path80" />
    </clipPath>
    <clipPath
       clipPathUnits="userSpaceOnUse"
       id="clipPath82">
      <path
         d="m 395.707,7.211 h 324.09 v 324.578 h -324.09 z"
         transform="scale(1.3333333)"
         id="path82" />
    </clipPath>
    <clipPath
       clipPathUnits="userSpaceOnUse"
       id="clipPath83">
      <path
         d="M 0,0 H 727 V 339 H 0 Z"
         transform="scale(1.0014972,1)"
         id="path83" />
    </clipPath>
    <clipPath
       clipPathUnits="userSpaceOnUse"
       id="clipPath85">
      <path
         d="m 395.707,7.211 h 324.09 v 324.578 h -324.09 z"
         transform="scale(1.3333333)"
         id="path85" />
    </clipPath>
  </defs>
  <sodipodi:namedview
     id="namedview1"
     pagecolor="#ffffff"
     bordercolor="#000000"
     borderopacity="0.25"
     inkscape:showpageshadow="2"
     inkscape:pageopacity="0.0"
     inkscape:pagecheckerboard="0"
     inkscape:deskcolor="#d1d1d1">
    <inkscape:page
       x="0"
       y="0"
       width="969.33331"
       height="559.37225"
       id="page2"
       margin="0"
       bleed="0" />
  </sodipodi:namedview>
  <g
     id="g1"
     inkscape:groupmode="layer"
     inkscape:label="1">
    <path
       id="path1"
       d="M 0,0 H 969.33331 V 559.37226 H 0 Z"
       style="fill:#ffffff;fill-opacity:1;fill-rule:nonzero;stroke:none;stroke-width:1.48327" />
    <g
       id="g5"
       clip-path="url(#clipPath6)">
      <path
         d="M 13.454,325.547 H 221.515"
         style="fill:none;stroke:#000000;stroke-width:1.00177;stroke-linecap:square;stroke-linejoin:round;stroke-miterlimit:4;stroke-dasharray:none;stroke-opacity:1"
         transform="scale(1.33134,1.3333333)"
         clip-path="url(#clipPath4)"
         id="path5" />
    </g>
    <g
       id="g8"
       clip-path="url(#clipPath9)">
      <path
         d="M 13.454,325.547 V 117.484"
         style="fill:none;stroke:#000000;stroke-width:1.00177;stroke-linecap:square;stroke-linejoin:round;stroke-miterlimit:4;stroke-dasharray:none;stroke-opacity:1"
         transform="scale(1.33134,1.3333333)"
         clip-path="url(#clipPath7)"
         id="path8" />
    </g>
    <g
       id="g11"
       clip-path="url(#clipPath12)">
      <path
         d="M 13.454,325.547 117.484,221.516"
         style="fill:none;stroke:#000000;stroke-width:1.00177;stroke-linecap:butt;stroke-linejoin:round;stroke-miterlimit:4;stroke-dasharray:1.00177, 1.65293;stroke-dashoffset:0;stroke-opacity:1"
         transform="scale(1.33134,1.3333333)"
         clip-path="url(#clipPath10)"
         id="path11" />
    </g>
    <g
       id="g14"
       clip-path="url(#clipPath15)">
      <path
         d="M 221.515,325.547 V 117.484"
         style="fill:none;stroke:#000000;stroke-width:1.00177;stroke-linecap:square;stroke-linejoin:round;stroke-miterlimit:4;stroke-dasharray:none;stroke-opacity:1"
         transform="scale(1.33134,1.3333333)"
         clip-path="url(#clipPath13)"
         id="path14" />
    </g>
    <g
       id="g17"
       clip-path="url(#clipPath18)">
      <path
         d="M 221.515,325.547 325.545,221.516"
         style="fill:none;stroke:#000000;stroke-width:1.00177;stroke-linecap:square;stroke-linejoin:round;stroke-miterlimit:4;stroke-dasharray:none;stroke-opacity:1"
         transform="scale(1.33134,1.3333333)"
         clip-path="url(#clipPath16)"
         id="path17" />
    </g>
    <g
       id="g20"
       clip-path="url(#clipPath21)">
      <path
         d="M 13.454,117.484 H 221.515"
         style="fill:none;stroke:#000000;stroke-width:1.00177;stroke-linecap:square;stroke-linejoin:round;stroke-miterlimit:4;stroke-dasharray:none;stroke-opacity:1"
         transform="scale(1.33134,1.3333333)"
         clip-path="url(#clipPath19)"
         id="path20" />
    </g>
    <g
       id="g23"
       clip-path="url(#clipPath24)">
      <path
         d="M 13.454,117.484 117.484,13.453"
         style="fill:none;stroke:#000000;stroke-width:1.00177;stroke-linecap:square;stroke-linejoin:round;stroke-miterlimit:4;stroke-dasharray:none;stroke-opacity:1"
         transform="scale(1.33134,1.3333333)"
         clip-path="url(#clipPath22)"
         id="path23" />
    </g>
    <g
       id="g26"
       clip-path="url(#clipPath27)">
      <path
         d="M 117.484,221.516 H 325.545"
         style="fill:none;stroke:#000000;stroke-width:1.00177;stroke-linecap:butt;stroke-linejoin:round;stroke-miterlimit:4;stroke-dasharray:1.00177, 1.65293;stroke-dashoffset:0;stroke-opacity:1"
         transform="scale(1.33134,1.3333333)"
         clip-path="url(#clipPath25)"
         id="path26" />
    </g>
    <g
       id="g29"
       clip-path="url(#clipPath30)">
      <path
         d="M 117.484,221.516 V 13.453"
         style="fill:none;stroke:#000000;stroke-width:1.00177;stroke-linecap:butt;stroke-linejoin:round;stroke-miterlimit:4;stroke-dasharray:1.00177, 1.65293;stroke-dashoffset:0;stroke-opacity:1"
         transform="scale(1.33134,1.3333333)"
         clip-path="url(#clipPath28)"
         id="path29" />
    </g>
    <g
       id="g32"
       clip-path="url(#clipPath33)">
      <path
         d="M 221.515,117.484 325.545,13.453"
         style="fill:none;stroke:#000000;stroke-width:1.00177;stroke-linecap:square;stroke-linejoin:round;stroke-miterlimit:4;stroke-dasharray:none;stroke-opacity:1"
         transform="scale(1.33134,1.3333333)"
         clip-path="url(#clipPath31)"
         id="path32" />
    </g>
    <g
       id="g35"
       clip-path="url(#clipPath36)">
      <path
         d="M 325.545,221.516 V 13.453"
         style="fill:none;stroke:#000000;stroke-width:1.00177;stroke-linecap:square;stroke-linejoin:round;stroke-miterlimit:4;stroke-dasharray:none;stroke-opacity:1"
         transform="scale(1.33134,1.3333333)"
         clip-path="url(#clipPath34)"
         id="path35" />
    </g>
    <g
       id="g38"
       clip-path="url(#clipPath39)">
      <path
         d="M 117.484,13.453 H 325.545"
         style="fill:none;stroke:#000000;stroke-width:1.00177;stroke-linecap:square;stroke-linejoin:round;stroke-miterlimit:4;stroke-dasharray:none;stroke-opacity:1"
         transform="scale(1.33134,1.3333333)"
         clip-path="url(#clipPath37)"
         id="path38" />
    </g>
    <path
       id="path40"
       d="m 13.454,332.629 c 1.878,0 3.681,-0.746 5.011,-2.074 1.326,-1.328 2.074,-3.129 2.074,-5.008 0,-1.879 -0.748,-3.684 -2.074,-5.012 -1.33,-1.328 -3.133,-2.074 -5.011,-2.074 -1.878,0 -3.682,0.746 -5.008,2.074 -1.33,1.328 -2.073,3.133 -2.073,5.012 0,1.879 0.743,3.68 2.073,5.008 1.326,1.328 3.13,2.074 5.008,2.074 z"
       style="fill:#00ff00;fill-opacity:1;fill-rule:nonzero;stroke:#000000;stroke-width:1.00177;stroke-linecap:butt;stroke-linejoin:round;stroke-miterlimit:4;stroke-dasharray:none;stroke-opacity:1"
       transform="scale(1.33134,1.3333333)" />
    <path
       id="path41"
       d="m 221.515,332.629 c 1.878,0 3.681,-0.746 5.007,-2.074 1.33,-1.328 2.078,-3.129 2.078,-5.008 0,-1.879 -0.748,-3.684 -2.078,-5.012 -1.326,-1.328 -3.129,-2.074 -5.007,-2.074 -1.878,0 -3.681,0.746 -5.008,2.074 -1.33,1.328 -2.077,3.133 -2.077,5.012 0,1.879 0.747,3.68 2.077,5.008 1.327,1.328 3.13,2.074 5.008,2.074 z"
       style="fill:#0000ff;fill-opacity:1;fill-rule:nonzero;stroke:#000000;stroke-width:1.00177;stroke-linecap:butt;stroke-linejoin:round;stroke-miterlimit:4;stroke-dasharray:none;stroke-opacity:1"
       transform="scale(1.33134,1.3333333)" />
    <path
       id="path42"
       d="m 13.454,124.57 c 1.878,0 3.681,-0.75 5.011,-2.078 1.326,-1.328 2.074,-3.129 2.074,-5.008 0,-1.879 -0.748,-3.679 -2.074,-5.007 -1.33,-1.329 -3.133,-2.075 -5.011,-2.075 -1.878,0 -3.682,0.746 -5.008,2.075 -1.33,1.328 -2.073,3.128 -2.073,5.007 0,1.879 0.743,3.68 2.073,5.008 1.326,1.328 3.13,2.078 5.008,2.078 z"
       style="fill:#ffff00;fill-opacity:1;fill-rule:nonzero;stroke:#000000;stroke-width:1.00177;stroke-linecap:butt;stroke-linejoin:round;stroke-miterlimit:4;stroke-dasharray:none;stroke-opacity:1"
       transform="scale(1.33134,1.3333333)" />
    <path
       id="path43"
       d="m 117.484,228.598 c 1.878,0 3.682,-0.746 5.012,-2.075 1.326,-1.328 2.073,-3.128 2.073,-5.007 0,-1.879 -0.747,-3.68 -2.073,-5.008 -1.33,-1.328 -3.134,-2.078 -5.012,-2.078 -1.878,0 -3.681,0.75 -5.007,2.078 -1.33,1.328 -2.078,3.129 -2.078,5.008 0,1.879 0.748,3.679 2.078,5.007 1.326,1.329 3.129,2.075 5.007,2.075 z"
       style="fill:#ff0000;fill-opacity:1;fill-rule:nonzero;stroke:#000000;stroke-width:1.00177;stroke-linecap:butt;stroke-linejoin:round;stroke-miterlimit:4;stroke-dasharray:none;stroke-opacity:1"
       transform="scale(1.33134,1.3333333)" />
    <path
       id="path44"
       d="m 221.515,124.57 c 1.878,0 3.681,-0.75 5.007,-2.078 1.33,-1.328 2.078,-3.129 2.078,-5.008 0,-1.879 -0.748,-3.679 -2.078,-5.007 -1.326,-1.329 -3.129,-2.075 -5.007,-2.075 -1.878,0 -3.681,0.746 -5.008,2.075 -1.33,1.328 -2.077,3.128 -2.077,5.007 0,1.879 0.747,3.68 2.077,5.008 1.327,1.328 3.13,2.078 5.008,2.078 z"
       style="fill:#ff0000;fill-opacity:1;fill-rule:nonzero;stroke:#000000;stroke-width:1.00177;stroke-linecap:butt;stroke-linejoin:round;stroke-miterlimit:4;stroke-dasharray:none;stroke-opacity:1"
       transform="scale(1.33134,1.3333333)" />
    <path
       id="path45"
       d="m 325.545,228.598 c 1.878,0 3.682,-0.746 5.008,-2.075 1.33,-1.328 2.077,-3.128 2.077,-5.007 0,-1.879 -0.747,-3.68 -2.077,-5.008 -1.326,-1.328 -3.13,-2.078 -5.008,-2.078 -1.877,0 -3.681,0.75 -5.007,2.078 -1.33,1.328 -2.077,3.129 -2.077,5.008 0,1.879 0.747,3.679 2.077,5.007 1.326,1.329 3.13,2.075 5.007,2.075 z"
       style="fill:#ff00ff;fill-opacity:1;fill-rule:nonzero;stroke:#000000;stroke-width:1.00177;stroke-linecap:butt;stroke-linejoin:round;stroke-miterlimit:4;stroke-dasharray:none;stroke-opacity:1"
       transform="scale(1.33134,1.3333333)" />
    <path
       id="path46"
       d="m 117.484,20.539 c 1.878,0 3.682,-0.746 5.012,-2.074 1.326,-1.328 2.073,-3.133 2.073,-5.012 0,-1.879 -0.747,-3.68 -2.073,-5.008 -1.33,-1.328 -3.134,-2.074 -5.012,-2.074 -1.878,0 -3.681,0.746 -5.007,2.074 -1.33,1.328 -2.078,3.129 -2.078,5.008 0,1.879 0.748,3.684 2.078,5.012 1.326,1.328 3.129,2.074 5.007,2.074 z"
       style="fill:#00ffff;fill-opacity:1;fill-rule:nonzero;stroke:#000000;stroke-width:1.00177;stroke-linecap:butt;stroke-linejoin:round;stroke-miterlimit:4;stroke-dasharray:none;stroke-opacity:1"
       transform="scale(1.33134,1.3333333)" />
    <path
       id="path47"
       d="m 325.545,20.539 c 1.878,0 3.682,-0.746 5.008,-2.074 1.33,-1.328 2.077,-3.133 2.077,-5.012 0,-1.879 -0.747,-3.68 -2.077,-5.008 -1.326,-1.328 -3.13,-2.074 -5.008,-2.074 -1.877,0 -3.681,0.746 -5.007,2.074 -1.33,1.328 -2.077,3.129 -2.077,5.008 0,1.879 0.747,3.684 2.077,5.012 1.326,1.328 3.13,2.074 5.007,2.074 z"
       style="fill:#ffffff;fill-opacity:1;fill-rule:nonzero;stroke:#000000;stroke-width:1.00177;stroke-linecap:butt;stroke-linejoin:round;stroke-miterlimit:4;stroke-dasharray:none;stroke-opacity:1"
       transform="scale(1.33134,1.3333333)" />
    <g
       id="g51"
       clip-path="url(#clipPath52)">
      <path
         d="M 402.543,325.547 H 610.604"
         style="fill:none;stroke:#000000;stroke-width:1.00177;stroke-linecap:square;stroke-linejoin:round;stroke-miterlimit:4;stroke-dasharray:none;stroke-opacity:1"
         transform="scale(1.33134,1.3333333)"
         clip-path="url(#clipPath50)"
         id="path51" />
    </g>
    <g
       id="g54"
       clip-path="url(#clipPath55)">
      <path
         d="M 402.543,325.547 V 117.484"
         style="fill:none;stroke:#000000;stroke-width:1.00177;stroke-linecap:square;stroke-linejoin:round;stroke-miterlimit:4;stroke-dasharray:none;stroke-opacity:1"
         transform="scale(1.33134,1.3333333)"
         clip-path="url(#clipPath53)"
         id="path54" />
    </g>
    <g
       id="g57"
       clip-path="url(#clipPath58)">
      <path
         d="M 402.543,325.547 506.574,221.516"
         style="fill:none;stroke:#000000;stroke-width:1.00177;stroke-linecap:butt;stroke-linejoin:round;stroke-miterlimit:4;stroke-dasharray:1.00177, 1.65293;stroke-dashoffset:0;stroke-opacity:1"
         transform="scale(1.33134,1.3333333)"
         clip-path="url(#clipPath56)"
         id="path57" />
    </g>
    <g
       id="g60"
       clip-path="url(#clipPath61)">
      <path
         d="M 610.604,325.547 V 117.484"
         style="fill:none;stroke:#000000;stroke-width:1.00177;stroke-linecap:square;stroke-linejoin:round;stroke-miterlimit:4;stroke-dasharray:none;stroke-opacity:1"
         transform="scale(1.33134,1.3333333)"
         clip-path="url(#clipPath59)"
         id="path60" />
    </g>
    <g
       id="g63"
       clip-path="url(#clipPath64)">
      <path
         d="M 610.604,325.547 714.635,221.516"
         style="fill:none;stroke:#000000;stroke-width:1.00177;stroke-linecap:square;stroke-linejoin:round;stroke-miterlimit:4;stroke-dasharray:none;stroke-opacity:1"
         transform="scale(1.33134,1.3333333)"
         clip-path="url(#clipPath62)"
         id="path63" />
    </g>
    <g
       id="g66"
       clip-path="url(#clipPath67)">
      <path
         d="M 402.543,117.484 H 610.604"
         style="fill:none;stroke:#000000;stroke-width:1.00177;stroke-linecap:square;stroke-linejoin:round;stroke-miterlimit:4;stroke-dasharray:none;stroke-opacity:1"
         transform="scale(1.33134,1.3333333)"
         clip-path="url(#clipPath65)"
         id="path66" />
    </g>
    <g
       id="g69"
       clip-path="url(#clipPath70)">
      <path
         d="M 402.543,117.484 506.574,13.453"
         style="fill:none;stroke:#000000;stroke-width:1.00177;stroke-linecap:square;stroke-linejoin:round;stroke-miterlimit:4;stroke-dasharray:none;stroke-opacity:1"
         transform="scale(1.33134,1.3333333)"
         clip-path="url(#clipPath68)"
         id="path69" />
    </g>
    <g
       id="g72"
       clip-path="url(#clipPath73)">
      <path
         d="M 506.574,221.516 H 714.635"
         style="fill:none;stroke:#000000;stroke-width:1.00177;stroke-linecap:butt;stroke-linejoin:round;stroke-miterlimit:4;stroke-dasharray:1.00177, 1.65293;stroke-dashoffset:0;stroke-opacity:1"
         transform="scale(1.33134,1.3333333)"
         clip-path="url(#clipPath71)"
         id="path72" />
    </g>
    <g
       id="g75"
       clip-path="url(#clipPath76)">
      <path
         d="M 506.574,221.516 V 13.453"
         style="fill:none;stroke:#000000;stroke-width:1.00177;stroke-linecap:butt;stroke-linejoin:round;stroke-miterlimit:4;stroke-dasharray:1.00177, 1.65293;stroke-dashoffset:0;stroke-opacity:1"
         transform="scale(1.33134,1.3333333)"
         clip-path="url(#clipPath74)"
         id="path75" />
    </g>
    <g
       id="g78"
       clip-path="url(#clipPath79)">
      <path
         d="M 610.604,117.484 714.635,13.453"
         style="fill:none;stroke:#000000;stroke-width:1.00177;stroke-linecap:square;stroke-linejoin:round;stroke-miterlimit:4;stroke-dasharray:none;stroke-opacity:1"
         transform="scale(1.33134,1.3333333)"
         clip-path="url(#clipPath77)"
         id="path78" />
    </g>
    <g
       id="g81"
       clip-path="url(#clipPath82)">
      <path
         d="M 714.635,221.516 V 13.453"
         style="fill:none;stroke:#000000;stroke-width:1.00177;stroke-linecap:square;stroke-linejoin:round;stroke-miterlimit:4;stroke-dasharray:none;stroke-opacity:1"
         transform="scale(1.33134,1.3333333)"
         clip-path="url(#clipPath80)"
         id="path81" />
    </g>
    <g
       id="g84"
       clip-path="url(#clipPath85)">
      <path
         d="M 506.574,13.453 H 714.635"
         style="fill:none;stroke:#000000;stroke-width:1.00177;stroke-linecap:square;stroke-linejoin:round;stroke-miterlimit:4;stroke-dasharray:none;stroke-opacity:1"
         transform="scale(1.33134,1.3333333)"
         clip-path="url(#clipPath83)"
         id="path84" />
    </g>
    <path
       id="path86"
       d="m 402.543,332.629 c 1.878,0 3.682,-0.746 5.008,-2.074 1.33,-1.328 2.077,-3.129 2.077,-5.008 0,-1.879 -0.747,-3.684 -2.077,-5.012 -1.326,-1.328 -3.13,-2.074 -5.008,-2.074 -1.878,0 -3.681,0.746 -5.007,2.074 -1.33,1.328 -2.078,3.133 -2.078,5.012 0,1.879 0.748,3.68 2.078,5.008 1.326,1.328 3.129,2.074 5.007,2.074 z"
       style="fill:#00ff00;fill-opacity:1;fill-rule:nonzero;stroke:#000000;stroke-width:1.00177;stroke-linecap:butt;stroke-linejoin:round;stroke-miterlimit:4;stroke-dasharray:none;stroke-opacity:1"
       transform="scale(1.33134,1.3333333)" />
    <path
       id="path87"
       d="m 610.604,332.629 c 1.878,0 3.682,-0.746 5.008,-2.074 1.33,-1.328 2.077,-3.129 2.077,-5.008 0,-1.879 -0.747,-3.684 -2.077,-5.012 -1.326,-1.328 -3.13,-2.074 -5.008,-2.074 -1.877,0 -3.681,0.746 -5.011,2.074 -1.326,1.328 -2.073,3.133 -2.073,5.012 0,1.879 0.747,3.68 2.073,5.008 1.33,1.328 3.134,2.074 5.011,2.074 z"
       style="fill:#ff0000;fill-opacity:1;fill-rule:nonzero;stroke:#000000;stroke-width:1.00177;stroke-linecap:butt;stroke-linejoin:round;stroke-miterlimit:4;stroke-dasharray:none;stroke-opacity:1"
       transform="scale(1.33134,1.3333333)" />
    <path
       id="path88"
       d="m 402.543,124.57 c 1.878,0 3.682,-0.75 5.008,-2.078 1.33,-1.328 2.077,-3.129 2.077,-5.008 0,-1.879 -0.747,-3.679 -2.077,-5.007 -1.326,-1.329 -3.13,-2.075 -5.008,-2.075 -1.878,0 -3.681,0.746 -5.007,2.075 -1.33,1.328 -2.078,3.128 -2.078,5.007 0,1.879 0.748,3.68 2.078,5.008 1.326,1.328 3.129,2.078 5.007,2.078 z"
       style="fill:#ff0000;fill-opacity:1;fill-rule:nonzero;stroke:#000000;stroke-width:1.00177;stroke-linecap:butt;stroke-linejoin:round;stroke-miterlimit:4;stroke-dasharray:none;stroke-opacity:1"
       transform="scale(1.33134,1.3333333)" />
    <path
       id="path89"
       d="m 506.574,228.598 c 1.878,0 3.681,-0.746 5.007,-2.075 1.33,-1.328 2.078,-3.128 2.078,-5.007 0,-1.879 -0.748,-3.68 -2.078,-5.008 -1.326,-1.328 -3.129,-2.078 -5.007,-2.078 -1.878,0 -3.681,0.75 -5.008,2.078 -1.33,1.328 -2.077,3.129 -2.077,5.008 0,1.879 0.747,3.679 2.077,5.007 1.327,1.329 3.13,2.075 5.008,2.075 z"
       style="fill:#0000ff;fill-opacity:1;fill-rule:nonzero;stroke:#000000;stroke-width:1.00177;stroke-linecap:butt;stroke-linejoin:round;stroke-miterlimit:4;stroke-dasharray:none;stroke-opacity:1"
       transform="scale(1.33134,1.3333333)" />
    <path
       id="path90"
       d="m 610.604,124.57 c 1.878,0 3.682,-0.75 5.008,-2.078 1.33,-1.328 2.077,-3.129 2.077,-5.008 0,-1.879 -0.747,-3.679 -2.077,-5.007 -1.326,-1.329 -3.13,-2.075 -5.008,-2.075 -1.877,0 -3.681,0.746 -5.011,2.075 -1.326,1.328 -2.073,3.128 -2.073,5.007 0,1.879 0.747,3.68 2.073,5.008 1.33,1.328 3.134,2.078 5.011,2.078 z"
       style="fill:#ffff00;fill-opacity:1;fill-rule:nonzero;stroke:#000000;stroke-width:1.00177;stroke-linecap:butt;stroke-linejoin:round;stroke-miterlimit:4;stroke-dasharray:none;stroke-opacity:1"
       transform="scale(1.33134,1.3333333)" />
    <path
       id="path91"
       d="m 714.635,228.598 c 1.878,0 3.681,-0.746 5.007,-2.075 1.331,-1.328 2.074,-3.128 2.074,-5.007 0,-1.879 -0.743,-3.68 -2.074,-5.008 -1.326,-1.328 -3.129,-2.078 -5.007,-2.078 -1.878,0 -3.681,0.75 -5.011,2.078 -1.327,1.328 -2.074,3.129 -2.074,5.008 0,1.879 0.747,3.679 2.074,5.007 1.33,1.329 3.133,2.075 5.011,2.075 z"
       style="fill:#ff00ff;fill-opacity:1;fill-rule:nonzero;stroke:#000000;stroke-width:1.00177;stroke-linecap:butt;stroke-linejoin:round;stroke-miterlimit:4;stroke-dasharray:none;stroke-opacity:1"
       transform="scale(1.33134,1.3333333)" />
    <path
       id="path92"
       d="m 506.574,20.539 c 1.878,0 3.681,-0.746 5.007,-2.074 1.33,-1.328 2.078,-3.133 2.078,-5.012 0,-1.879 -0.748,-3.68 -2.078,-5.008 -1.326,-1.328 -3.129,-2.074 -5.007,-2.074 -1.878,0 -3.681,0.746 -5.008,2.074 -1.33,1.328 -2.077,3.129 -2.077,5.008 0,1.879 0.747,3.684 2.077,5.012 1.327,1.328 3.13,2.074 5.008,2.074 z"
       style="fill:#00ffff;fill-opacity:1;fill-rule:nonzero;stroke:#000000;stroke-width:1.00177;stroke-linecap:butt;stroke-linejoin:round;stroke-miterlimit:4;stroke-dasharray:none;stroke-opacity:1"
       transform="scale(1.33134,1.3333333)" />
    <path
       id="path93"
       d="m 714.635,20.539 c 1.878,0 3.681,-0.746 5.007,-2.074 1.331,-1.328 2.074,-3.133 2.074,-5.012 0,-1.879 -0.743,-3.68 -2.074,-5.008 -1.326,-1.328 -3.129,-2.074 -5.007,-2.074 -1.878,0 -3.681,0.746 -5.011,2.074 -1.327,1.328 -2.074,3.129 -2.074,5.008 0,1.879 0.747,3.684 2.074,5.012 1.33,1.328 3.133,2.074 5.011,2.074 z"
       style="fill:#ffffff;fill-opacity:1;fill-rule:nonzero;stroke:#000000;stroke-width:1.00177;stroke-linecap:butt;stroke-linejoin:round;stroke-miterlimit:4;stroke-dasharray:none;stroke-opacity:1"
       transform="scale(1.33134,1.3333333)" />
    <text
       xml:space="preserve"
       style="font-size:64px;font-family:'Times New Roman';-inkscape-font-specification:'Times New Roman, Normal';text-align:start;writing-mode:lr-tb;direction:ltr;text-anchor:start;fill:#1f241c"
       x="47.375"
       y="534.4375"
       id="text93"><tspan
         sodipodi:role="line"
         id="tspan93"
         x="47.375"
         y="534.4375">(1,1,1,1,1,1,2)</tspan></text>
    <text
       xml:space="preserve"
       style="font-size:64px;font-family:'Times New Roman';-inkscape-font-specification:'Times New Roman, Normal';text-align:start;writing-mode:lr-tb;direction:ltr;text-anchor:start;fill:#1f241c"
       x="572.375"
       y="534.4375"
       id="text93-8"><tspan
         sodipodi:role="line"
         id="tspan93-6"
         x="572.375"
         y="534.4375">(1,1,1,1,1,1,2)</tspan></text>
  </g>
</svg>
