<?xml version='1.0' encoding='ASCII' standalone='yes'?>
<svg xmlns="http://www.w3.org/2000/svg" xmlns:xlink="http://www.w3.org/1999/xlink" version="1.1" width="2280.3999999999996pt" viewBox="0 0 2280.3999999999996 1115.1999999999998" height="1115.1999999999998pt">
  <g>
    <g>
      <rect width="100%" height="100%" fill="white"/>
    </g>
    <g transform="translate(0.0, 0.0) scale(1 1) "><metadata>
  <rdf:RDF xmlns:dc="http://purl.org/dc/elements/1.1/" xmlns:cc="http://creativecommons.org/ns#" xmlns:rdf="http://www.w3.org/1999/02/22-rdf-syntax-ns#">
   <cc:Work>
    <dc:type rdf:resource="http://purl.org/dc/dcmitype/StillImage"/>
    <dc:date>2025-04-22T20:41:06.642922</dc:date>
    <dc:format>image/svg+xml</dc:format>
    <dc:creator>
     <cc:Agent>
      <dc:title>Matplotlib v3.8.0, https://matplotlib.org/</dc:title>
     </cc:Agent>
    </dc:creator>
   </cc:Work>
  </rdf:RDF>
 </metadata>
 <defs>
  <style type="text/css">*{stroke-linejoin: round; stroke-linecap: butt}</style>
 </defs>
 <g id="figure_1">
  <g id="patch_1">
   <path d="M -0 338.4  L 338.4 338.4  L 338.4 0  L -0 0  z " style="fill: #ffffff"/>
  </g>
  <g id="axes_1">
   <g id="patch_2">
    <path d="M 7.2 331.2  L 331.2 331.2  L 331.2 7.2  L 7.2 7.2  z " style="fill: #ffffff"/>
   </g>
   <g id="matplotlib.axis_1"/>
   <g id="matplotlib.axis_2"/>
   <g id="line2d_1">
    <path d="M 13.430769 324.969231  L 221.123077 324.969231  " clip-path="url(#p7afb4ac93b)" style="fill: none; stroke: #000000; stroke-linecap: square"/>
   </g>
   <g id="line2d_2">
    <path d="M 13.430769 324.969231  L 13.430769 117.276923  " clip-path="url(#p7afb4ac93b)" style="fill: none; stroke: #000000; stroke-linecap: square"/>
   </g>
   <g id="line2d_3">
    <path d="M 13.430769 324.969231  L 117.276923 221.123077  " clip-path="url(#p7afb4ac93b)" style="fill: none; stroke-dasharray: 1,1.65; stroke-dashoffset: 0; stroke: #000000"/>
   </g>
   <g id="line2d_4">
    <path d="M 221.123077 324.969231  L 221.123077 117.276923  " clip-path="url(#p7afb4ac93b)" style="fill: none; stroke: #000000; stroke-linecap: square"/>
   </g>
   <g id="line2d_5">
    <path d="M 221.123077 324.969231  L 324.969231 221.123077  " clip-path="url(#p7afb4ac93b)" style="fill: none; stroke: #000000; stroke-linecap: square"/>
   </g>
   <g id="line2d_6">
    <path d="M 13.430769 117.276923  L 221.123077 117.276923  " clip-path="url(#p7afb4ac93b)" style="fill: none; stroke: #000000; stroke-linecap: square"/>
   </g>
   <g id="line2d_7">
    <path d="M 13.430769 117.276923  L 117.276923 13.430769  " clip-path="url(#p7afb4ac93b)" style="fill: none; stroke: #000000; stroke-linecap: square"/>
   </g>
   <g id="line2d_8">
    <path d="M 117.276923 221.123077  L 324.969231 221.123077  " clip-path="url(#p7afb4ac93b)" style="fill: none; stroke-dasharray: 1,1.65; stroke-dashoffset: 0; stroke: #000000"/>
   </g>
   <g id="line2d_9">
    <path d="M 117.276923 221.123077  L 117.276923 13.430769  " clip-path="url(#p7afb4ac93b)" style="fill: none; stroke-dasharray: 1,1.65; stroke-dashoffset: 0; stroke: #000000"/>
   </g>
   <g id="line2d_10">
    <path d="M 221.123077 117.276923  L 324.969231 13.430769  " clip-path="url(#p7afb4ac93b)" style="fill: none; stroke: #000000; stroke-linecap: square"/>
   </g>
   <g id="line2d_11">
    <path d="M 324.969231 221.123077  L 324.969231 13.430769  " clip-path="url(#p7afb4ac93b)" style="fill: none; stroke: #000000; stroke-linecap: square"/>
   </g>
   <g id="line2d_12">
    <path d="M 117.276923 13.430769  L 324.969231 13.430769  " clip-path="url(#p7afb4ac93b)" style="fill: none; stroke: #000000; stroke-linecap: square"/>
   </g>
   <g id="PathCollection_1">
    <defs>
     <path id="C0_0_58b8f323ab" d="M 0 7.071068  C 1.875269 7.071068 3.673985 6.326016 5 5  C 6.326016 3.673985 7.071068 1.875269 7.071068 -0  C 7.071068 -1.875269 6.326016 -3.673985 5 -5  C 3.673985 -6.326016 1.875269 -7.071068 0 -7.071068  C -1.875269 -7.071068 -3.673985 -6.326016 -5 -5  C -6.326016 -3.673985 -7.071068 -1.875269 -7.071068 0  C -7.071068 1.875269 -6.326016 3.673985 -5 5  C -3.673985 6.326016 -1.875269 7.071068 0 7.071068  z "/>
    </defs>
    <use xlink:href="#C0_0_58b8f323ab" x="13.430769" y="324.969231" style="fill: #00ff00; stroke: #000000"/>
    <use xlink:href="#C0_0_58b8f323ab" x="221.123077" y="324.969231" style="fill: #ff0000; stroke: #000000"/>
    <use xlink:href="#C0_0_58b8f323ab" x="13.430769" y="117.276923" style="fill: #ff0000; stroke: #000000"/>
    <use xlink:href="#C0_0_58b8f323ab" x="117.276923" y="221.123077" style="fill: #ff0000; stroke: #000000"/>
    <use xlink:href="#C0_0_58b8f323ab" x="324.969231" y="13.430769" style="fill: #ff0000; stroke: #000000"/>
    <use xlink:href="#C0_0_58b8f323ab" x="221.123077" y="117.276923" style="fill: #0000ff; stroke: #000000"/>
    <use xlink:href="#C0_0_58b8f323ab" x="324.969231" y="221.123077" style="fill: #ffff00; stroke: #000000"/>
    <use xlink:href="#C0_0_58b8f323ab" x="117.276923" y="13.430769" style="fill: #ff00ff; stroke: #000000"/>
   </g>
  </g>
 </g>
 <defs>
  <clipPath id="p7afb4ac93b">
   <rect x="7.2" y="7.2" width="324" height="324"/>
  </clipPath>
 </defs>
</g>
    <g transform="translate(0.0, 388.4) scale(1 1) "><metadata>
  <rdf:RDF xmlns:dc="http://purl.org/dc/elements/1.1/" xmlns:cc="http://creativecommons.org/ns#" xmlns:rdf="http://www.w3.org/1999/02/22-rdf-syntax-ns#">
   <cc:Work>
    <dc:type rdf:resource="http://purl.org/dc/dcmitype/StillImage"/>
    <dc:date>2025-04-22T20:41:06.654365</dc:date>
    <dc:format>image/svg+xml</dc:format>
    <dc:creator>
     <cc:Agent>
      <dc:title>Matplotlib v3.8.0, https://matplotlib.org/</dc:title>
     </cc:Agent>
    </dc:creator>
   </cc:Work>
  </rdf:RDF>
 </metadata>
 <defs>
  <style type="text/css">*{stroke-linejoin: round; stroke-linecap: butt}</style>
 </defs>
 <g id="figure_1">
  <g id="patch_1">
   <path d="M -0 338.4  L 338.4 338.4  L 338.4 0  L -0 0  z " style="fill: #ffffff"/>
  </g>
  <g id="axes_1">
   <g id="patch_2">
    <path d="M 7.2 331.2  L 331.2 331.2  L 331.2 7.2  L 7.2 7.2  z " style="fill: #ffffff"/>
   </g>
   <g id="matplotlib.axis_1"/>
   <g id="matplotlib.axis_2"/>
   <g id="line2d_1">
    <path d="M 13.430769 324.969231  L 221.123077 324.969231  " clip-path="url(#p3c5863cfef)" style="fill: none; stroke: #000000; stroke-linecap: square"/>
   </g>
   <g id="line2d_2">
    <path d="M 13.430769 324.969231  L 13.430769 117.276923  " clip-path="url(#p3c5863cfef)" style="fill: none; stroke: #000000; stroke-linecap: square"/>
   </g>
   <g id="line2d_3">
    <path d="M 13.430769 324.969231  L 117.276923 221.123077  " clip-path="url(#p3c5863cfef)" style="fill: none; stroke-dasharray: 1,1.65; stroke-dashoffset: 0; stroke: #000000"/>
   </g>
   <g id="line2d_4">
    <path d="M 221.123077 324.969231  L 221.123077 117.276923  " clip-path="url(#p3c5863cfef)" style="fill: none; stroke: #000000; stroke-linecap: square"/>
   </g>
   <g id="line2d_5">
    <path d="M 221.123077 324.969231  L 324.969231 221.123077  " clip-path="url(#p3c5863cfef)" style="fill: none; stroke: #000000; stroke-linecap: square"/>
   </g>
   <g id="line2d_6">
    <path d="M 13.430769 117.276923  L 221.123077 117.276923  " clip-path="url(#p3c5863cfef)" style="fill: none; stroke: #000000; stroke-linecap: square"/>
   </g>
   <g id="line2d_7">
    <path d="M 13.430769 117.276923  L 117.276923 13.430769  " clip-path="url(#p3c5863cfef)" style="fill: none; stroke: #000000; stroke-linecap: square"/>
   </g>
   <g id="line2d_8">
    <path d="M 117.276923 221.123077  L 324.969231 221.123077  " clip-path="url(#p3c5863cfef)" style="fill: none; stroke-dasharray: 1,1.65; stroke-dashoffset: 0; stroke: #000000"/>
   </g>
   <g id="line2d_9">
    <path d="M 117.276923 221.123077  L 117.276923 13.430769  " clip-path="url(#p3c5863cfef)" style="fill: none; stroke-dasharray: 1,1.65; stroke-dashoffset: 0; stroke: #000000"/>
   </g>
   <g id="line2d_10">
    <path d="M 221.123077 117.276923  L 324.969231 13.430769  " clip-path="url(#p3c5863cfef)" style="fill: none; stroke: #000000; stroke-linecap: square"/>
   </g>
   <g id="line2d_11">
    <path d="M 324.969231 221.123077  L 324.969231 13.430769  " clip-path="url(#p3c5863cfef)" style="fill: none; stroke: #000000; stroke-linecap: square"/>
   </g>
   <g id="line2d_12">
    <path d="M 117.276923 13.430769  L 324.969231 13.430769  " clip-path="url(#p3c5863cfef)" style="fill: none; stroke: #000000; stroke-linecap: square"/>
   </g>
   <g id="PathCollection_1">
    <defs>
     <path id="C0_0_f39b4485fc" d="M 0 7.071068  C 1.875269 7.071068 3.673985 6.326016 5 5  C 6.326016 3.673985 7.071068 1.875269 7.071068 -0  C 7.071068 -1.875269 6.326016 -3.673985 5 -5  C 3.673985 -6.326016 1.875269 -7.071068 0 -7.071068  C -1.875269 -7.071068 -3.673985 -6.326016 -5 -5  C -6.326016 -3.673985 -7.071068 -1.875269 -7.071068 0  C -7.071068 1.875269 -6.326016 3.673985 -5 5  C -3.673985 6.326016 -1.875269 7.071068 0 7.071068  z "/>
    </defs>
    <use xlink:href="#C0_0_f39b4485fc" x="13.430769" y="324.969231" style="fill: #0000ff; stroke: #000000"/>
    <use xlink:href="#C0_0_f39b4485fc" x="221.123077" y="324.969231" style="fill: #ff0000; stroke: #000000"/>
    <use xlink:href="#C0_0_f39b4485fc" x="13.430769" y="117.276923" style="fill: #ff0000; stroke: #000000"/>
    <use xlink:href="#C0_0_f39b4485fc" x="117.276923" y="221.123077" style="fill: #ff0000; stroke: #000000"/>
    <use xlink:href="#C0_0_f39b4485fc" x="221.123077" y="117.276923" style="fill: #00ff00; stroke: #000000"/>
    <use xlink:href="#C0_0_f39b4485fc" x="324.969231" y="221.123077" style="fill: #00ff00; stroke: #000000"/>
    <use xlink:href="#C0_0_f39b4485fc" x="117.276923" y="13.430769" style="fill: #ffff00; stroke: #000000"/>
    <use xlink:href="#C0_0_f39b4485fc" x="324.969231" y="13.430769" style="fill: #ff00ff; stroke: #000000"/>
   </g>
  </g>
 </g>
 <defs>
  <clipPath id="p3c5863cfef">
   <rect x="7.2" y="7.2" width="324" height="324"/>
  </clipPath>
 </defs>
</g>
    <g transform="translate(388.4, 388.4) scale(1 1) "><metadata>
  <rdf:RDF xmlns:dc="http://purl.org/dc/elements/1.1/" xmlns:cc="http://creativecommons.org/ns#" xmlns:rdf="http://www.w3.org/1999/02/22-rdf-syntax-ns#">
   <cc:Work>
    <dc:type rdf:resource="http://purl.org/dc/dcmitype/StillImage"/>
    <dc:date>2025-04-22T20:41:06.664182</dc:date>
    <dc:format>image/svg+xml</dc:format>
    <dc:creator>
     <cc:Agent>
      <dc:title>Matplotlib v3.8.0, https://matplotlib.org/</dc:title>
     </cc:Agent>
    </dc:creator>
   </cc:Work>
  </rdf:RDF>
 </metadata>
 <defs>
  <style type="text/css">*{stroke-linejoin: round; stroke-linecap: butt}</style>
 </defs>
 <g id="figure_1">
  <g id="patch_1">
   <path d="M -0 338.4  L 338.4 338.4  L 338.4 0  L -0 0  z " style="fill: #ffffff"/>
  </g>
  <g id="axes_1">
   <g id="patch_2">
    <path d="M 7.2 331.2  L 331.2 331.2  L 331.2 7.2  L 7.2 7.2  z " style="fill: #ffffff"/>
   </g>
   <g id="matplotlib.axis_1"/>
   <g id="matplotlib.axis_2"/>
   <g id="line2d_1">
    <path d="M 13.430769 324.969231  L 221.123077 324.969231  " clip-path="url(#pa980c22ca5)" style="fill: none; stroke: #000000; stroke-linecap: square"/>
   </g>
   <g id="line2d_2">
    <path d="M 13.430769 324.969231  L 13.430769 117.276923  " clip-path="url(#pa980c22ca5)" style="fill: none; stroke: #000000; stroke-linecap: square"/>
   </g>
   <g id="line2d_3">
    <path d="M 13.430769 324.969231  L 117.276923 221.123077  " clip-path="url(#pa980c22ca5)" style="fill: none; stroke-dasharray: 1,1.65; stroke-dashoffset: 0; stroke: #000000"/>
   </g>
   <g id="line2d_4">
    <path d="M 221.123077 324.969231  L 221.123077 117.276923  " clip-path="url(#pa980c22ca5)" style="fill: none; stroke: #000000; stroke-linecap: square"/>
   </g>
   <g id="line2d_5">
    <path d="M 221.123077 324.969231  L 324.969231 221.123077  " clip-path="url(#pa980c22ca5)" style="fill: none; stroke: #000000; stroke-linecap: square"/>
   </g>
   <g id="line2d_6">
    <path d="M 13.430769 117.276923  L 221.123077 117.276923  " clip-path="url(#pa980c22ca5)" style="fill: none; stroke: #000000; stroke-linecap: square"/>
   </g>
   <g id="line2d_7">
    <path d="M 13.430769 117.276923  L 117.276923 13.430769  " clip-path="url(#pa980c22ca5)" style="fill: none; stroke: #000000; stroke-linecap: square"/>
   </g>
   <g id="line2d_8">
    <path d="M 117.276923 221.123077  L 324.969231 221.123077  " clip-path="url(#pa980c22ca5)" style="fill: none; stroke-dasharray: 1,1.65; stroke-dashoffset: 0; stroke: #000000"/>
   </g>
   <g id="line2d_9">
    <path d="M 117.276923 221.123077  L 117.276923 13.430769  " clip-path="url(#pa980c22ca5)" style="fill: none; stroke-dasharray: 1,1.65; stroke-dashoffset: 0; stroke: #000000"/>
   </g>
   <g id="line2d_10">
    <path d="M 221.123077 117.276923  L 324.969231 13.430769  " clip-path="url(#pa980c22ca5)" style="fill: none; stroke: #000000; stroke-linecap: square"/>
   </g>
   <g id="line2d_11">
    <path d="M 324.969231 221.123077  L 324.969231 13.430769  " clip-path="url(#pa980c22ca5)" style="fill: none; stroke: #000000; stroke-linecap: square"/>
   </g>
   <g id="line2d_12">
    <path d="M 117.276923 13.430769  L 324.969231 13.430769  " clip-path="url(#pa980c22ca5)" style="fill: none; stroke: #000000; stroke-linecap: square"/>
   </g>
   <g id="PathCollection_1">
    <defs>
     <path id="C0_0_ecd8fa4896" d="M 0 7.071068  C 1.875269 7.071068 3.673985 6.326016 5 5  C 6.326016 3.673985 7.071068 1.875269 7.071068 -0  C 7.071068 -1.875269 6.326016 -3.673985 5 -5  C 3.673985 -6.326016 1.875269 -7.071068 0 -7.071068  C -1.875269 -7.071068 -3.673985 -6.326016 -5 -5  C -6.326016 -3.673985 -7.071068 -1.875269 -7.071068 0  C -7.071068 1.875269 -6.326016 3.673985 -5 5  C -3.673985 6.326016 -1.875269 7.071068 0 7.071068  z "/>
    </defs>
    <use xlink:href="#C0_0_ecd8fa4896" x="13.430769" y="324.969231" style="fill: #00ff00; stroke: #000000"/>
    <use xlink:href="#C0_0_ecd8fa4896" x="221.123077" y="117.276923" style="fill: #00ff00; stroke: #000000"/>
    <use xlink:href="#C0_0_ecd8fa4896" x="221.123077" y="324.969231" style="fill: #ff0000; stroke: #000000"/>
    <use xlink:href="#C0_0_ecd8fa4896" x="13.430769" y="117.276923" style="fill: #ff0000; stroke: #000000"/>
    <use xlink:href="#C0_0_ecd8fa4896" x="117.276923" y="221.123077" style="fill: #ff0000; stroke: #000000"/>
    <use xlink:href="#C0_0_ecd8fa4896" x="324.969231" y="221.123077" style="fill: #0000ff; stroke: #000000"/>
    <use xlink:href="#C0_0_ecd8fa4896" x="117.276923" y="13.430769" style="fill: #ffff00; stroke: #000000"/>
    <use xlink:href="#C0_0_ecd8fa4896" x="324.969231" y="13.430769" style="fill: #ff00ff; stroke: #000000"/>
   </g>
  </g>
 </g>
 <defs>
  <clipPath id="pa980c22ca5">
   <rect x="7.2" y="7.2" width="324" height="324"/>
  </clipPath>
 </defs>
</g>
    <g transform="translate(776.8, 388.4) scale(1 1) "><metadata>
  <rdf:RDF xmlns:dc="http://purl.org/dc/elements/1.1/" xmlns:cc="http://creativecommons.org/ns#" xmlns:rdf="http://www.w3.org/1999/02/22-rdf-syntax-ns#">
   <cc:Work>
    <dc:type rdf:resource="http://purl.org/dc/dcmitype/StillImage"/>
    <dc:date>2025-04-22T20:41:06.674448</dc:date>
    <dc:format>image/svg+xml</dc:format>
    <dc:creator>
     <cc:Agent>
      <dc:title>Matplotlib v3.8.0, https://matplotlib.org/</dc:title>
     </cc:Agent>
    </dc:creator>
   </cc:Work>
  </rdf:RDF>
 </metadata>
 <defs>
  <style type="text/css">*{stroke-linejoin: round; stroke-linecap: butt}</style>
 </defs>
 <g id="figure_1">
  <g id="patch_1">
   <path d="M -0 338.4  L 338.4 338.4  L 338.4 0  L -0 0  z " style="fill: #ffffff"/>
  </g>
  <g id="axes_1">
   <g id="patch_2">
    <path d="M 7.2 331.2  L 331.2 331.2  L 331.2 7.2  L 7.2 7.2  z " style="fill: #ffffff"/>
   </g>
   <g id="matplotlib.axis_1"/>
   <g id="matplotlib.axis_2"/>
   <g id="line2d_1">
    <path d="M 13.430769 324.969231  L 221.123077 324.969231  " clip-path="url(#p2e6deee4b8)" style="fill: none; stroke: #000000; stroke-linecap: square"/>
   </g>
   <g id="line2d_2">
    <path d="M 13.430769 324.969231  L 13.430769 117.276923  " clip-path="url(#p2e6deee4b8)" style="fill: none; stroke: #000000; stroke-linecap: square"/>
   </g>
   <g id="line2d_3">
    <path d="M 13.430769 324.969231  L 117.276923 221.123077  " clip-path="url(#p2e6deee4b8)" style="fill: none; stroke-dasharray: 1,1.65; stroke-dashoffset: 0; stroke: #000000"/>
   </g>
   <g id="line2d_4">
    <path d="M 221.123077 324.969231  L 221.123077 117.276923  " clip-path="url(#p2e6deee4b8)" style="fill: none; stroke: #000000; stroke-linecap: square"/>
   </g>
   <g id="line2d_5">
    <path d="M 221.123077 324.969231  L 324.969231 221.123077  " clip-path="url(#p2e6deee4b8)" style="fill: none; stroke: #000000; stroke-linecap: square"/>
   </g>
   <g id="line2d_6">
    <path d="M 13.430769 117.276923  L 221.123077 117.276923  " clip-path="url(#p2e6deee4b8)" style="fill: none; stroke: #000000; stroke-linecap: square"/>
   </g>
   <g id="line2d_7">
    <path d="M 13.430769 117.276923  L 117.276923 13.430769  " clip-path="url(#p2e6deee4b8)" style="fill: none; stroke: #000000; stroke-linecap: square"/>
   </g>
   <g id="line2d_8">
    <path d="M 117.276923 221.123077  L 324.969231 221.123077  " clip-path="url(#p2e6deee4b8)" style="fill: none; stroke-dasharray: 1,1.65; stroke-dashoffset: 0; stroke: #000000"/>
   </g>
   <g id="line2d_9">
    <path d="M 117.276923 221.123077  L 117.276923 13.430769  " clip-path="url(#p2e6deee4b8)" style="fill: none; stroke-dasharray: 1,1.65; stroke-dashoffset: 0; stroke: #000000"/>
   </g>
   <g id="line2d_10">
    <path d="M 221.123077 117.276923  L 324.969231 13.430769  " clip-path="url(#p2e6deee4b8)" style="fill: none; stroke: #000000; stroke-linecap: square"/>
   </g>
   <g id="line2d_11">
    <path d="M 324.969231 221.123077  L 324.969231 13.430769  " clip-path="url(#p2e6deee4b8)" style="fill: none; stroke: #000000; stroke-linecap: square"/>
   </g>
   <g id="line2d_12">
    <path d="M 117.276923 13.430769  L 324.969231 13.430769  " clip-path="url(#p2e6deee4b8)" style="fill: none; stroke: #000000; stroke-linecap: square"/>
   </g>
   <g id="PathCollection_1">
    <defs>
     <path id="C0_0_753660c029" d="M 0 7.071068  C 1.875269 7.071068 3.673985 6.326016 5 5  C 6.326016 3.673985 7.071068 1.875269 7.071068 -0  C 7.071068 -1.875269 6.326016 -3.673985 5 -5  C 3.673985 -6.326016 1.875269 -7.071068 0 -7.071068  C -1.875269 -7.071068 -3.673985 -6.326016 -5 -5  C -6.326016 -3.673985 -7.071068 -1.875269 -7.071068 0  C -7.071068 1.875269 -6.326016 3.673985 -5 5  C -3.673985 6.326016 -1.875269 7.071068 0 7.071068  z "/>
    </defs>
    <use xlink:href="#C0_0_753660c029" x="13.430769" y="324.969231" style="fill: #00ff00; stroke: #000000"/>
    <use xlink:href="#C0_0_753660c029" x="324.969231" y="13.430769" style="fill: #00ff00; stroke: #000000"/>
    <use xlink:href="#C0_0_753660c029" x="221.123077" y="324.969231" style="fill: #ff0000; stroke: #000000"/>
    <use xlink:href="#C0_0_753660c029" x="13.430769" y="117.276923" style="fill: #ff0000; stroke: #000000"/>
    <use xlink:href="#C0_0_753660c029" x="117.276923" y="221.123077" style="fill: #ff0000; stroke: #000000"/>
    <use xlink:href="#C0_0_753660c029" x="221.123077" y="117.276923" style="fill: #0000ff; stroke: #000000"/>
    <use xlink:href="#C0_0_753660c029" x="324.969231" y="221.123077" style="fill: #ffff00; stroke: #000000"/>
    <use xlink:href="#C0_0_753660c029" x="117.276923" y="13.430769" style="fill: #ff00ff; stroke: #000000"/>
   </g>
  </g>
 </g>
 <defs>
  <clipPath id="p2e6deee4b8">
   <rect x="7.2" y="7.2" width="324" height="324"/>
  </clipPath>
 </defs>
</g>
    <g transform="translate(0.0, 776.8) scale(1 1) "><metadata>
  <rdf:RDF xmlns:dc="http://purl.org/dc/elements/1.1/" xmlns:cc="http://creativecommons.org/ns#" xmlns:rdf="http://www.w3.org/1999/02/22-rdf-syntax-ns#">
   <cc:Work>
    <dc:type rdf:resource="http://purl.org/dc/dcmitype/StillImage"/>
    <dc:date>2025-04-22T20:41:06.683899</dc:date>
    <dc:format>image/svg+xml</dc:format>
    <dc:creator>
     <cc:Agent>
      <dc:title>Matplotlib v3.8.0, https://matplotlib.org/</dc:title>
     </cc:Agent>
    </dc:creator>
   </cc:Work>
  </rdf:RDF>
 </metadata>
 <defs>
  <style type="text/css">*{stroke-linejoin: round; stroke-linecap: butt}</style>
 </defs>
 <g id="figure_1">
  <g id="patch_1">
   <path d="M -0 338.4  L 338.4 338.4  L 338.4 0  L -0 0  z " style="fill: #ffffff"/>
  </g>
  <g id="axes_1">
   <g id="patch_2">
    <path d="M 7.2 331.2  L 331.2 331.2  L 331.2 7.2  L 7.2 7.2  z " style="fill: #ffffff"/>
   </g>
   <g id="matplotlib.axis_1"/>
   <g id="matplotlib.axis_2"/>
   <g id="line2d_1">
    <path d="M 13.430769 324.969231  L 221.123077 324.969231  " clip-path="url(#p58c2fc5936)" style="fill: none; stroke: #000000; stroke-linecap: square"/>
   </g>
   <g id="line2d_2">
    <path d="M 13.430769 324.969231  L 13.430769 117.276923  " clip-path="url(#p58c2fc5936)" style="fill: none; stroke: #000000; stroke-linecap: square"/>
   </g>
   <g id="line2d_3">
    <path d="M 13.430769 324.969231  L 117.276923 221.123077  " clip-path="url(#p58c2fc5936)" style="fill: none; stroke-dasharray: 1,1.65; stroke-dashoffset: 0; stroke: #000000"/>
   </g>
   <g id="line2d_4">
    <path d="M 221.123077 324.969231  L 221.123077 117.276923  " clip-path="url(#p58c2fc5936)" style="fill: none; stroke: #000000; stroke-linecap: square"/>
   </g>
   <g id="line2d_5">
    <path d="M 221.123077 324.969231  L 324.969231 221.123077  " clip-path="url(#p58c2fc5936)" style="fill: none; stroke: #000000; stroke-linecap: square"/>
   </g>
   <g id="line2d_6">
    <path d="M 13.430769 117.276923  L 221.123077 117.276923  " clip-path="url(#p58c2fc5936)" style="fill: none; stroke: #000000; stroke-linecap: square"/>
   </g>
   <g id="line2d_7">
    <path d="M 13.430769 117.276923  L 117.276923 13.430769  " clip-path="url(#p58c2fc5936)" style="fill: none; stroke: #000000; stroke-linecap: square"/>
   </g>
   <g id="line2d_8">
    <path d="M 117.276923 221.123077  L 324.969231 221.123077  " clip-path="url(#p58c2fc5936)" style="fill: none; stroke-dasharray: 1,1.65; stroke-dashoffset: 0; stroke: #000000"/>
   </g>
   <g id="line2d_9">
    <path d="M 117.276923 221.123077  L 117.276923 13.430769  " clip-path="url(#p58c2fc5936)" style="fill: none; stroke-dasharray: 1,1.65; stroke-dashoffset: 0; stroke: #000000"/>
   </g>
   <g id="line2d_10">
    <path d="M 221.123077 117.276923  L 324.969231 13.430769  " clip-path="url(#p58c2fc5936)" style="fill: none; stroke: #000000; stroke-linecap: square"/>
   </g>
   <g id="line2d_11">
    <path d="M 324.969231 221.123077  L 324.969231 13.430769  " clip-path="url(#p58c2fc5936)" style="fill: none; stroke: #000000; stroke-linecap: square"/>
   </g>
   <g id="line2d_12">
    <path d="M 117.276923 13.430769  L 324.969231 13.430769  " clip-path="url(#p58c2fc5936)" style="fill: none; stroke: #000000; stroke-linecap: square"/>
   </g>
   <g id="PathCollection_1">
    <defs>
     <path id="C0_0_6e37f93d49" d="M 0 7.071068  C 1.875269 7.071068 3.673985 6.326016 5 5  C 6.326016 3.673985 7.071068 1.875269 7.071068 -0  C 7.071068 -1.875269 6.326016 -3.673985 5 -5  C 3.673985 -6.326016 1.875269 -7.071068 0 -7.071068  C -1.875269 -7.071068 -3.673985 -6.326016 -5 -5  C -6.326016 -3.673985 -7.071068 -1.875269 -7.071068 0  C -7.071068 1.875269 -6.326016 3.673985 -5 5  C -3.673985 6.326016 -1.875269 7.071068 0 7.071068  z "/>
    </defs>
    <use xlink:href="#C0_0_6e37f93d49" x="13.430769" y="324.969231" style="fill: #ffff00; stroke: #000000"/>
    <use xlink:href="#C0_0_6e37f93d49" x="221.123077" y="324.969231" style="fill: #ff0000; stroke: #000000"/>
    <use xlink:href="#C0_0_6e37f93d49" x="13.430769" y="117.276923" style="fill: #ff0000; stroke: #000000"/>
    <use xlink:href="#C0_0_6e37f93d49" x="117.276923" y="221.123077" style="fill: #00ff00; stroke: #000000"/>
    <use xlink:href="#C0_0_6e37f93d49" x="221.123077" y="117.276923" style="fill: #00ff00; stroke: #000000"/>
    <use xlink:href="#C0_0_6e37f93d49" x="324.969231" y="221.123077" style="fill: #0000ff; stroke: #000000"/>
    <use xlink:href="#C0_0_6e37f93d49" x="117.276923" y="13.430769" style="fill: #0000ff; stroke: #000000"/>
    <use xlink:href="#C0_0_6e37f93d49" x="324.969231" y="13.430769" style="fill: #ff00ff; stroke: #000000"/>
   </g>
  </g>
 </g>
 <defs>
  <clipPath id="p58c2fc5936">
   <rect x="7.2" y="7.2" width="324" height="324"/>
  </clipPath>
 </defs>
</g>
    <g transform="translate(388.4, 776.8) scale(1 1) "><metadata>
  <rdf:RDF xmlns:dc="http://purl.org/dc/elements/1.1/" xmlns:cc="http://creativecommons.org/ns#" xmlns:rdf="http://www.w3.org/1999/02/22-rdf-syntax-ns#">
   <cc:Work>
    <dc:type rdf:resource="http://purl.org/dc/dcmitype/StillImage"/>
    <dc:date>2025-04-22T20:41:06.693457</dc:date>
    <dc:format>image/svg+xml</dc:format>
    <dc:creator>
     <cc:Agent>
      <dc:title>Matplotlib v3.8.0, https://matplotlib.org/</dc:title>
     </cc:Agent>
    </dc:creator>
   </cc:Work>
  </rdf:RDF>
 </metadata>
 <defs>
  <style type="text/css">*{stroke-linejoin: round; stroke-linecap: butt}</style>
 </defs>
 <g id="figure_1">
  <g id="patch_1">
   <path d="M -0 338.4  L 338.4 338.4  L 338.4 0  L -0 0  z " style="fill: #ffffff"/>
  </g>
  <g id="axes_1">
   <g id="patch_2">
    <path d="M 7.2 331.2  L 331.2 331.2  L 331.2 7.2  L 7.2 7.2  z " style="fill: #ffffff"/>
   </g>
   <g id="matplotlib.axis_1"/>
   <g id="matplotlib.axis_2"/>
   <g id="line2d_1">
    <path d="M 13.430769 324.969231  L 221.123077 324.969231  " clip-path="url(#p0a7ebcd341)" style="fill: none; stroke: #000000; stroke-linecap: square"/>
   </g>
   <g id="line2d_2">
    <path d="M 13.430769 324.969231  L 13.430769 117.276923  " clip-path="url(#p0a7ebcd341)" style="fill: none; stroke: #000000; stroke-linecap: square"/>
   </g>
   <g id="line2d_3">
    <path d="M 13.430769 324.969231  L 117.276923 221.123077  " clip-path="url(#p0a7ebcd341)" style="fill: none; stroke-dasharray: 1,1.65; stroke-dashoffset: 0; stroke: #000000"/>
   </g>
   <g id="line2d_4">
    <path d="M 221.123077 324.969231  L 221.123077 117.276923  " clip-path="url(#p0a7ebcd341)" style="fill: none; stroke: #000000; stroke-linecap: square"/>
   </g>
   <g id="line2d_5">
    <path d="M 221.123077 324.969231  L 324.969231 221.123077  " clip-path="url(#p0a7ebcd341)" style="fill: none; stroke: #000000; stroke-linecap: square"/>
   </g>
   <g id="line2d_6">
    <path d="M 13.430769 117.276923  L 221.123077 117.276923  " clip-path="url(#p0a7ebcd341)" style="fill: none; stroke: #000000; stroke-linecap: square"/>
   </g>
   <g id="line2d_7">
    <path d="M 13.430769 117.276923  L 117.276923 13.430769  " clip-path="url(#p0a7ebcd341)" style="fill: none; stroke: #000000; stroke-linecap: square"/>
   </g>
   <g id="line2d_8">
    <path d="M 117.276923 221.123077  L 324.969231 221.123077  " clip-path="url(#p0a7ebcd341)" style="fill: none; stroke-dasharray: 1,1.65; stroke-dashoffset: 0; stroke: #000000"/>
   </g>
   <g id="line2d_9">
    <path d="M 117.276923 221.123077  L 117.276923 13.430769  " clip-path="url(#p0a7ebcd341)" style="fill: none; stroke-dasharray: 1,1.65; stroke-dashoffset: 0; stroke: #000000"/>
   </g>
   <g id="line2d_10">
    <path d="M 221.123077 117.276923  L 324.969231 13.430769  " clip-path="url(#p0a7ebcd341)" style="fill: none; stroke: #000000; stroke-linecap: square"/>
   </g>
   <g id="line2d_11">
    <path d="M 324.969231 221.123077  L 324.969231 13.430769  " clip-path="url(#p0a7ebcd341)" style="fill: none; stroke: #000000; stroke-linecap: square"/>
   </g>
   <g id="line2d_12">
    <path d="M 117.276923 13.430769  L 324.969231 13.430769  " clip-path="url(#p0a7ebcd341)" style="fill: none; stroke: #000000; stroke-linecap: square"/>
   </g>
   <g id="PathCollection_1">
    <defs>
     <path id="C0_0_71a169b78d" d="M 0 7.071068  C 1.875269 7.071068 3.673985 6.326016 5 5  C 6.326016 3.673985 7.071068 1.875269 7.071068 -0  C 7.071068 -1.875269 6.326016 -3.673985 5 -5  C 3.673985 -6.326016 1.875269 -7.071068 0 -7.071068  C -1.875269 -7.071068 -3.673985 -6.326016 -5 -5  C -6.326016 -3.673985 -7.071068 -1.875269 -7.071068 0  C -7.071068 1.875269 -6.326016 3.673985 -5 5  C -3.673985 6.326016 -1.875269 7.071068 0 7.071068  z "/>
    </defs>
    <use xlink:href="#C0_0_71a169b78d" x="13.430769" y="324.969231" style="fill: #ffff00; stroke: #000000"/>
    <use xlink:href="#C0_0_71a169b78d" x="221.123077" y="324.969231" style="fill: #ff0000; stroke: #000000"/>
    <use xlink:href="#C0_0_71a169b78d" x="117.276923" y="13.430769" style="fill: #ff0000; stroke: #000000"/>
    <use xlink:href="#C0_0_71a169b78d" x="13.430769" y="117.276923" style="fill: #00ff00; stroke: #000000"/>
    <use xlink:href="#C0_0_71a169b78d" x="324.969231" y="221.123077" style="fill: #00ff00; stroke: #000000"/>
    <use xlink:href="#C0_0_71a169b78d" x="117.276923" y="221.123077" style="fill: #0000ff; stroke: #000000"/>
    <use xlink:href="#C0_0_71a169b78d" x="221.123077" y="117.276923" style="fill: #0000ff; stroke: #000000"/>
    <use xlink:href="#C0_0_71a169b78d" x="324.969231" y="13.430769" style="fill: #ff00ff; stroke: #000000"/>
   </g>
  </g>
 </g>
 <defs>
  <clipPath id="p0a7ebcd341">
   <rect x="7.2" y="7.2" width="324" height="324"/>
  </clipPath>
 </defs>
</g>
    <g transform="translate(776.8, 776.8) scale(1 1) "><metadata>
  <rdf:RDF xmlns:dc="http://purl.org/dc/elements/1.1/" xmlns:cc="http://creativecommons.org/ns#" xmlns:rdf="http://www.w3.org/1999/02/22-rdf-syntax-ns#">
   <cc:Work>
    <dc:type rdf:resource="http://purl.org/dc/dcmitype/StillImage"/>
    <dc:date>2025-04-22T20:41:06.703698</dc:date>
    <dc:format>image/svg+xml</dc:format>
    <dc:creator>
     <cc:Agent>
      <dc:title>Matplotlib v3.8.0, https://matplotlib.org/</dc:title>
     </cc:Agent>
    </dc:creator>
   </cc:Work>
  </rdf:RDF>
 </metadata>
 <defs>
  <style type="text/css">*{stroke-linejoin: round; stroke-linecap: butt}</style>
 </defs>
 <g id="figure_1">
  <g id="patch_1">
   <path d="M -0 338.4  L 338.4 338.4  L 338.4 0  L -0 0  z " style="fill: #ffffff"/>
  </g>
  <g id="axes_1">
   <g id="patch_2">
    <path d="M 7.2 331.2  L 331.2 331.2  L 331.2 7.2  L 7.2 7.2  z " style="fill: #ffffff"/>
   </g>
   <g id="matplotlib.axis_1"/>
   <g id="matplotlib.axis_2"/>
   <g id="line2d_1">
    <path d="M 13.430769 324.969231  L 221.123077 324.969231  " clip-path="url(#p169b0633d7)" style="fill: none; stroke: #000000; stroke-linecap: square"/>
   </g>
   <g id="line2d_2">
    <path d="M 13.430769 324.969231  L 13.430769 117.276923  " clip-path="url(#p169b0633d7)" style="fill: none; stroke: #000000; stroke-linecap: square"/>
   </g>
   <g id="line2d_3">
    <path d="M 13.430769 324.969231  L 117.276923 221.123077  " clip-path="url(#p169b0633d7)" style="fill: none; stroke-dasharray: 1,1.65; stroke-dashoffset: 0; stroke: #000000"/>
   </g>
   <g id="line2d_4">
    <path d="M 221.123077 324.969231  L 221.123077 117.276923  " clip-path="url(#p169b0633d7)" style="fill: none; stroke: #000000; stroke-linecap: square"/>
   </g>
   <g id="line2d_5">
    <path d="M 221.123077 324.969231  L 324.969231 221.123077  " clip-path="url(#p169b0633d7)" style="fill: none; stroke: #000000; stroke-linecap: square"/>
   </g>
   <g id="line2d_6">
    <path d="M 13.430769 117.276923  L 221.123077 117.276923  " clip-path="url(#p169b0633d7)" style="fill: none; stroke: #000000; stroke-linecap: square"/>
   </g>
   <g id="line2d_7">
    <path d="M 13.430769 117.276923  L 117.276923 13.430769  " clip-path="url(#p169b0633d7)" style="fill: none; stroke: #000000; stroke-linecap: square"/>
   </g>
   <g id="line2d_8">
    <path d="M 117.276923 221.123077  L 324.969231 221.123077  " clip-path="url(#p169b0633d7)" style="fill: none; stroke-dasharray: 1,1.65; stroke-dashoffset: 0; stroke: #000000"/>
   </g>
   <g id="line2d_9">
    <path d="M 117.276923 221.123077  L 117.276923 13.430769  " clip-path="url(#p169b0633d7)" style="fill: none; stroke-dasharray: 1,1.65; stroke-dashoffset: 0; stroke: #000000"/>
   </g>
   <g id="line2d_10">
    <path d="M 221.123077 117.276923  L 324.969231 13.430769  " clip-path="url(#p169b0633d7)" style="fill: none; stroke: #000000; stroke-linecap: square"/>
   </g>
   <g id="line2d_11">
    <path d="M 324.969231 221.123077  L 324.969231 13.430769  " clip-path="url(#p169b0633d7)" style="fill: none; stroke: #000000; stroke-linecap: square"/>
   </g>
   <g id="line2d_12">
    <path d="M 117.276923 13.430769  L 324.969231 13.430769  " clip-path="url(#p169b0633d7)" style="fill: none; stroke: #000000; stroke-linecap: square"/>
   </g>
   <g id="PathCollection_1">
    <defs>
     <path id="C0_0_eeba015900" d="M 0 7.071068  C 1.875269 7.071068 3.673985 6.326016 5 5  C 6.326016 3.673985 7.071068 1.875269 7.071068 -0  C 7.071068 -1.875269 6.326016 -3.673985 5 -5  C 3.673985 -6.326016 1.875269 -7.071068 0 -7.071068  C -1.875269 -7.071068 -3.673985 -6.326016 -5 -5  C -6.326016 -3.673985 -7.071068 -1.875269 -7.071068 0  C -7.071068 1.875269 -6.326016 3.673985 -5 5  C -3.673985 6.326016 -1.875269 7.071068 0 7.071068  z "/>
    </defs>
    <use xlink:href="#C0_0_eeba015900" x="13.430769" y="324.969231" style="fill: #ff0000; stroke: #000000"/>
    <use xlink:href="#C0_0_eeba015900" x="221.123077" y="117.276923" style="fill: #ff0000; stroke: #000000"/>
    <use xlink:href="#C0_0_eeba015900" x="221.123077" y="324.969231" style="fill: #00ff00; stroke: #000000"/>
    <use xlink:href="#C0_0_eeba015900" x="13.430769" y="117.276923" style="fill: #00ff00; stroke: #000000"/>
    <use xlink:href="#C0_0_eeba015900" x="117.276923" y="221.123077" style="fill: #ffff00; stroke: #000000"/>
    <use xlink:href="#C0_0_eeba015900" x="324.969231" y="221.123077" style="fill: #0000ff; stroke: #000000"/>
    <use xlink:href="#C0_0_eeba015900" x="117.276923" y="13.430769" style="fill: #0000ff; stroke: #000000"/>
    <use xlink:href="#C0_0_eeba015900" x="324.969231" y="13.430769" style="fill: #ff00ff; stroke: #000000"/>
   </g>
  </g>
 </g>
 <defs>
  <clipPath id="p169b0633d7">
   <rect x="7.2" y="7.2" width="324" height="324"/>
  </clipPath>
 </defs>
</g>
    <g transform="translate(1165.1999999999998, 776.8) scale(1 1) "><metadata>
  <rdf:RDF xmlns:dc="http://purl.org/dc/elements/1.1/" xmlns:cc="http://creativecommons.org/ns#" xmlns:rdf="http://www.w3.org/1999/02/22-rdf-syntax-ns#">
   <cc:Work>
    <dc:type rdf:resource="http://purl.org/dc/dcmitype/StillImage"/>
    <dc:date>2025-04-22T20:41:06.713134</dc:date>
    <dc:format>image/svg+xml</dc:format>
    <dc:creator>
     <cc:Agent>
      <dc:title>Matplotlib v3.8.0, https://matplotlib.org/</dc:title>
     </cc:Agent>
    </dc:creator>
   </cc:Work>
  </rdf:RDF>
 </metadata>
 <defs>
  <style type="text/css">*{stroke-linejoin: round; stroke-linecap: butt}</style>
 </defs>
 <g id="figure_1">
  <g id="patch_1">
   <path d="M -0 338.4  L 338.4 338.4  L 338.4 0  L -0 0  z " style="fill: #ffffff"/>
  </g>
  <g id="axes_1">
   <g id="patch_2">
    <path d="M 7.2 331.2  L 331.2 331.2  L 331.2 7.2  L 7.2 7.2  z " style="fill: #ffffff"/>
   </g>
   <g id="matplotlib.axis_1"/>
   <g id="matplotlib.axis_2"/>
   <g id="line2d_1">
    <path d="M 13.430769 324.969231  L 221.123077 324.969231  " clip-path="url(#p714830e176)" style="fill: none; stroke: #000000; stroke-linecap: square"/>
   </g>
   <g id="line2d_2">
    <path d="M 13.430769 324.969231  L 13.430769 117.276923  " clip-path="url(#p714830e176)" style="fill: none; stroke: #000000; stroke-linecap: square"/>
   </g>
   <g id="line2d_3">
    <path d="M 13.430769 324.969231  L 117.276923 221.123077  " clip-path="url(#p714830e176)" style="fill: none; stroke-dasharray: 1,1.65; stroke-dashoffset: 0; stroke: #000000"/>
   </g>
   <g id="line2d_4">
    <path d="M 221.123077 324.969231  L 221.123077 117.276923  " clip-path="url(#p714830e176)" style="fill: none; stroke: #000000; stroke-linecap: square"/>
   </g>
   <g id="line2d_5">
    <path d="M 221.123077 324.969231  L 324.969231 221.123077  " clip-path="url(#p714830e176)" style="fill: none; stroke: #000000; stroke-linecap: square"/>
   </g>
   <g id="line2d_6">
    <path d="M 13.430769 117.276923  L 221.123077 117.276923  " clip-path="url(#p714830e176)" style="fill: none; stroke: #000000; stroke-linecap: square"/>
   </g>
   <g id="line2d_7">
    <path d="M 13.430769 117.276923  L 117.276923 13.430769  " clip-path="url(#p714830e176)" style="fill: none; stroke: #000000; stroke-linecap: square"/>
   </g>
   <g id="line2d_8">
    <path d="M 117.276923 221.123077  L 324.969231 221.123077  " clip-path="url(#p714830e176)" style="fill: none; stroke-dasharray: 1,1.65; stroke-dashoffset: 0; stroke: #000000"/>
   </g>
   <g id="line2d_9">
    <path d="M 117.276923 221.123077  L 117.276923 13.430769  " clip-path="url(#p714830e176)" style="fill: none; stroke-dasharray: 1,1.65; stroke-dashoffset: 0; stroke: #000000"/>
   </g>
   <g id="line2d_10">
    <path d="M 221.123077 117.276923  L 324.969231 13.430769  " clip-path="url(#p714830e176)" style="fill: none; stroke: #000000; stroke-linecap: square"/>
   </g>
   <g id="line2d_11">
    <path d="M 324.969231 221.123077  L 324.969231 13.430769  " clip-path="url(#p714830e176)" style="fill: none; stroke: #000000; stroke-linecap: square"/>
   </g>
   <g id="line2d_12">
    <path d="M 117.276923 13.430769  L 324.969231 13.430769  " clip-path="url(#p714830e176)" style="fill: none; stroke: #000000; stroke-linecap: square"/>
   </g>
   <g id="PathCollection_1">
    <defs>
     <path id="C0_0_ef88463bd8" d="M 0 7.071068  C 1.875269 7.071068 3.673985 6.326016 5 5  C 6.326016 3.673985 7.071068 1.875269 7.071068 -0  C 7.071068 -1.875269 6.326016 -3.673985 5 -5  C 3.673985 -6.326016 1.875269 -7.071068 0 -7.071068  C -1.875269 -7.071068 -3.673985 -6.326016 -5 -5  C -6.326016 -3.673985 -7.071068 -1.875269 -7.071068 0  C -7.071068 1.875269 -6.326016 3.673985 -5 5  C -3.673985 6.326016 -1.875269 7.071068 0 7.071068  z "/>
    </defs>
    <use xlink:href="#C0_0_ef88463bd8" x="13.430769" y="324.969231" style="fill: #ff0000; stroke: #000000"/>
    <use xlink:href="#C0_0_ef88463bd8" x="324.969231" y="221.123077" style="fill: #ff0000; stroke: #000000"/>
    <use xlink:href="#C0_0_ef88463bd8" x="221.123077" y="324.969231" style="fill: #00ff00; stroke: #000000"/>
    <use xlink:href="#C0_0_ef88463bd8" x="13.430769" y="117.276923" style="fill: #00ff00; stroke: #000000"/>
    <use xlink:href="#C0_0_ef88463bd8" x="117.276923" y="221.123077" style="fill: #ffff00; stroke: #000000"/>
    <use xlink:href="#C0_0_ef88463bd8" x="221.123077" y="117.276923" style="fill: #0000ff; stroke: #000000"/>
    <use xlink:href="#C0_0_ef88463bd8" x="117.276923" y="13.430769" style="fill: #0000ff; stroke: #000000"/>
    <use xlink:href="#C0_0_ef88463bd8" x="324.969231" y="13.430769" style="fill: #ff00ff; stroke: #000000"/>
   </g>
  </g>
 </g>
 <defs>
  <clipPath id="p714830e176">
   <rect x="7.2" y="7.2" width="324" height="324"/>
  </clipPath>
 </defs>
</g>
    <g transform="translate(1553.6, 776.8) scale(1 1) "><metadata>
  <rdf:RDF xmlns:dc="http://purl.org/dc/elements/1.1/" xmlns:cc="http://creativecommons.org/ns#" xmlns:rdf="http://www.w3.org/1999/02/22-rdf-syntax-ns#">
   <cc:Work>
    <dc:type rdf:resource="http://purl.org/dc/dcmitype/StillImage"/>
    <dc:date>2025-04-22T20:41:06.722630</dc:date>
    <dc:format>image/svg+xml</dc:format>
    <dc:creator>
     <cc:Agent>
      <dc:title>Matplotlib v3.8.0, https://matplotlib.org/</dc:title>
     </cc:Agent>
    </dc:creator>
   </cc:Work>
  </rdf:RDF>
 </metadata>
 <defs>
  <style type="text/css">*{stroke-linejoin: round; stroke-linecap: butt}</style>
 </defs>
 <g id="figure_1">
  <g id="patch_1">
   <path d="M -0 338.4  L 338.4 338.4  L 338.4 0  L -0 0  z " style="fill: #ffffff"/>
  </g>
  <g id="axes_1">
   <g id="patch_2">
    <path d="M 7.2 331.2  L 331.2 331.2  L 331.2 7.2  L 7.2 7.2  z " style="fill: #ffffff"/>
   </g>
   <g id="matplotlib.axis_1"/>
   <g id="matplotlib.axis_2"/>
   <g id="line2d_1">
    <path d="M 13.430769 324.969231  L 221.123077 324.969231  " clip-path="url(#p25230709f3)" style="fill: none; stroke: #000000; stroke-linecap: square"/>
   </g>
   <g id="line2d_2">
    <path d="M 13.430769 324.969231  L 13.430769 117.276923  " clip-path="url(#p25230709f3)" style="fill: none; stroke: #000000; stroke-linecap: square"/>
   </g>
   <g id="line2d_3">
    <path d="M 13.430769 324.969231  L 117.276923 221.123077  " clip-path="url(#p25230709f3)" style="fill: none; stroke-dasharray: 1,1.65; stroke-dashoffset: 0; stroke: #000000"/>
   </g>
   <g id="line2d_4">
    <path d="M 221.123077 324.969231  L 221.123077 117.276923  " clip-path="url(#p25230709f3)" style="fill: none; stroke: #000000; stroke-linecap: square"/>
   </g>
   <g id="line2d_5">
    <path d="M 221.123077 324.969231  L 324.969231 221.123077  " clip-path="url(#p25230709f3)" style="fill: none; stroke: #000000; stroke-linecap: square"/>
   </g>
   <g id="line2d_6">
    <path d="M 13.430769 117.276923  L 221.123077 117.276923  " clip-path="url(#p25230709f3)" style="fill: none; stroke: #000000; stroke-linecap: square"/>
   </g>
   <g id="line2d_7">
    <path d="M 13.430769 117.276923  L 117.276923 13.430769  " clip-path="url(#p25230709f3)" style="fill: none; stroke: #000000; stroke-linecap: square"/>
   </g>
   <g id="line2d_8">
    <path d="M 117.276923 221.123077  L 324.969231 221.123077  " clip-path="url(#p25230709f3)" style="fill: none; stroke-dasharray: 1,1.65; stroke-dashoffset: 0; stroke: #000000"/>
   </g>
   <g id="line2d_9">
    <path d="M 117.276923 221.123077  L 117.276923 13.430769  " clip-path="url(#p25230709f3)" style="fill: none; stroke-dasharray: 1,1.65; stroke-dashoffset: 0; stroke: #000000"/>
   </g>
   <g id="line2d_10">
    <path d="M 221.123077 117.276923  L 324.969231 13.430769  " clip-path="url(#p25230709f3)" style="fill: none; stroke: #000000; stroke-linecap: square"/>
   </g>
   <g id="line2d_11">
    <path d="M 324.969231 221.123077  L 324.969231 13.430769  " clip-path="url(#p25230709f3)" style="fill: none; stroke: #000000; stroke-linecap: square"/>
   </g>
   <g id="line2d_12">
    <path d="M 117.276923 13.430769  L 324.969231 13.430769  " clip-path="url(#p25230709f3)" style="fill: none; stroke: #000000; stroke-linecap: square"/>
   </g>
   <g id="PathCollection_1">
    <defs>
     <path id="C0_0_3c461d1706" d="M 0 7.071068  C 1.875269 7.071068 3.673985 6.326016 5 5  C 6.326016 3.673985 7.071068 1.875269 7.071068 -0  C 7.071068 -1.875269 6.326016 -3.673985 5 -5  C 3.673985 -6.326016 1.875269 -7.071068 0 -7.071068  C -1.875269 -7.071068 -3.673985 -6.326016 -5 -5  C -6.326016 -3.673985 -7.071068 -1.875269 -7.071068 0  C -7.071068 1.875269 -6.326016 3.673985 -5 5  C -3.673985 6.326016 -1.875269 7.071068 0 7.071068  z "/>
    </defs>
    <use xlink:href="#C0_0_3c461d1706" x="13.430769" y="324.969231" style="fill: #ff0000; stroke: #000000"/>
    <use xlink:href="#C0_0_3c461d1706" x="324.969231" y="221.123077" style="fill: #ff0000; stroke: #000000"/>
    <use xlink:href="#C0_0_3c461d1706" x="221.123077" y="324.969231" style="fill: #00ff00; stroke: #000000"/>
    <use xlink:href="#C0_0_3c461d1706" x="13.430769" y="117.276923" style="fill: #00ff00; stroke: #000000"/>
    <use xlink:href="#C0_0_3c461d1706" x="117.276923" y="221.123077" style="fill: #0000ff; stroke: #000000"/>
    <use xlink:href="#C0_0_3c461d1706" x="221.123077" y="117.276923" style="fill: #0000ff; stroke: #000000"/>
    <use xlink:href="#C0_0_3c461d1706" x="117.276923" y="13.430769" style="fill: #ffff00; stroke: #000000"/>
    <use xlink:href="#C0_0_3c461d1706" x="324.969231" y="13.430769" style="fill: #ff00ff; stroke: #000000"/>
   </g>
  </g>
 </g>
 <defs>
  <clipPath id="p25230709f3">
   <rect x="7.2" y="7.2" width="324" height="324"/>
  </clipPath>
 </defs>
</g>
    <g transform="translate(1942.0, 776.8) scale(1 1) "><metadata>
  <rdf:RDF xmlns:dc="http://purl.org/dc/elements/1.1/" xmlns:cc="http://creativecommons.org/ns#" xmlns:rdf="http://www.w3.org/1999/02/22-rdf-syntax-ns#">
   <cc:Work>
    <dc:type rdf:resource="http://purl.org/dc/dcmitype/StillImage"/>
    <dc:date>2025-04-22T20:41:06.732846</dc:date>
    <dc:format>image/svg+xml</dc:format>
    <dc:creator>
     <cc:Agent>
      <dc:title>Matplotlib v3.8.0, https://matplotlib.org/</dc:title>
     </cc:Agent>
    </dc:creator>
   </cc:Work>
  </rdf:RDF>
 </metadata>
 <defs>
  <style type="text/css">*{stroke-linejoin: round; stroke-linecap: butt}</style>
 </defs>
 <g id="figure_1">
  <g id="patch_1">
   <path d="M -0 338.4  L 338.4 338.4  L 338.4 0  L -0 0  z " style="fill: #ffffff"/>
  </g>
  <g id="axes_1">
   <g id="patch_2">
    <path d="M 7.2 331.2  L 331.2 331.2  L 331.2 7.2  L 7.2 7.2  z " style="fill: #ffffff"/>
   </g>
   <g id="matplotlib.axis_1"/>
   <g id="matplotlib.axis_2"/>
   <g id="line2d_1">
    <path d="M 13.430769 324.969231  L 221.123077 324.969231  " clip-path="url(#pebe0e9897b)" style="fill: none; stroke: #000000; stroke-linecap: square"/>
   </g>
   <g id="line2d_2">
    <path d="M 13.430769 324.969231  L 13.430769 117.276923  " clip-path="url(#pebe0e9897b)" style="fill: none; stroke: #000000; stroke-linecap: square"/>
   </g>
   <g id="line2d_3">
    <path d="M 13.430769 324.969231  L 117.276923 221.123077  " clip-path="url(#pebe0e9897b)" style="fill: none; stroke-dasharray: 1,1.65; stroke-dashoffset: 0; stroke: #000000"/>
   </g>
   <g id="line2d_4">
    <path d="M 221.123077 324.969231  L 221.123077 117.276923  " clip-path="url(#pebe0e9897b)" style="fill: none; stroke: #000000; stroke-linecap: square"/>
   </g>
   <g id="line2d_5">
    <path d="M 221.123077 324.969231  L 324.969231 221.123077  " clip-path="url(#pebe0e9897b)" style="fill: none; stroke: #000000; stroke-linecap: square"/>
   </g>
   <g id="line2d_6">
    <path d="M 13.430769 117.276923  L 221.123077 117.276923  " clip-path="url(#pebe0e9897b)" style="fill: none; stroke: #000000; stroke-linecap: square"/>
   </g>
   <g id="line2d_7">
    <path d="M 13.430769 117.276923  L 117.276923 13.430769  " clip-path="url(#pebe0e9897b)" style="fill: none; stroke: #000000; stroke-linecap: square"/>
   </g>
   <g id="line2d_8">
    <path d="M 117.276923 221.123077  L 324.969231 221.123077  " clip-path="url(#pebe0e9897b)" style="fill: none; stroke-dasharray: 1,1.65; stroke-dashoffset: 0; stroke: #000000"/>
   </g>
   <g id="line2d_9">
    <path d="M 117.276923 221.123077  L 117.276923 13.430769  " clip-path="url(#pebe0e9897b)" style="fill: none; stroke-dasharray: 1,1.65; stroke-dashoffset: 0; stroke: #000000"/>
   </g>
   <g id="line2d_10">
    <path d="M 221.123077 117.276923  L 324.969231 13.430769  " clip-path="url(#pebe0e9897b)" style="fill: none; stroke: #000000; stroke-linecap: square"/>
   </g>
   <g id="line2d_11">
    <path d="M 324.969231 221.123077  L 324.969231 13.430769  " clip-path="url(#pebe0e9897b)" style="fill: none; stroke: #000000; stroke-linecap: square"/>
   </g>
   <g id="line2d_12">
    <path d="M 117.276923 13.430769  L 324.969231 13.430769  " clip-path="url(#pebe0e9897b)" style="fill: none; stroke: #000000; stroke-linecap: square"/>
   </g>
   <g id="PathCollection_1">
    <defs>
     <path id="C0_0_4e35e8dc84" d="M 0 7.071068  C 1.875269 7.071068 3.673985 6.326016 5 5  C 6.326016 3.673985 7.071068 1.875269 7.071068 -0  C 7.071068 -1.875269 6.326016 -3.673985 5 -5  C 3.673985 -6.326016 1.875269 -7.071068 0 -7.071068  C -1.875269 -7.071068 -3.673985 -6.326016 -5 -5  C -6.326016 -3.673985 -7.071068 -1.875269 -7.071068 0  C -7.071068 1.875269 -6.326016 3.673985 -5 5  C -3.673985 6.326016 -1.875269 7.071068 0 7.071068  z "/>
    </defs>
    <use xlink:href="#C0_0_4e35e8dc84" x="13.430769" y="324.969231" style="fill: #ff0000; stroke: #000000"/>
    <use xlink:href="#C0_0_4e35e8dc84" x="324.969231" y="13.430769" style="fill: #ff0000; stroke: #000000"/>
    <use xlink:href="#C0_0_4e35e8dc84" x="221.123077" y="324.969231" style="fill: #00ff00; stroke: #000000"/>
    <use xlink:href="#C0_0_4e35e8dc84" x="13.430769" y="117.276923" style="fill: #00ff00; stroke: #000000"/>
    <use xlink:href="#C0_0_4e35e8dc84" x="117.276923" y="221.123077" style="fill: #0000ff; stroke: #000000"/>
    <use xlink:href="#C0_0_4e35e8dc84" x="221.123077" y="117.276923" style="fill: #0000ff; stroke: #000000"/>
    <use xlink:href="#C0_0_4e35e8dc84" x="324.969231" y="221.123077" style="fill: #ffff00; stroke: #000000"/>
    <use xlink:href="#C0_0_4e35e8dc84" x="117.276923" y="13.430769" style="fill: #ff00ff; stroke: #000000"/>
   </g>
  </g>
 </g>
 <defs>
  <clipPath id="pebe0e9897b">
   <rect x="7.2" y="7.2" width="324" height="324"/>
  </clipPath>
 </defs>
</g>
  </g>
</svg>
