<?xml version='1.0' encoding='ASCII' standalone='yes'?>
<svg xmlns="http://www.w3.org/2000/svg" xmlns:xlink="http://www.w3.org/1999/xlink" version="1.1" width="1503.6pt" viewBox="0 0 1503.6 1503.6" height="1503.6pt">
  <g>
    <g>
      <rect width="100%" height="100%" fill="white"/>
    </g>
    <g transform="translate(0.0, 0.0) scale(1 1) "><metadata>
  <rdf:RDF xmlns:dc="http://purl.org/dc/elements/1.1/" xmlns:cc="http://creativecommons.org/ns#" xmlns:rdf="http://www.w3.org/1999/02/22-rdf-syntax-ns#">
   <cc:Work>
    <dc:type rdf:resource="http://purl.org/dc/dcmitype/StillImage"/>
    <dc:date>2025-04-22T20:22:17.605420</dc:date>
    <dc:format>image/svg+xml</dc:format>
    <dc:creator>
     <cc:Agent>
      <dc:title>Matplotlib v3.8.0, https://matplotlib.org/</dc:title>
     </cc:Agent>
    </dc:creator>
   </cc:Work>
  </rdf:RDF>
 </metadata>
 <defs>
  <style type="text/css">*{stroke-linejoin: round; stroke-linecap: butt}</style>
 </defs>
 <g id="figure_1">
  <g id="patch_1">
   <path d="M -0 338.4  L 338.4 338.4  L 338.4 0  L -0 0  z " style="fill: #ffffff"/>
  </g>
  <g id="axes_1">
   <g id="patch_2">
    <path d="M 7.2 331.2  L 331.2 331.2  L 331.2 7.2  L 7.2 7.2  z " style="fill: #ffffff"/>
   </g>
   <g id="matplotlib.axis_1"/>
   <g id="matplotlib.axis_2"/>
   <g id="line2d_1">
    <path d="M 13.430769 324.969231  L 221.123077 324.969231  " clip-path="url(#pb285998975)" style="fill: none; stroke: #000000; stroke-linecap: square"/>
   </g>
   <g id="line2d_2">
    <path d="M 13.430769 324.969231  L 13.430769 117.276923  " clip-path="url(#pb285998975)" style="fill: none; stroke: #000000; stroke-linecap: square"/>
   </g>
   <g id="line2d_3">
    <path d="M 13.430769 324.969231  L 117.276923 221.123077  " clip-path="url(#pb285998975)" style="fill: none; stroke-dasharray: 1,1.65; stroke-dashoffset: 0; stroke: #000000"/>
   </g>
   <g id="line2d_4">
    <path d="M 221.123077 324.969231  L 221.123077 117.276923  " clip-path="url(#pb285998975)" style="fill: none; stroke: #000000; stroke-linecap: square"/>
   </g>
   <g id="line2d_5">
    <path d="M 221.123077 324.969231  L 324.969231 221.123077  " clip-path="url(#pb285998975)" style="fill: none; stroke: #000000; stroke-linecap: square"/>
   </g>
   <g id="line2d_6">
    <path d="M 13.430769 117.276923  L 221.123077 117.276923  " clip-path="url(#pb285998975)" style="fill: none; stroke: #000000; stroke-linecap: square"/>
   </g>
   <g id="line2d_7">
    <path d="M 13.430769 117.276923  L 117.276923 13.430769  " clip-path="url(#pb285998975)" style="fill: none; stroke: #000000; stroke-linecap: square"/>
   </g>
   <g id="line2d_8">
    <path d="M 117.276923 221.123077  L 324.969231 221.123077  " clip-path="url(#pb285998975)" style="fill: none; stroke-dasharray: 1,1.65; stroke-dashoffset: 0; stroke: #000000"/>
   </g>
   <g id="line2d_9">
    <path d="M 117.276923 221.123077  L 117.276923 13.430769  " clip-path="url(#pb285998975)" style="fill: none; stroke-dasharray: 1,1.65; stroke-dashoffset: 0; stroke: #000000"/>
   </g>
   <g id="line2d_10">
    <path d="M 221.123077 117.276923  L 324.969231 13.430769  " clip-path="url(#pb285998975)" style="fill: none; stroke: #000000; stroke-linecap: square"/>
   </g>
   <g id="line2d_11">
    <path d="M 324.969231 221.123077  L 324.969231 13.430769  " clip-path="url(#pb285998975)" style="fill: none; stroke: #000000; stroke-linecap: square"/>
   </g>
   <g id="line2d_12">
    <path d="M 117.276923 13.430769  L 324.969231 13.430769  " clip-path="url(#pb285998975)" style="fill: none; stroke: #000000; stroke-linecap: square"/>
   </g>
   <g id="PathCollection_1">
    <defs>
     <path id="C0_0_d800097374" d="M 0 7.071068  C 1.875269 7.071068 3.673985 6.326016 5 5  C 6.326016 3.673985 7.071068 1.875269 7.071068 -0  C 7.071068 -1.875269 6.326016 -3.673985 5 -5  C 3.673985 -6.326016 1.875269 -7.071068 0 -7.071068  C -1.875269 -7.071068 -3.673985 -6.326016 -5 -5  C -6.326016 -3.673985 -7.071068 -1.875269 -7.071068 0  C -7.071068 1.875269 -6.326016 3.673985 -5 5  C -3.673985 6.326016 -1.875269 7.071068 0 7.071068  z "/>
    </defs>
    <use xlink:href="#C0_0_d800097374" x="13.430769" y="324.969231" style="fill: #00ff00; stroke: #000000"/>
    <use xlink:href="#C0_0_d800097374" x="221.123077" y="117.276923" style="fill: #00ff00; stroke: #000000"/>
    <use xlink:href="#C0_0_d800097374" x="221.123077" y="324.969231" style="fill: #ff0000; stroke: #000000"/>
    <use xlink:href="#C0_0_d800097374" x="13.430769" y="117.276923" style="fill: #ff0000; stroke: #000000"/>
    <use xlink:href="#C0_0_d800097374" x="117.276923" y="221.123077" style="fill: #ff0000; stroke: #000000"/>
    <use xlink:href="#C0_0_d800097374" x="324.969231" y="13.430769" style="fill: #ff0000; stroke: #000000"/>
    <use xlink:href="#C0_0_d800097374" x="324.969231" y="221.123077" style="fill: #0000ff; stroke: #000000"/>
    <use xlink:href="#C0_0_d800097374" x="117.276923" y="13.430769" style="fill: #ffff00; stroke: #000000"/>
   </g>
  </g>
 </g>
 <defs>
  <clipPath id="pb285998975">
   <rect x="7.2" y="7.2" width="324" height="324"/>
  </clipPath>
 </defs>
</g>
    <g transform="translate(0.0, 388.4) scale(1 1) "><metadata>
  <rdf:RDF xmlns:dc="http://purl.org/dc/elements/1.1/" xmlns:cc="http://creativecommons.org/ns#" xmlns:rdf="http://www.w3.org/1999/02/22-rdf-syntax-ns#">
   <cc:Work>
    <dc:type rdf:resource="http://purl.org/dc/dcmitype/StillImage"/>
    <dc:date>2025-04-22T20:22:17.615926</dc:date>
    <dc:format>image/svg+xml</dc:format>
    <dc:creator>
     <cc:Agent>
      <dc:title>Matplotlib v3.8.0, https://matplotlib.org/</dc:title>
     </cc:Agent>
    </dc:creator>
   </cc:Work>
  </rdf:RDF>
 </metadata>
 <defs>
  <style type="text/css">*{stroke-linejoin: round; stroke-linecap: butt}</style>
 </defs>
 <g id="figure_1">
  <g id="patch_1">
   <path d="M -0 338.4  L 338.4 338.4  L 338.4 0  L -0 0  z " style="fill: #ffffff"/>
  </g>
  <g id="axes_1">
   <g id="patch_2">
    <path d="M 7.2 331.2  L 331.2 331.2  L 331.2 7.2  L 7.2 7.2  z " style="fill: #ffffff"/>
   </g>
   <g id="matplotlib.axis_1"/>
   <g id="matplotlib.axis_2"/>
   <g id="line2d_1">
    <path d="M 13.430769 324.969231  L 221.123077 324.969231  " clip-path="url(#p7ba12fe79e)" style="fill: none; stroke: #000000; stroke-linecap: square"/>
   </g>
   <g id="line2d_2">
    <path d="M 13.430769 324.969231  L 13.430769 117.276923  " clip-path="url(#p7ba12fe79e)" style="fill: none; stroke: #000000; stroke-linecap: square"/>
   </g>
   <g id="line2d_3">
    <path d="M 13.430769 324.969231  L 117.276923 221.123077  " clip-path="url(#p7ba12fe79e)" style="fill: none; stroke-dasharray: 1,1.65; stroke-dashoffset: 0; stroke: #000000"/>
   </g>
   <g id="line2d_4">
    <path d="M 221.123077 324.969231  L 221.123077 117.276923  " clip-path="url(#p7ba12fe79e)" style="fill: none; stroke: #000000; stroke-linecap: square"/>
   </g>
   <g id="line2d_5">
    <path d="M 221.123077 324.969231  L 324.969231 221.123077  " clip-path="url(#p7ba12fe79e)" style="fill: none; stroke: #000000; stroke-linecap: square"/>
   </g>
   <g id="line2d_6">
    <path d="M 13.430769 117.276923  L 221.123077 117.276923  " clip-path="url(#p7ba12fe79e)" style="fill: none; stroke: #000000; stroke-linecap: square"/>
   </g>
   <g id="line2d_7">
    <path d="M 13.430769 117.276923  L 117.276923 13.430769  " clip-path="url(#p7ba12fe79e)" style="fill: none; stroke: #000000; stroke-linecap: square"/>
   </g>
   <g id="line2d_8">
    <path d="M 117.276923 221.123077  L 324.969231 221.123077  " clip-path="url(#p7ba12fe79e)" style="fill: none; stroke-dasharray: 1,1.65; stroke-dashoffset: 0; stroke: #000000"/>
   </g>
   <g id="line2d_9">
    <path d="M 117.276923 221.123077  L 117.276923 13.430769  " clip-path="url(#p7ba12fe79e)" style="fill: none; stroke-dasharray: 1,1.65; stroke-dashoffset: 0; stroke: #000000"/>
   </g>
   <g id="line2d_10">
    <path d="M 221.123077 117.276923  L 324.969231 13.430769  " clip-path="url(#p7ba12fe79e)" style="fill: none; stroke: #000000; stroke-linecap: square"/>
   </g>
   <g id="line2d_11">
    <path d="M 324.969231 221.123077  L 324.969231 13.430769  " clip-path="url(#p7ba12fe79e)" style="fill: none; stroke: #000000; stroke-linecap: square"/>
   </g>
   <g id="line2d_12">
    <path d="M 117.276923 13.430769  L 324.969231 13.430769  " clip-path="url(#p7ba12fe79e)" style="fill: none; stroke: #000000; stroke-linecap: square"/>
   </g>
   <g id="PathCollection_1">
    <defs>
     <path id="C0_0_3151475be2" d="M 0 7.071068  C 1.875269 7.071068 3.673985 6.326016 5 5  C 6.326016 3.673985 7.071068 1.875269 7.071068 -0  C 7.071068 -1.875269 6.326016 -3.673985 5 -5  C 3.673985 -6.326016 1.875269 -7.071068 0 -7.071068  C -1.875269 -7.071068 -3.673985 -6.326016 -5 -5  C -6.326016 -3.673985 -7.071068 -1.875269 -7.071068 0  C -7.071068 1.875269 -6.326016 3.673985 -5 5  C -3.673985 6.326016 -1.875269 7.071068 0 7.071068  z "/>
    </defs>
    <use xlink:href="#C0_0_3151475be2" x="13.430769" y="324.969231" style="fill: #0000ff; stroke: #000000"/>
    <use xlink:href="#C0_0_3151475be2" x="221.123077" y="324.969231" style="fill: #ff0000; stroke: #000000"/>
    <use xlink:href="#C0_0_3151475be2" x="13.430769" y="117.276923" style="fill: #ff0000; stroke: #000000"/>
    <use xlink:href="#C0_0_3151475be2" x="117.276923" y="221.123077" style="fill: #ff0000; stroke: #000000"/>
    <use xlink:href="#C0_0_3151475be2" x="221.123077" y="117.276923" style="fill: #00ff00; stroke: #000000"/>
    <use xlink:href="#C0_0_3151475be2" x="324.969231" y="221.123077" style="fill: #00ff00; stroke: #000000"/>
    <use xlink:href="#C0_0_3151475be2" x="117.276923" y="13.430769" style="fill: #00ff00; stroke: #000000"/>
    <use xlink:href="#C0_0_3151475be2" x="324.969231" y="13.430769" style="fill: #ffff00; stroke: #000000"/>
   </g>
  </g>
 </g>
 <defs>
  <clipPath id="p7ba12fe79e">
   <rect x="7.2" y="7.2" width="324" height="324"/>
  </clipPath>
 </defs>
</g>
    <g transform="translate(388.4, 388.4) scale(1 1) "><metadata>
  <rdf:RDF xmlns:dc="http://purl.org/dc/elements/1.1/" xmlns:cc="http://creativecommons.org/ns#" xmlns:rdf="http://www.w3.org/1999/02/22-rdf-syntax-ns#">
   <cc:Work>
    <dc:type rdf:resource="http://purl.org/dc/dcmitype/StillImage"/>
    <dc:date>2025-04-22T20:22:17.625896</dc:date>
    <dc:format>image/svg+xml</dc:format>
    <dc:creator>
     <cc:Agent>
      <dc:title>Matplotlib v3.8.0, https://matplotlib.org/</dc:title>
     </cc:Agent>
    </dc:creator>
   </cc:Work>
  </rdf:RDF>
 </metadata>
 <defs>
  <style type="text/css">*{stroke-linejoin: round; stroke-linecap: butt}</style>
 </defs>
 <g id="figure_1">
  <g id="patch_1">
   <path d="M -0 338.4  L 338.4 338.4  L 338.4 0  L -0 0  z " style="fill: #ffffff"/>
  </g>
  <g id="axes_1">
   <g id="patch_2">
    <path d="M 7.2 331.2  L 331.2 331.2  L 331.2 7.2  L 7.2 7.2  z " style="fill: #ffffff"/>
   </g>
   <g id="matplotlib.axis_1"/>
   <g id="matplotlib.axis_2"/>
   <g id="line2d_1">
    <path d="M 13.430769 324.969231  L 221.123077 324.969231  " clip-path="url(#p92ff191bd7)" style="fill: none; stroke: #000000; stroke-linecap: square"/>
   </g>
   <g id="line2d_2">
    <path d="M 13.430769 324.969231  L 13.430769 117.276923  " clip-path="url(#p92ff191bd7)" style="fill: none; stroke: #000000; stroke-linecap: square"/>
   </g>
   <g id="line2d_3">
    <path d="M 13.430769 324.969231  L 117.276923 221.123077  " clip-path="url(#p92ff191bd7)" style="fill: none; stroke-dasharray: 1,1.65; stroke-dashoffset: 0; stroke: #000000"/>
   </g>
   <g id="line2d_4">
    <path d="M 221.123077 324.969231  L 221.123077 117.276923  " clip-path="url(#p92ff191bd7)" style="fill: none; stroke: #000000; stroke-linecap: square"/>
   </g>
   <g id="line2d_5">
    <path d="M 221.123077 324.969231  L 324.969231 221.123077  " clip-path="url(#p92ff191bd7)" style="fill: none; stroke: #000000; stroke-linecap: square"/>
   </g>
   <g id="line2d_6">
    <path d="M 13.430769 117.276923  L 221.123077 117.276923  " clip-path="url(#p92ff191bd7)" style="fill: none; stroke: #000000; stroke-linecap: square"/>
   </g>
   <g id="line2d_7">
    <path d="M 13.430769 117.276923  L 117.276923 13.430769  " clip-path="url(#p92ff191bd7)" style="fill: none; stroke: #000000; stroke-linecap: square"/>
   </g>
   <g id="line2d_8">
    <path d="M 117.276923 221.123077  L 324.969231 221.123077  " clip-path="url(#p92ff191bd7)" style="fill: none; stroke-dasharray: 1,1.65; stroke-dashoffset: 0; stroke: #000000"/>
   </g>
   <g id="line2d_9">
    <path d="M 117.276923 221.123077  L 117.276923 13.430769  " clip-path="url(#p92ff191bd7)" style="fill: none; stroke-dasharray: 1,1.65; stroke-dashoffset: 0; stroke: #000000"/>
   </g>
   <g id="line2d_10">
    <path d="M 221.123077 117.276923  L 324.969231 13.430769  " clip-path="url(#p92ff191bd7)" style="fill: none; stroke: #000000; stroke-linecap: square"/>
   </g>
   <g id="line2d_11">
    <path d="M 324.969231 221.123077  L 324.969231 13.430769  " clip-path="url(#p92ff191bd7)" style="fill: none; stroke: #000000; stroke-linecap: square"/>
   </g>
   <g id="line2d_12">
    <path d="M 117.276923 13.430769  L 324.969231 13.430769  " clip-path="url(#p92ff191bd7)" style="fill: none; stroke: #000000; stroke-linecap: square"/>
   </g>
   <g id="PathCollection_1">
    <defs>
     <path id="C0_0_eb5877e89f" d="M 0 7.071068  C 1.875269 7.071068 3.673985 6.326016 5 5  C 6.326016 3.673985 7.071068 1.875269 7.071068 -0  C 7.071068 -1.875269 6.326016 -3.673985 5 -5  C 3.673985 -6.326016 1.875269 -7.071068 0 -7.071068  C -1.875269 -7.071068 -3.673985 -6.326016 -5 -5  C -6.326016 -3.673985 -7.071068 -1.875269 -7.071068 0  C -7.071068 1.875269 -6.326016 3.673985 -5 5  C -3.673985 6.326016 -1.875269 7.071068 0 7.071068  z "/>
    </defs>
    <use xlink:href="#C0_0_eb5877e89f" x="13.430769" y="324.969231" style="fill: #ff0000; stroke: #000000"/>
    <use xlink:href="#C0_0_eb5877e89f" x="221.123077" y="117.276923" style="fill: #ff0000; stroke: #000000"/>
    <use xlink:href="#C0_0_eb5877e89f" x="324.969231" y="221.123077" style="fill: #ff0000; stroke: #000000"/>
    <use xlink:href="#C0_0_eb5877e89f" x="221.123077" y="324.969231" style="fill: #00ff00; stroke: #000000"/>
    <use xlink:href="#C0_0_eb5877e89f" x="13.430769" y="117.276923" style="fill: #00ff00; stroke: #000000"/>
    <use xlink:href="#C0_0_eb5877e89f" x="117.276923" y="221.123077" style="fill: #00ff00; stroke: #000000"/>
    <use xlink:href="#C0_0_eb5877e89f" x="117.276923" y="13.430769" style="fill: #0000ff; stroke: #000000"/>
    <use xlink:href="#C0_0_eb5877e89f" x="324.969231" y="13.430769" style="fill: #ffff00; stroke: #000000"/>
   </g>
  </g>
 </g>
 <defs>
  <clipPath id="p92ff191bd7">
   <rect x="7.2" y="7.2" width="324" height="324"/>
  </clipPath>
 </defs>
</g>
    <g transform="translate(0.0, 776.8) scale(1 1) "><metadata>
  <rdf:RDF xmlns:dc="http://purl.org/dc/elements/1.1/" xmlns:cc="http://creativecommons.org/ns#" xmlns:rdf="http://www.w3.org/1999/02/22-rdf-syntax-ns#">
   <cc:Work>
    <dc:type rdf:resource="http://purl.org/dc/dcmitype/StillImage"/>
    <dc:date>2025-04-22T20:22:17.659897</dc:date>
    <dc:format>image/svg+xml</dc:format>
    <dc:creator>
     <cc:Agent>
      <dc:title>Matplotlib v3.8.0, https://matplotlib.org/</dc:title>
     </cc:Agent>
    </dc:creator>
   </cc:Work>
  </rdf:RDF>
 </metadata>
 <defs>
  <style type="text/css">*{stroke-linejoin: round; stroke-linecap: butt}</style>
 </defs>
 <g id="figure_1">
  <g id="patch_1">
   <path d="M -0 338.4  L 338.4 338.4  L 338.4 0  L -0 0  z " style="fill: #ffffff"/>
  </g>
  <g id="axes_1">
   <g id="patch_2">
    <path d="M 7.2 331.2  L 331.2 331.2  L 331.2 7.2  L 7.2 7.2  z " style="fill: #ffffff"/>
   </g>
   <g id="matplotlib.axis_1"/>
   <g id="matplotlib.axis_2"/>
   <g id="line2d_1">
    <path d="M 13.430769 324.969231  L 221.123077 324.969231  " clip-path="url(#pf470ad101b)" style="fill: none; stroke: #000000; stroke-linecap: square"/>
   </g>
   <g id="line2d_2">
    <path d="M 13.430769 324.969231  L 13.430769 117.276923  " clip-path="url(#pf470ad101b)" style="fill: none; stroke: #000000; stroke-linecap: square"/>
   </g>
   <g id="line2d_3">
    <path d="M 13.430769 324.969231  L 117.276923 221.123077  " clip-path="url(#pf470ad101b)" style="fill: none; stroke-dasharray: 1,1.65; stroke-dashoffset: 0; stroke: #000000"/>
   </g>
   <g id="line2d_4">
    <path d="M 221.123077 324.969231  L 221.123077 117.276923  " clip-path="url(#pf470ad101b)" style="fill: none; stroke: #000000; stroke-linecap: square"/>
   </g>
   <g id="line2d_5">
    <path d="M 221.123077 324.969231  L 324.969231 221.123077  " clip-path="url(#pf470ad101b)" style="fill: none; stroke: #000000; stroke-linecap: square"/>
   </g>
   <g id="line2d_6">
    <path d="M 13.430769 117.276923  L 221.123077 117.276923  " clip-path="url(#pf470ad101b)" style="fill: none; stroke: #000000; stroke-linecap: square"/>
   </g>
   <g id="line2d_7">
    <path d="M 13.430769 117.276923  L 117.276923 13.430769  " clip-path="url(#pf470ad101b)" style="fill: none; stroke: #000000; stroke-linecap: square"/>
   </g>
   <g id="line2d_8">
    <path d="M 117.276923 221.123077  L 324.969231 221.123077  " clip-path="url(#pf470ad101b)" style="fill: none; stroke-dasharray: 1,1.65; stroke-dashoffset: 0; stroke: #000000"/>
   </g>
   <g id="line2d_9">
    <path d="M 117.276923 221.123077  L 117.276923 13.430769  " clip-path="url(#pf470ad101b)" style="fill: none; stroke-dasharray: 1,1.65; stroke-dashoffset: 0; stroke: #000000"/>
   </g>
   <g id="line2d_10">
    <path d="M 221.123077 117.276923  L 324.969231 13.430769  " clip-path="url(#pf470ad101b)" style="fill: none; stroke: #000000; stroke-linecap: square"/>
   </g>
   <g id="line2d_11">
    <path d="M 324.969231 221.123077  L 324.969231 13.430769  " clip-path="url(#pf470ad101b)" style="fill: none; stroke: #000000; stroke-linecap: square"/>
   </g>
   <g id="line2d_12">
    <path d="M 117.276923 13.430769  L 324.969231 13.430769  " clip-path="url(#pf470ad101b)" style="fill: none; stroke: #000000; stroke-linecap: square"/>
   </g>
   <g id="PathCollection_1">
    <defs>
     <path id="C0_0_a4fcd2deaf" d="M 0 7.071068  C 1.875269 7.071068 3.673985 6.326016 5 5  C 6.326016 3.673985 7.071068 1.875269 7.071068 -0  C 7.071068 -1.875269 6.326016 -3.673985 5 -5  C 3.673985 -6.326016 1.875269 -7.071068 0 -7.071068  C -1.875269 -7.071068 -3.673985 -6.326016 -5 -5  C -6.326016 -3.673985 -7.071068 -1.875269 -7.071068 0  C -7.071068 1.875269 -6.326016 3.673985 -5 5  C -3.673985 6.326016 -1.875269 7.071068 0 7.071068  z "/>
    </defs>
    <use xlink:href="#C0_0_a4fcd2deaf" x="13.430769" y="324.969231" style="fill: #00ff00; stroke: #000000"/>
    <use xlink:href="#C0_0_a4fcd2deaf" x="221.123077" y="117.276923" style="fill: #00ff00; stroke: #000000"/>
    <use xlink:href="#C0_0_a4fcd2deaf" x="221.123077" y="324.969231" style="fill: #ff0000; stroke: #000000"/>
    <use xlink:href="#C0_0_a4fcd2deaf" x="13.430769" y="117.276923" style="fill: #ff0000; stroke: #000000"/>
    <use xlink:href="#C0_0_a4fcd2deaf" x="117.276923" y="221.123077" style="fill: #ff0000; stroke: #000000"/>
    <use xlink:href="#C0_0_a4fcd2deaf" x="324.969231" y="221.123077" style="fill: #0000ff; stroke: #000000"/>
    <use xlink:href="#C0_0_a4fcd2deaf" x="117.276923" y="13.430769" style="fill: #0000ff; stroke: #000000"/>
    <use xlink:href="#C0_0_a4fcd2deaf" x="324.969231" y="13.430769" style="fill: #ffff00; stroke: #000000"/>
   </g>
  </g>
 </g>
 <defs>
  <clipPath id="pf470ad101b">
   <rect x="7.2" y="7.2" width="324" height="324"/>
  </clipPath>
 </defs>
</g>
    <g transform="translate(388.4, 776.8) scale(1 1) "><metadata>
  <rdf:RDF xmlns:dc="http://purl.org/dc/elements/1.1/" xmlns:cc="http://creativecommons.org/ns#" xmlns:rdf="http://www.w3.org/1999/02/22-rdf-syntax-ns#">
   <cc:Work>
    <dc:type rdf:resource="http://purl.org/dc/dcmitype/StillImage"/>
    <dc:date>2025-04-22T20:22:17.670060</dc:date>
    <dc:format>image/svg+xml</dc:format>
    <dc:creator>
     <cc:Agent>
      <dc:title>Matplotlib v3.8.0, https://matplotlib.org/</dc:title>
     </cc:Agent>
    </dc:creator>
   </cc:Work>
  </rdf:RDF>
 </metadata>
 <defs>
  <style type="text/css">*{stroke-linejoin: round; stroke-linecap: butt}</style>
 </defs>
 <g id="figure_1">
  <g id="patch_1">
   <path d="M -0 338.4  L 338.4 338.4  L 338.4 0  L -0 0  z " style="fill: #ffffff"/>
  </g>
  <g id="axes_1">
   <g id="patch_2">
    <path d="M 7.2 331.2  L 331.2 331.2  L 331.2 7.2  L 7.2 7.2  z " style="fill: #ffffff"/>
   </g>
   <g id="matplotlib.axis_1"/>
   <g id="matplotlib.axis_2"/>
   <g id="line2d_1">
    <path d="M 13.430769 324.969231  L 221.123077 324.969231  " clip-path="url(#pc8fbc82484)" style="fill: none; stroke: #000000; stroke-linecap: square"/>
   </g>
   <g id="line2d_2">
    <path d="M 13.430769 324.969231  L 13.430769 117.276923  " clip-path="url(#pc8fbc82484)" style="fill: none; stroke: #000000; stroke-linecap: square"/>
   </g>
   <g id="line2d_3">
    <path d="M 13.430769 324.969231  L 117.276923 221.123077  " clip-path="url(#pc8fbc82484)" style="fill: none; stroke-dasharray: 1,1.65; stroke-dashoffset: 0; stroke: #000000"/>
   </g>
   <g id="line2d_4">
    <path d="M 221.123077 324.969231  L 221.123077 117.276923  " clip-path="url(#pc8fbc82484)" style="fill: none; stroke: #000000; stroke-linecap: square"/>
   </g>
   <g id="line2d_5">
    <path d="M 221.123077 324.969231  L 324.969231 221.123077  " clip-path="url(#pc8fbc82484)" style="fill: none; stroke: #000000; stroke-linecap: square"/>
   </g>
   <g id="line2d_6">
    <path d="M 13.430769 117.276923  L 221.123077 117.276923  " clip-path="url(#pc8fbc82484)" style="fill: none; stroke: #000000; stroke-linecap: square"/>
   </g>
   <g id="line2d_7">
    <path d="M 13.430769 117.276923  L 117.276923 13.430769  " clip-path="url(#pc8fbc82484)" style="fill: none; stroke: #000000; stroke-linecap: square"/>
   </g>
   <g id="line2d_8">
    <path d="M 117.276923 221.123077  L 324.969231 221.123077  " clip-path="url(#pc8fbc82484)" style="fill: none; stroke-dasharray: 1,1.65; stroke-dashoffset: 0; stroke: #000000"/>
   </g>
   <g id="line2d_9">
    <path d="M 117.276923 221.123077  L 117.276923 13.430769  " clip-path="url(#pc8fbc82484)" style="fill: none; stroke-dasharray: 1,1.65; stroke-dashoffset: 0; stroke: #000000"/>
   </g>
   <g id="line2d_10">
    <path d="M 221.123077 117.276923  L 324.969231 13.430769  " clip-path="url(#pc8fbc82484)" style="fill: none; stroke: #000000; stroke-linecap: square"/>
   </g>
   <g id="line2d_11">
    <path d="M 324.969231 221.123077  L 324.969231 13.430769  " clip-path="url(#pc8fbc82484)" style="fill: none; stroke: #000000; stroke-linecap: square"/>
   </g>
   <g id="line2d_12">
    <path d="M 117.276923 13.430769  L 324.969231 13.430769  " clip-path="url(#pc8fbc82484)" style="fill: none; stroke: #000000; stroke-linecap: square"/>
   </g>
   <g id="PathCollection_1">
    <defs>
     <path id="C0_0_19c3b627bf" d="M 0 7.071068  C 1.875269 7.071068 3.673985 6.326016 5 5  C 6.326016 3.673985 7.071068 1.875269 7.071068 -0  C 7.071068 -1.875269 6.326016 -3.673985 5 -5  C 3.673985 -6.326016 1.875269 -7.071068 0 -7.071068  C -1.875269 -7.071068 -3.673985 -6.326016 -5 -5  C -6.326016 -3.673985 -7.071068 -1.875269 -7.071068 0  C -7.071068 1.875269 -6.326016 3.673985 -5 5  C -3.673985 6.326016 -1.875269 7.071068 0 7.071068  z "/>
    </defs>
    <use xlink:href="#C0_0_19c3b627bf" x="13.430769" y="324.969231" style="fill: #00ff00; stroke: #000000"/>
    <use xlink:href="#C0_0_19c3b627bf" x="324.969231" y="13.430769" style="fill: #00ff00; stroke: #000000"/>
    <use xlink:href="#C0_0_19c3b627bf" x="221.123077" y="324.969231" style="fill: #ff0000; stroke: #000000"/>
    <use xlink:href="#C0_0_19c3b627bf" x="13.430769" y="117.276923" style="fill: #ff0000; stroke: #000000"/>
    <use xlink:href="#C0_0_19c3b627bf" x="117.276923" y="221.123077" style="fill: #ff0000; stroke: #000000"/>
    <use xlink:href="#C0_0_19c3b627bf" x="221.123077" y="117.276923" style="fill: #0000ff; stroke: #000000"/>
    <use xlink:href="#C0_0_19c3b627bf" x="324.969231" y="221.123077" style="fill: #0000ff; stroke: #000000"/>
    <use xlink:href="#C0_0_19c3b627bf" x="117.276923" y="13.430769" style="fill: #ffff00; stroke: #000000"/>
   </g>
  </g>
 </g>
 <defs>
  <clipPath id="pc8fbc82484">
   <rect x="7.2" y="7.2" width="324" height="324"/>
  </clipPath>
 </defs>
</g>
    <g transform="translate(0.0, 1165.1999999999998) scale(1 1) "><metadata>
  <rdf:RDF xmlns:dc="http://purl.org/dc/elements/1.1/" xmlns:cc="http://creativecommons.org/ns#" xmlns:rdf="http://www.w3.org/1999/02/22-rdf-syntax-ns#">
   <cc:Work>
    <dc:type rdf:resource="http://purl.org/dc/dcmitype/StillImage"/>
    <dc:date>2025-04-22T20:22:17.680197</dc:date>
    <dc:format>image/svg+xml</dc:format>
    <dc:creator>
     <cc:Agent>
      <dc:title>Matplotlib v3.8.0, https://matplotlib.org/</dc:title>
     </cc:Agent>
    </dc:creator>
   </cc:Work>
  </rdf:RDF>
 </metadata>
 <defs>
  <style type="text/css">*{stroke-linejoin: round; stroke-linecap: butt}</style>
 </defs>
 <g id="figure_1">
  <g id="patch_1">
   <path d="M -0 338.4  L 338.4 338.4  L 338.4 0  L -0 0  z " style="fill: #ffffff"/>
  </g>
  <g id="axes_1">
   <g id="patch_2">
    <path d="M 7.2 331.2  L 331.2 331.2  L 331.2 7.2  L 7.2 7.2  z " style="fill: #ffffff"/>
   </g>
   <g id="matplotlib.axis_1"/>
   <g id="matplotlib.axis_2"/>
   <g id="line2d_1">
    <path d="M 13.430769 324.969231  L 221.123077 324.969231  " clip-path="url(#pc8d2923ccd)" style="fill: none; stroke: #000000; stroke-linecap: square"/>
   </g>
   <g id="line2d_2">
    <path d="M 13.430769 324.969231  L 13.430769 117.276923  " clip-path="url(#pc8d2923ccd)" style="fill: none; stroke: #000000; stroke-linecap: square"/>
   </g>
   <g id="line2d_3">
    <path d="M 13.430769 324.969231  L 117.276923 221.123077  " clip-path="url(#pc8d2923ccd)" style="fill: none; stroke-dasharray: 1,1.65; stroke-dashoffset: 0; stroke: #000000"/>
   </g>
   <g id="line2d_4">
    <path d="M 221.123077 324.969231  L 221.123077 117.276923  " clip-path="url(#pc8d2923ccd)" style="fill: none; stroke: #000000; stroke-linecap: square"/>
   </g>
   <g id="line2d_5">
    <path d="M 221.123077 324.969231  L 324.969231 221.123077  " clip-path="url(#pc8d2923ccd)" style="fill: none; stroke: #000000; stroke-linecap: square"/>
   </g>
   <g id="line2d_6">
    <path d="M 13.430769 117.276923  L 221.123077 117.276923  " clip-path="url(#pc8d2923ccd)" style="fill: none; stroke: #000000; stroke-linecap: square"/>
   </g>
   <g id="line2d_7">
    <path d="M 13.430769 117.276923  L 117.276923 13.430769  " clip-path="url(#pc8d2923ccd)" style="fill: none; stroke: #000000; stroke-linecap: square"/>
   </g>
   <g id="line2d_8">
    <path d="M 117.276923 221.123077  L 324.969231 221.123077  " clip-path="url(#pc8d2923ccd)" style="fill: none; stroke-dasharray: 1,1.65; stroke-dashoffset: 0; stroke: #000000"/>
   </g>
   <g id="line2d_9">
    <path d="M 117.276923 221.123077  L 117.276923 13.430769  " clip-path="url(#pc8d2923ccd)" style="fill: none; stroke-dasharray: 1,1.65; stroke-dashoffset: 0; stroke: #000000"/>
   </g>
   <g id="line2d_10">
    <path d="M 221.123077 117.276923  L 324.969231 13.430769  " clip-path="url(#pc8d2923ccd)" style="fill: none; stroke: #000000; stroke-linecap: square"/>
   </g>
   <g id="line2d_11">
    <path d="M 324.969231 221.123077  L 324.969231 13.430769  " clip-path="url(#pc8d2923ccd)" style="fill: none; stroke: #000000; stroke-linecap: square"/>
   </g>
   <g id="line2d_12">
    <path d="M 117.276923 13.430769  L 324.969231 13.430769  " clip-path="url(#pc8d2923ccd)" style="fill: none; stroke: #000000; stroke-linecap: square"/>
   </g>
   <g id="PathCollection_1">
    <defs>
     <path id="C0_0_3623d20a6d" d="M 0 7.071068  C 1.875269 7.071068 3.673985 6.326016 5 5  C 6.326016 3.673985 7.071068 1.875269 7.071068 -0  C 7.071068 -1.875269 6.326016 -3.673985 5 -5  C 3.673985 -6.326016 1.875269 -7.071068 0 -7.071068  C -1.875269 -7.071068 -3.673985 -6.326016 -5 -5  C -6.326016 -3.673985 -7.071068 -1.875269 -7.071068 0  C -7.071068 1.875269 -6.326016 3.673985 -5 5  C -3.673985 6.326016 -1.875269 7.071068 0 7.071068  z "/>
    </defs>
    <use xlink:href="#C0_0_3623d20a6d" x="13.430769" y="324.969231" style="fill: #ff0000; stroke: #000000"/>
    <use xlink:href="#C0_0_3623d20a6d" x="324.969231" y="221.123077" style="fill: #ff0000; stroke: #000000"/>
    <use xlink:href="#C0_0_3623d20a6d" x="221.123077" y="324.969231" style="fill: #00ff00; stroke: #000000"/>
    <use xlink:href="#C0_0_3623d20a6d" x="13.430769" y="117.276923" style="fill: #00ff00; stroke: #000000"/>
    <use xlink:href="#C0_0_3623d20a6d" x="117.276923" y="221.123077" style="fill: #0000ff; stroke: #000000"/>
    <use xlink:href="#C0_0_3623d20a6d" x="324.969231" y="13.430769" style="fill: #0000ff; stroke: #000000"/>
    <use xlink:href="#C0_0_3623d20a6d" x="221.123077" y="117.276923" style="fill: #ffff00; stroke: #000000"/>
    <use xlink:href="#C0_0_3623d20a6d" x="117.276923" y="13.430769" style="fill: #ffff00; stroke: #000000"/>
   </g>
  </g>
 </g>
 <defs>
  <clipPath id="pc8d2923ccd">
   <rect x="7.2" y="7.2" width="324" height="324"/>
  </clipPath>
 </defs>
</g>
    <g transform="translate(388.4, 1165.1999999999998) scale(1 1) "><metadata>
  <rdf:RDF xmlns:dc="http://purl.org/dc/elements/1.1/" xmlns:cc="http://creativecommons.org/ns#" xmlns:rdf="http://www.w3.org/1999/02/22-rdf-syntax-ns#">
   <cc:Work>
    <dc:type rdf:resource="http://purl.org/dc/dcmitype/StillImage"/>
    <dc:date>2025-04-22T20:22:17.690854</dc:date>
    <dc:format>image/svg+xml</dc:format>
    <dc:creator>
     <cc:Agent>
      <dc:title>Matplotlib v3.8.0, https://matplotlib.org/</dc:title>
     </cc:Agent>
    </dc:creator>
   </cc:Work>
  </rdf:RDF>
 </metadata>
 <defs>
  <style type="text/css">*{stroke-linejoin: round; stroke-linecap: butt}</style>
 </defs>
 <g id="figure_1">
  <g id="patch_1">
   <path d="M -0 338.4  L 338.4 338.4  L 338.4 0  L -0 0  z " style="fill: #ffffff"/>
  </g>
  <g id="axes_1">
   <g id="patch_2">
    <path d="M 7.2 331.2  L 331.2 331.2  L 331.2 7.2  L 7.2 7.2  z " style="fill: #ffffff"/>
   </g>
   <g id="matplotlib.axis_1"/>
   <g id="matplotlib.axis_2"/>
   <g id="line2d_1">
    <path d="M 13.430769 324.969231  L 221.123077 324.969231  " clip-path="url(#p3acb6e3e37)" style="fill: none; stroke: #000000; stroke-linecap: square"/>
   </g>
   <g id="line2d_2">
    <path d="M 13.430769 324.969231  L 13.430769 117.276923  " clip-path="url(#p3acb6e3e37)" style="fill: none; stroke: #000000; stroke-linecap: square"/>
   </g>
   <g id="line2d_3">
    <path d="M 13.430769 324.969231  L 117.276923 221.123077  " clip-path="url(#p3acb6e3e37)" style="fill: none; stroke-dasharray: 1,1.65; stroke-dashoffset: 0; stroke: #000000"/>
   </g>
   <g id="line2d_4">
    <path d="M 221.123077 324.969231  L 221.123077 117.276923  " clip-path="url(#p3acb6e3e37)" style="fill: none; stroke: #000000; stroke-linecap: square"/>
   </g>
   <g id="line2d_5">
    <path d="M 221.123077 324.969231  L 324.969231 221.123077  " clip-path="url(#p3acb6e3e37)" style="fill: none; stroke: #000000; stroke-linecap: square"/>
   </g>
   <g id="line2d_6">
    <path d="M 13.430769 117.276923  L 221.123077 117.276923  " clip-path="url(#p3acb6e3e37)" style="fill: none; stroke: #000000; stroke-linecap: square"/>
   </g>
   <g id="line2d_7">
    <path d="M 13.430769 117.276923  L 117.276923 13.430769  " clip-path="url(#p3acb6e3e37)" style="fill: none; stroke: #000000; stroke-linecap: square"/>
   </g>
   <g id="line2d_8">
    <path d="M 117.276923 221.123077  L 324.969231 221.123077  " clip-path="url(#p3acb6e3e37)" style="fill: none; stroke-dasharray: 1,1.65; stroke-dashoffset: 0; stroke: #000000"/>
   </g>
   <g id="line2d_9">
    <path d="M 117.276923 221.123077  L 117.276923 13.430769  " clip-path="url(#p3acb6e3e37)" style="fill: none; stroke-dasharray: 1,1.65; stroke-dashoffset: 0; stroke: #000000"/>
   </g>
   <g id="line2d_10">
    <path d="M 221.123077 117.276923  L 324.969231 13.430769  " clip-path="url(#p3acb6e3e37)" style="fill: none; stroke: #000000; stroke-linecap: square"/>
   </g>
   <g id="line2d_11">
    <path d="M 324.969231 221.123077  L 324.969231 13.430769  " clip-path="url(#p3acb6e3e37)" style="fill: none; stroke: #000000; stroke-linecap: square"/>
   </g>
   <g id="line2d_12">
    <path d="M 117.276923 13.430769  L 324.969231 13.430769  " clip-path="url(#p3acb6e3e37)" style="fill: none; stroke: #000000; stroke-linecap: square"/>
   </g>
   <g id="PathCollection_1">
    <defs>
     <path id="C0_0_17954a87f2" d="M 0 7.071068  C 1.875269 7.071068 3.673985 6.326016 5 5  C 6.326016 3.673985 7.071068 1.875269 7.071068 -0  C 7.071068 -1.875269 6.326016 -3.673985 5 -5  C 3.673985 -6.326016 1.875269 -7.071068 0 -7.071068  C -1.875269 -7.071068 -3.673985 -6.326016 -5 -5  C -6.326016 -3.673985 -7.071068 -1.875269 -7.071068 0  C -7.071068 1.875269 -6.326016 3.673985 -5 5  C -3.673985 6.326016 -1.875269 7.071068 0 7.071068  z "/>
    </defs>
    <use xlink:href="#C0_0_17954a87f2" x="13.430769" y="324.969231" style="fill: #ff0000; stroke: #000000"/>
    <use xlink:href="#C0_0_17954a87f2" x="221.123077" y="117.276923" style="fill: #ff0000; stroke: #000000"/>
    <use xlink:href="#C0_0_17954a87f2" x="221.123077" y="324.969231" style="fill: #00ff00; stroke: #000000"/>
    <use xlink:href="#C0_0_17954a87f2" x="13.430769" y="117.276923" style="fill: #00ff00; stroke: #000000"/>
    <use xlink:href="#C0_0_17954a87f2" x="117.276923" y="221.123077" style="fill: #0000ff; stroke: #000000"/>
    <use xlink:href="#C0_0_17954a87f2" x="324.969231" y="13.430769" style="fill: #0000ff; stroke: #000000"/>
    <use xlink:href="#C0_0_17954a87f2" x="324.969231" y="221.123077" style="fill: #ffff00; stroke: #000000"/>
    <use xlink:href="#C0_0_17954a87f2" x="117.276923" y="13.430769" style="fill: #ffff00; stroke: #000000"/>
   </g>
  </g>
 </g>
 <defs>
  <clipPath id="p3acb6e3e37">
   <rect x="7.2" y="7.2" width="324" height="324"/>
  </clipPath>
 </defs>
</g>
    <g transform="translate(776.8, 1165.1999999999998) scale(1 1) "><metadata>
  <rdf:RDF xmlns:dc="http://purl.org/dc/elements/1.1/" xmlns:cc="http://creativecommons.org/ns#" xmlns:rdf="http://www.w3.org/1999/02/22-rdf-syntax-ns#">
   <cc:Work>
    <dc:type rdf:resource="http://purl.org/dc/dcmitype/StillImage"/>
    <dc:date>2025-04-22T20:22:17.700688</dc:date>
    <dc:format>image/svg+xml</dc:format>
    <dc:creator>
     <cc:Agent>
      <dc:title>Matplotlib v3.8.0, https://matplotlib.org/</dc:title>
     </cc:Agent>
    </dc:creator>
   </cc:Work>
  </rdf:RDF>
 </metadata>
 <defs>
  <style type="text/css">*{stroke-linejoin: round; stroke-linecap: butt}</style>
 </defs>
 <g id="figure_1">
  <g id="patch_1">
   <path d="M -0 338.4  L 338.4 338.4  L 338.4 0  L -0 0  z " style="fill: #ffffff"/>
  </g>
  <g id="axes_1">
   <g id="patch_2">
    <path d="M 7.2 331.2  L 331.2 331.2  L 331.2 7.2  L 7.2 7.2  z " style="fill: #ffffff"/>
   </g>
   <g id="matplotlib.axis_1"/>
   <g id="matplotlib.axis_2"/>
   <g id="line2d_1">
    <path d="M 13.430769 324.969231  L 221.123077 324.969231  " clip-path="url(#p6eab363a3e)" style="fill: none; stroke: #000000; stroke-linecap: square"/>
   </g>
   <g id="line2d_2">
    <path d="M 13.430769 324.969231  L 13.430769 117.276923  " clip-path="url(#p6eab363a3e)" style="fill: none; stroke: #000000; stroke-linecap: square"/>
   </g>
   <g id="line2d_3">
    <path d="M 13.430769 324.969231  L 117.276923 221.123077  " clip-path="url(#p6eab363a3e)" style="fill: none; stroke-dasharray: 1,1.65; stroke-dashoffset: 0; stroke: #000000"/>
   </g>
   <g id="line2d_4">
    <path d="M 221.123077 324.969231  L 221.123077 117.276923  " clip-path="url(#p6eab363a3e)" style="fill: none; stroke: #000000; stroke-linecap: square"/>
   </g>
   <g id="line2d_5">
    <path d="M 221.123077 324.969231  L 324.969231 221.123077  " clip-path="url(#p6eab363a3e)" style="fill: none; stroke: #000000; stroke-linecap: square"/>
   </g>
   <g id="line2d_6">
    <path d="M 13.430769 117.276923  L 221.123077 117.276923  " clip-path="url(#p6eab363a3e)" style="fill: none; stroke: #000000; stroke-linecap: square"/>
   </g>
   <g id="line2d_7">
    <path d="M 13.430769 117.276923  L 117.276923 13.430769  " clip-path="url(#p6eab363a3e)" style="fill: none; stroke: #000000; stroke-linecap: square"/>
   </g>
   <g id="line2d_8">
    <path d="M 117.276923 221.123077  L 324.969231 221.123077  " clip-path="url(#p6eab363a3e)" style="fill: none; stroke-dasharray: 1,1.65; stroke-dashoffset: 0; stroke: #000000"/>
   </g>
   <g id="line2d_9">
    <path d="M 117.276923 221.123077  L 117.276923 13.430769  " clip-path="url(#p6eab363a3e)" style="fill: none; stroke-dasharray: 1,1.65; stroke-dashoffset: 0; stroke: #000000"/>
   </g>
   <g id="line2d_10">
    <path d="M 221.123077 117.276923  L 324.969231 13.430769  " clip-path="url(#p6eab363a3e)" style="fill: none; stroke: #000000; stroke-linecap: square"/>
   </g>
   <g id="line2d_11">
    <path d="M 324.969231 221.123077  L 324.969231 13.430769  " clip-path="url(#p6eab363a3e)" style="fill: none; stroke: #000000; stroke-linecap: square"/>
   </g>
   <g id="line2d_12">
    <path d="M 117.276923 13.430769  L 324.969231 13.430769  " clip-path="url(#p6eab363a3e)" style="fill: none; stroke: #000000; stroke-linecap: square"/>
   </g>
   <g id="PathCollection_1">
    <defs>
     <path id="C0_0_e203f026a2" d="M 0 7.071068  C 1.875269 7.071068 3.673985 6.326016 5 5  C 6.326016 3.673985 7.071068 1.875269 7.071068 -0  C 7.071068 -1.875269 6.326016 -3.673985 5 -5  C 3.673985 -6.326016 1.875269 -7.071068 0 -7.071068  C -1.875269 -7.071068 -3.673985 -6.326016 -5 -5  C -6.326016 -3.673985 -7.071068 -1.875269 -7.071068 0  C -7.071068 1.875269 -6.326016 3.673985 -5 5  C -3.673985 6.326016 -1.875269 7.071068 0 7.071068  z "/>
    </defs>
    <use xlink:href="#C0_0_e203f026a2" x="13.430769" y="324.969231" style="fill: #ff0000; stroke: #000000"/>
    <use xlink:href="#C0_0_e203f026a2" x="324.969231" y="13.430769" style="fill: #ff0000; stroke: #000000"/>
    <use xlink:href="#C0_0_e203f026a2" x="221.123077" y="324.969231" style="fill: #00ff00; stroke: #000000"/>
    <use xlink:href="#C0_0_e203f026a2" x="13.430769" y="117.276923" style="fill: #00ff00; stroke: #000000"/>
    <use xlink:href="#C0_0_e203f026a2" x="117.276923" y="221.123077" style="fill: #0000ff; stroke: #000000"/>
    <use xlink:href="#C0_0_e203f026a2" x="221.123077" y="117.276923" style="fill: #0000ff; stroke: #000000"/>
    <use xlink:href="#C0_0_e203f026a2" x="324.969231" y="221.123077" style="fill: #ffff00; stroke: #000000"/>
    <use xlink:href="#C0_0_e203f026a2" x="117.276923" y="13.430769" style="fill: #ffff00; stroke: #000000"/>
   </g>
  </g>
 </g>
 <defs>
  <clipPath id="p6eab363a3e">
   <rect x="7.2" y="7.2" width="324" height="324"/>
  </clipPath>
 </defs>
</g>
    <g transform="translate(1165.1999999999998, 1165.1999999999998) scale(1 1) "><metadata>
  <rdf:RDF xmlns:dc="http://purl.org/dc/elements/1.1/" xmlns:cc="http://creativecommons.org/ns#" xmlns:rdf="http://www.w3.org/1999/02/22-rdf-syntax-ns#">
   <cc:Work>
    <dc:type rdf:resource="http://purl.org/dc/dcmitype/StillImage"/>
    <dc:date>2025-04-22T20:22:17.710575</dc:date>
    <dc:format>image/svg+xml</dc:format>
    <dc:creator>
     <cc:Agent>
      <dc:title>Matplotlib v3.8.0, https://matplotlib.org/</dc:title>
     </cc:Agent>
    </dc:creator>
   </cc:Work>
  </rdf:RDF>
 </metadata>
 <defs>
  <style type="text/css">*{stroke-linejoin: round; stroke-linecap: butt}</style>
 </defs>
 <g id="figure_1">
  <g id="patch_1">
   <path d="M -0 338.4  L 338.4 338.4  L 338.4 0  L -0 0  z " style="fill: #ffffff"/>
  </g>
  <g id="axes_1">
   <g id="patch_2">
    <path d="M 7.2 331.2  L 331.2 331.2  L 331.2 7.2  L 7.2 7.2  z " style="fill: #ffffff"/>
   </g>
   <g id="matplotlib.axis_1"/>
   <g id="matplotlib.axis_2"/>
   <g id="line2d_1">
    <path d="M 13.430769 324.969231  L 221.123077 324.969231  " clip-path="url(#pde2c8def20)" style="fill: none; stroke: #000000; stroke-linecap: square"/>
   </g>
   <g id="line2d_2">
    <path d="M 13.430769 324.969231  L 13.430769 117.276923  " clip-path="url(#pde2c8def20)" style="fill: none; stroke: #000000; stroke-linecap: square"/>
   </g>
   <g id="line2d_3">
    <path d="M 13.430769 324.969231  L 117.276923 221.123077  " clip-path="url(#pde2c8def20)" style="fill: none; stroke-dasharray: 1,1.65; stroke-dashoffset: 0; stroke: #000000"/>
   </g>
   <g id="line2d_4">
    <path d="M 221.123077 324.969231  L 221.123077 117.276923  " clip-path="url(#pde2c8def20)" style="fill: none; stroke: #000000; stroke-linecap: square"/>
   </g>
   <g id="line2d_5">
    <path d="M 221.123077 324.969231  L 324.969231 221.123077  " clip-path="url(#pde2c8def20)" style="fill: none; stroke: #000000; stroke-linecap: square"/>
   </g>
   <g id="line2d_6">
    <path d="M 13.430769 117.276923  L 221.123077 117.276923  " clip-path="url(#pde2c8def20)" style="fill: none; stroke: #000000; stroke-linecap: square"/>
   </g>
   <g id="line2d_7">
    <path d="M 13.430769 117.276923  L 117.276923 13.430769  " clip-path="url(#pde2c8def20)" style="fill: none; stroke: #000000; stroke-linecap: square"/>
   </g>
   <g id="line2d_8">
    <path d="M 117.276923 221.123077  L 324.969231 221.123077  " clip-path="url(#pde2c8def20)" style="fill: none; stroke-dasharray: 1,1.65; stroke-dashoffset: 0; stroke: #000000"/>
   </g>
   <g id="line2d_9">
    <path d="M 117.276923 221.123077  L 117.276923 13.430769  " clip-path="url(#pde2c8def20)" style="fill: none; stroke-dasharray: 1,1.65; stroke-dashoffset: 0; stroke: #000000"/>
   </g>
   <g id="line2d_10">
    <path d="M 221.123077 117.276923  L 324.969231 13.430769  " clip-path="url(#pde2c8def20)" style="fill: none; stroke: #000000; stroke-linecap: square"/>
   </g>
   <g id="line2d_11">
    <path d="M 324.969231 221.123077  L 324.969231 13.430769  " clip-path="url(#pde2c8def20)" style="fill: none; stroke: #000000; stroke-linecap: square"/>
   </g>
   <g id="line2d_12">
    <path d="M 117.276923 13.430769  L 324.969231 13.430769  " clip-path="url(#pde2c8def20)" style="fill: none; stroke: #000000; stroke-linecap: square"/>
   </g>
   <g id="PathCollection_1">
    <defs>
     <path id="C0_0_fa7f5206b5" d="M 0 7.071068  C 1.875269 7.071068 3.673985 6.326016 5 5  C 6.326016 3.673985 7.071068 1.875269 7.071068 -0  C 7.071068 -1.875269 6.326016 -3.673985 5 -5  C 3.673985 -6.326016 1.875269 -7.071068 0 -7.071068  C -1.875269 -7.071068 -3.673985 -6.326016 -5 -5  C -6.326016 -3.673985 -7.071068 -1.875269 -7.071068 0  C -7.071068 1.875269 -6.326016 3.673985 -5 5  C -3.673985 6.326016 -1.875269 7.071068 0 7.071068  z "/>
    </defs>
    <use xlink:href="#C0_0_fa7f5206b5" x="13.430769" y="324.969231" style="fill: #ff0000; stroke: #000000"/>
    <use xlink:href="#C0_0_fa7f5206b5" x="324.969231" y="13.430769" style="fill: #ff0000; stroke: #000000"/>
    <use xlink:href="#C0_0_fa7f5206b5" x="221.123077" y="324.969231" style="fill: #00ff00; stroke: #000000"/>
    <use xlink:href="#C0_0_fa7f5206b5" x="117.276923" y="13.430769" style="fill: #00ff00; stroke: #000000"/>
    <use xlink:href="#C0_0_fa7f5206b5" x="13.430769" y="117.276923" style="fill: #0000ff; stroke: #000000"/>
    <use xlink:href="#C0_0_fa7f5206b5" x="324.969231" y="221.123077" style="fill: #0000ff; stroke: #000000"/>
    <use xlink:href="#C0_0_fa7f5206b5" x="117.276923" y="221.123077" style="fill: #ffff00; stroke: #000000"/>
    <use xlink:href="#C0_0_fa7f5206b5" x="221.123077" y="117.276923" style="fill: #ffff00; stroke: #000000"/>
   </g>
  </g>
 </g>
 <defs>
  <clipPath id="pde2c8def20">
   <rect x="7.2" y="7.2" width="324" height="324"/>
  </clipPath>
 </defs>
</g>
  </g>
</svg>
