<?xml version='1.0' encoding='ASCII' standalone='yes'?>
<svg xmlns="http://www.w3.org/2000/svg" xmlns:xlink="http://www.w3.org/1999/xlink" version="1.1" width="419.3999999999999pt" viewBox="0 0 419.3999999999999 338.4" height="338.4pt">
  <g>
    <g>
      <rect width="100%" height="100%" fill="white"/>
    </g>
    <g transform="translate(0.0, 0.0) scale(1 1) "><metadata>
  <rdf:RDF xmlns:dc="http://purl.org/dc/elements/1.1/" xmlns:cc="http://creativecommons.org/ns#" xmlns:rdf="http://www.w3.org/1999/02/22-rdf-syntax-ns#">
   <cc:Work>
    <dc:type rdf:resource="http://purl.org/dc/dcmitype/StillImage"/>
    <dc:date>2025-04-13T12:40:42.037565</dc:date>
    <dc:format>image/svg+xml</dc:format>
    <dc:creator>
     <cc:Agent>
      <dc:title>Matplotlib v3.8.0, https://matplotlib.org/</dc:title>
     </cc:Agent>
    </dc:creator>
   </cc:Work>
  </rdf:RDF>
 </metadata>
 <defs>
  <style type="text/css">*{stroke-linejoin: round; stroke-linecap: butt}</style>
 </defs>
 <g id="figure_1">
  <g id="patch_1">
   <path d="M 0 338.4  L 419.4 338.4  L 419.4 0  L 0 0  z " style="fill: #ffffff"/>
  </g>
  <g id="axes_1">
   <g id="patch_2">
    <path d="M 7.2 331.2  L 412.2 331.2  L 412.2 7.2  L 7.2 7.2  z " style="fill: #ffffff"/>
   </g>
   <g id="matplotlib.axis_1"/>
   <g id="matplotlib.axis_2"/>
   <g id="line2d_1">
    <path d="M 14.988462 324.969231  L 209.7 195.161538  " clip-path="url(#p04d3790b5e)" style="fill: none; stroke-dasharray: 1,1.65; stroke-dashoffset: 0; stroke: #000000"/>
   </g>
   <g id="line2d_2">
    <path d="M 14.988462 324.969231  L 404.411538 324.969231  " clip-path="url(#p04d3790b5e)" style="fill: none; stroke: #000000; stroke-linecap: square"/>
   </g>
   <g id="line2d_3">
    <path d="M 14.988462 324.969231  L 209.7 13.430769  " clip-path="url(#p04d3790b5e)" style="fill: none; stroke: #000000; stroke-linecap: square"/>
   </g>
   <g id="line2d_4">
    <path d="M 209.7 195.161538  L 404.411538 324.969231  " clip-path="url(#p04d3790b5e)" style="fill: none; stroke-dasharray: 1,1.65; stroke-dashoffset: 0; stroke: #000000"/>
   </g>
   <g id="line2d_5">
    <path d="M 209.7 195.161538  L 209.7 13.430769  " clip-path="url(#p04d3790b5e)" style="fill: none; stroke-dasharray: 1,1.65; stroke-dashoffset: 0; stroke: #000000"/>
   </g>
   <g id="line2d_6">
    <path d="M 404.411538 324.969231  L 209.7 13.430769  " clip-path="url(#p04d3790b5e)" style="fill: none; stroke: #000000; stroke-linecap: square"/>
   </g>
   <g id="PathCollection_1">
    <defs>
     <path id="C0_0_ad5b5abc07" d="M 0 7.071068  C 1.875269 7.071068 3.673985 6.326016 5 5  C 6.326016 3.673985 7.071068 1.875269 7.071068 -0  C 7.071068 -1.875269 6.326016 -3.673985 5 -5  C 3.673985 -6.326016 1.875269 -7.071068 0 -7.071068  C -1.875269 -7.071068 -3.673985 -6.326016 -5 -5  C -6.326016 -3.673985 -7.071068 -1.875269 -7.071068 0  C -7.071068 1.875269 -6.326016 3.673985 -5 5  C -3.673985 6.326016 -1.875269 7.071068 0 7.071068  z "/>
    </defs>
    <use xlink:href="#C0_0_ad5b5abc07" x="14.988462" y="324.969231" style="fill: #ff0000; stroke: #000000"/>
    <use xlink:href="#C0_0_ad5b5abc07" x="209.7" y="195.161538" style="fill: #00ff00; stroke: #000000"/>
    <use xlink:href="#C0_0_ad5b5abc07" x="404.411538" y="324.969231" style="fill: #0000ff; stroke: #000000"/>
    <use xlink:href="#C0_0_ad5b5abc07" x="209.7" y="13.430769" style="fill: #ffff00; stroke: #000000"/>
   </g>
  </g>
 </g>
 <defs>
  <clipPath id="p04d3790b5e">
   <rect x="7.2" y="7.2" width="405" height="324"/>
  </clipPath>
 </defs>
</g>
  </g>
</svg>
